# Blender 4.4.1
# www.blender.org
o Cube
v -1.000000 -1.000000 1.000000
v -1.000000 1.000000 1.000000
v -1.000000 -1.000000 -1.000000
v -1.000000 1.000000 -1.000000
v 1.000000 -1.000000 1.000000
v 1.000000 1.000000 1.000000
v 1.000000 -1.000000 -1.000000
v 1.000000 1.000000 -1.000000
vn -0.5773 -0.5774 0.5774
vn -0.5774 0.5773 0.5773
vn -0.5774 -0.5773 -0.5773
vn -0.5773 0.5774 -0.5774
vn 0.5774 -0.5773 0.5773
vn 0.5773 0.5774 0.5774
vn 0.5773 -0.5774 -0.5774
vn 0.5774 0.5773 -0.5773
vt 1.000000 0.625000
vt 0.750000 0.375000
vt 1.000000 0.375000
vt 0.750000 0.625000
vt 0.500000 0.375000
vt 0.500000 0.625000
vt 0.250000 0.375000
vt 0.250000 0.625000
vt 0.000000 0.375000
vt 0.250000 0.125000
vt 0.500000 0.125000
vt 0.500000 0.875000
vt 0.000000 0.625000
vt 0.250000 0.875000
s 1
f 2/1/2 3/2/3 1/3/1
f 4/4/4 7/5/7 3/2/3
f 8/6/8 5/7/5 7/5/7
f 6/8/6 1/9/1 5/7/5
f 7/5/7 1/10/1 3/11/3
f 4/12/4 6/8/6 8/6/8
f 2/1/2 4/4/4 3/2/3
f 4/4/4 8/6/8 7/5/7
f 8/6/8 6/8/6 5/7/5
f 6/8/6 2/13/2 1/9/1
f 7/5/7 5/7/5 1/10/1
f 4/12/4 2/14/2 6/8/6
