# Blender 4.4.1
# www.blender.org
o Plane
v -1.000000 0.000000 1.000000
v 1.000000 0.000000 1.000000
v -1.000000 0.000000 -1.000000
v 1.000000 0.000000 -1.000000
v -0.750000 0.000000 1.000000
v -0.500000 0.000000 1.000000
v -0.250000 0.000000 1.000000
v 0.000000 0.000000 1.000000
v 0.250000 0.000000 1.000000
v 0.500000 0.000000 1.000000
v 0.750000 0.000000 1.000000
v 0.750000 0.000000 -1.000000
v 0.500000 0.000000 -1.000000
v 0.250000 0.000000 -1.000000
v 0.000000 0.000000 -1.000000
v -0.250000 0.000000 -1.000000
v -0.500000 0.000000 -1.000000
v -0.750000 0.000000 -1.000000
v -1.000000 0.000000 -0.777778
v -1.000000 0.000000 -0.555556
v -1.000000 0.000000 -0.333333
v -1.000000 0.000000 -0.111111
v -1.000000 0.000000 0.111111
v -1.000000 0.000000 0.333333
v -1.000000 0.000000 0.555556
v -1.000000 0.000000 0.777778
v 1.000000 0.000000 0.777778
v 1.000000 0.000000 0.555556
v 1.000000 0.000000 0.333333
v 1.000000 0.000000 0.111111
v 1.000000 0.000000 -0.111111
v 1.000000 0.000000 -0.333333
v 1.000000 0.000000 -0.555556
v 1.000000 0.000000 -0.777778
v -0.750000 0.000000 0.777778
v -0.750000 0.000000 0.555556
v -0.750000 0.000000 0.333333
v -0.750000 0.000000 0.111111
v -0.750000 0.000000 -0.111111
v -0.750000 0.000000 -0.333333
v -0.750000 0.000000 -0.555556
v -0.750000 0.000000 -0.777778
v -0.500000 0.000000 0.777778
v -0.500000 0.000000 0.555556
v -0.500000 0.000000 0.333333
v -0.500000 0.000000 0.111111
v -0.500000 0.000000 -0.111111
v -0.500000 0.000000 -0.333333
v -0.500000 0.000000 -0.555556
v -0.500000 0.000000 -0.777778
v -0.250000 0.000000 0.777778
v -0.250000 0.000000 0.555556
v -0.250000 0.000000 0.333333
v -0.250000 0.000000 0.111111
v -0.250000 0.000000 -0.111111
v -0.250000 0.000000 -0.333333
v -0.250000 0.000000 -0.555556
v -0.250000 0.000000 -0.777778
v 0.000000 0.000000 0.777778
v 0.000000 0.000000 0.555556
v 0.000000 0.000000 0.333333
v 0.000000 0.000000 0.111111
v 0.000000 0.000000 -0.111111
v 0.000000 0.000000 -0.333333
v 0.000000 0.000000 -0.555556
v 0.000000 0.000000 -0.777778
v 0.250000 0.000000 0.777778
v 0.250000 0.000000 0.555556
v 0.250000 0.000000 0.333333
v 0.250000 0.000000 0.111111
v 0.250000 0.000000 -0.111111
v 0.250000 0.000000 -0.333333
v 0.250000 0.000000 -0.555556
v 0.250000 0.000000 -0.777778
v 0.500000 0.000000 0.777778
v 0.500000 0.000000 0.555556
v 0.500000 0.000000 0.333333
v 0.500000 0.000000 0.111111
v 0.500000 0.000000 -0.111111
v 0.500000 0.000000 -0.333333
v 0.500000 0.000000 -0.555556
v 0.500000 0.000000 -0.777778
v 0.750000 0.000000 0.777778
v 0.750000 0.000000 0.555556
v 0.750000 0.000000 0.333333
v 0.750000 0.000000 0.111111
v 0.750000 0.000000 -0.111111
v 0.750000 0.000000 -0.333333
v 0.750000 0.000000 -0.555556
v 0.750000 0.000000 -0.777778
vn -0.0000 1.0000 -0.0000
vt 1.000000 0.888889
vt 0.875000 1.000000
vt 0.875000 0.888889
vt 0.125000 0.888889
vt 0.000000 1.000000
vt 0.000000 0.888889
vt 0.250000 0.888889
vt 0.125000 1.000000
vt 0.375000 0.888889
vt 0.250000 1.000000
vt 0.500000 0.888889
vt 0.375000 1.000000
vt 0.625000 0.888889
vt 0.500000 1.000000
vt 0.750000 0.888889
vt 0.625000 1.000000
vt 0.750000 1.000000
vt 0.875000 0.000000
vt 0.750000 0.111111
vt 0.750000 0.000000
vt 0.875000 0.111111
vt 0.750000 0.222222
vt 0.875000 0.222222
vt 0.750000 0.333333
vt 0.875000 0.333333
vt 0.750000 0.444444
vt 0.875000 0.444444
vt 0.750000 0.555556
vt 0.875000 0.555556
vt 0.750000 0.666667
vt 0.875000 0.666667
vt 0.750000 0.777778
vt 0.875000 0.777778
vt 0.625000 0.111111
vt 0.625000 0.000000
vt 0.625000 0.222222
vt 0.625000 0.333333
vt 0.625000 0.444444
vt 0.625000 0.555556
vt 0.625000 0.666667
vt 0.625000 0.777778
vt 0.500000 0.111111
vt 0.500000 0.000000
vt 0.500000 0.222222
vt 0.500000 0.333333
vt 0.500000 0.444444
vt 0.500000 0.555556
vt 0.500000 0.666667
vt 0.500000 0.777778
vt 0.375000 0.111111
vt 0.375000 0.000000
vt 0.375000 0.222222
vt 0.375000 0.333333
vt 0.375000 0.444444
vt 0.375000 0.555556
vt 0.375000 0.666667
vt 0.375000 0.777778
vt 0.250000 0.111111
vt 0.250000 0.000000
vt 0.250000 0.222222
vt 0.250000 0.333333
vt 0.250000 0.444444
vt 0.250000 0.555556
vt 0.250000 0.666667
vt 0.250000 0.777778
vt 0.125000 0.111111
vt 0.125000 0.000000
vt 0.125000 0.222222
vt 0.125000 0.333333
vt 0.125000 0.444444
vt 0.125000 0.555556
vt 0.125000 0.666667
vt 0.125000 0.777778
vt 0.000000 0.111111
vt 0.000000 0.000000
vt 0.000000 0.222222
vt 0.000000 0.333333
vt 0.000000 0.444444
vt 0.000000 0.555556
vt 0.000000 0.666667
vt 0.000000 0.777778
vt 1.000000 0.000000
vt 1.000000 0.111111
vt 1.000000 0.222222
vt 1.000000 0.333333
vt 1.000000 0.444444
vt 1.000000 0.555556
vt 1.000000 0.666667
vt 1.000000 0.777778
vt 1.000000 1.000000
s 1
f 34/1/1 12/2/1 90/3/1
f 42/4/1 3/5/1 19/6/1
f 50/7/1 18/8/1 42/4/1
f 58/9/1 17/10/1 50/7/1
f 66/11/1 16/12/1 58/9/1
f 74/13/1 15/14/1 66/11/1
f 82/15/1 14/16/1 74/13/1
f 90/3/1 13/17/1 82/15/1
f 11/18/1 75/19/1 10/20/1
f 83/21/1 76/22/1 75/19/1
f 84/23/1 77/24/1 76/22/1
f 85/25/1 78/26/1 77/24/1
f 86/27/1 79/28/1 78/26/1
f 87/29/1 80/30/1 79/28/1
f 88/31/1 81/32/1 80/30/1
f 89/33/1 82/15/1 81/32/1
f 10/20/1 67/34/1 9/35/1
f 75/19/1 68/36/1 67/34/1
f 76/22/1 69/37/1 68/36/1
f 77/24/1 70/38/1 69/37/1
f 78/26/1 71/39/1 70/38/1
f 79/28/1 72/40/1 71/39/1
f 80/30/1 73/41/1 72/40/1
f 81/32/1 74/13/1 73/41/1
f 9/35/1 59/42/1 8/43/1
f 67/34/1 60/44/1 59/42/1
f 68/36/1 61/45/1 60/44/1
f 69/37/1 62/46/1 61/45/1
f 70/38/1 63/47/1 62/46/1
f 71/39/1 64/48/1 63/47/1
f 72/40/1 65/49/1 64/48/1
f 73/41/1 66/11/1 65/49/1
f 8/43/1 51/50/1 7/51/1
f 59/42/1 52/52/1 51/50/1
f 60/44/1 53/53/1 52/52/1
f 61/45/1 54/54/1 53/53/1
f 62/46/1 55/55/1 54/54/1
f 63/47/1 56/56/1 55/55/1
f 64/48/1 57/57/1 56/56/1
f 65/49/1 58/9/1 57/57/1
f 7/51/1 43/58/1 6/59/1
f 51/50/1 44/60/1 43/58/1
f 52/52/1 45/61/1 44/60/1
f 53/53/1 46/62/1 45/61/1
f 54/54/1 47/63/1 46/62/1
f 55/55/1 48/64/1 47/63/1
f 56/56/1 49/65/1 48/64/1
f 57/57/1 50/7/1 49/65/1
f 6/59/1 35/66/1 5/67/1
f 43/58/1 36/68/1 35/66/1
f 44/60/1 37/69/1 36/68/1
f 45/61/1 38/70/1 37/69/1
f 46/62/1 39/71/1 38/70/1
f 47/63/1 40/72/1 39/71/1
f 48/64/1 41/73/1 40/72/1
f 49/65/1 42/4/1 41/73/1
f 5/67/1 26/74/1 1/75/1
f 35/66/1 25/76/1 26/74/1
f 36/68/1 24/77/1 25/76/1
f 37/69/1 23/78/1 24/77/1
f 38/70/1 22/79/1 23/78/1
f 39/71/1 21/80/1 22/79/1
f 40/72/1 20/81/1 21/80/1
f 41/73/1 19/6/1 20/81/1
f 2/82/1 83/21/1 11/18/1
f 27/83/1 84/23/1 83/21/1
f 28/84/1 85/25/1 84/23/1
f 29/85/1 86/27/1 85/25/1
f 30/86/1 87/29/1 86/27/1
f 31/87/1 88/31/1 87/29/1
f 32/88/1 89/33/1 88/31/1
f 33/89/1 90/3/1 89/33/1
f 34/1/1 4/90/1 12/2/1
f 42/4/1 18/8/1 3/5/1
f 50/7/1 17/10/1 18/8/1
f 58/9/1 16/12/1 17/10/1
f 66/11/1 15/14/1 16/12/1
f 74/13/1 14/16/1 15/14/1
f 82/15/1 13/17/1 14/16/1
f 90/3/1 12/2/1 13/17/1
f 11/18/1 83/21/1 75/19/1
f 83/21/1 84/23/1 76/22/1
f 84/23/1 85/25/1 77/24/1
f 85/25/1 86/27/1 78/26/1
f 86/27/1 87/29/1 79/28/1
f 87/29/1 88/31/1 80/30/1
f 88/31/1 89/33/1 81/32/1
f 89/33/1 90/3/1 82/15/1
f 10/20/1 75/19/1 67/34/1
f 75/19/1 76/22/1 68/36/1
f 76/22/1 77/24/1 69/37/1
f 77/24/1 78/26/1 70/38/1
f 78/26/1 79/28/1 71/39/1
f 79/28/1 80/30/1 72/40/1
f 80/30/1 81/32/1 73/41/1
f 81/32/1 82/15/1 74/13/1
f 9/35/1 67/34/1 59/42/1
f 67/34/1 68/36/1 60/44/1
f 68/36/1 69/37/1 61/45/1
f 69/37/1 70/38/1 62/46/1
f 70/38/1 71/39/1 63/47/1
f 71/39/1 72/40/1 64/48/1
f 72/40/1 73/41/1 65/49/1
f 73/41/1 74/13/1 66/11/1
f 8/43/1 59/42/1 51/50/1
f 59/42/1 60/44/1 52/52/1
f 60/44/1 61/45/1 53/53/1
f 61/45/1 62/46/1 54/54/1
f 62/46/1 63/47/1 55/55/1
f 63/47/1 64/48/1 56/56/1
f 64/48/1 65/49/1 57/57/1
f 65/49/1 66/11/1 58/9/1
f 7/51/1 51/50/1 43/58/1
f 51/50/1 52/52/1 44/60/1
f 52/52/1 53/53/1 45/61/1
f 53/53/1 54/54/1 46/62/1
f 54/54/1 55/55/1 47/63/1
f 55/55/1 56/56/1 48/64/1
f 56/56/1 57/57/1 49/65/1
f 57/57/1 58/9/1 50/7/1
f 6/59/1 43/58/1 35/66/1
f 43/58/1 44/60/1 36/68/1
f 44/60/1 45/61/1 37/69/1
f 45/61/1 46/62/1 38/70/1
f 46/62/1 47/63/1 39/71/1
f 47/63/1 48/64/1 40/72/1
f 48/64/1 49/65/1 41/73/1
f 49/65/1 50/7/1 42/4/1
f 5/67/1 35/66/1 26/74/1
f 35/66/1 36/68/1 25/76/1
f 36/68/1 37/69/1 24/77/1
f 37/69/1 38/70/1 23/78/1
f 38/70/1 39/71/1 22/79/1
f 39/71/1 40/72/1 21/80/1
f 40/72/1 41/73/1 20/81/1
f 41/73/1 42/4/1 19/6/1
f 2/82/1 27/83/1 83/21/1
f 27/83/1 28/84/1 84/23/1
f 28/84/1 29/85/1 85/25/1
f 29/85/1 30/86/1 86/27/1
f 30/86/1 31/87/1 87/29/1
f 31/87/1 32/88/1 88/31/1
f 32/88/1 33/89/1 89/33/1
f 33/89/1 34/1/1 90/3/1
