# Blender 4.4.1
# www.blender.org
mtllib ring.mtl
o Torus
v 0.857372 -0.383280 0.824930
v 0.752944 -0.236965 0.890492
v 0.609241 -0.131455 0.821002
v 0.510443 -0.128557 0.657167
v 0.514423 -0.229968 0.494958
v 0.618851 -0.376283 0.429396
v 0.762553 -0.481793 0.498886
v 0.861352 -0.484691 0.662722
v 1.001834 -0.218811 0.714809
v 0.888943 -0.082130 0.786821
v 0.724811 0.000120 0.732905
v 0.605582 -0.020241 0.584643
v 0.601100 -0.131287 0.428885
v 0.713990 -0.267968 0.356872
v 0.878123 -0.350218 0.410789
v 0.997351 -0.329857 0.559051
v 1.107795 -0.045934 0.577217
v 0.988698 0.080620 0.657290
v 0.809580 0.138422 0.622831
v 0.675366 0.093612 0.494028
v 0.664677 -0.027560 0.346330
v 0.783774 -0.154114 0.266258
v 0.962892 -0.211916 0.300716
v 1.097106 -0.167106 0.429519
v 1.171185 0.128709 0.417443
v 1.048375 0.245033 0.506875
v 0.860292 0.278136 0.495013
v 0.717114 0.208628 0.388804
v 0.702711 0.077225 0.250466
v 0.825522 -0.039098 0.161034
v 1.013604 -0.072202 0.172897
v 1.156783 -0.002694 0.279105
v 1.189567 0.298406 0.241627
v 1.065680 0.404789 0.341358
v 0.874998 0.413894 0.354360
v 0.729220 0.320387 0.273016
v 0.713740 0.179043 0.144977
v 0.837628 0.072660 0.045246
v 1.028310 0.063555 0.032244
v 1.174088 0.157062 0.113588
v 1.162235 0.456635 0.056526
v 1.039949 0.553749 0.167100
v 0.853132 0.540477 0.206279
v 0.711219 0.424593 0.151112
v 0.697341 0.273981 0.033916
v 0.819627 0.176867 -0.076658
v 1.006444 0.190139 -0.115837
v 1.148357 0.306022 -0.060670
v 1.090238 0.597315 -0.130747
v 0.972170 0.686188 -0.009203
v 0.795535 0.653021 0.056460
v 0.663804 0.517242 0.027778
v 0.654143 0.358389 -0.078448
v 0.772212 0.269516 -0.199992
v 0.948847 0.302683 -0.265656
v 1.080578 0.438462 -0.236973
v 0.976345 0.715041 -0.312996
v 0.864948 0.797019 -0.180776
v 0.704420 0.747202 -0.089339
v 0.588796 0.594774 -0.092248
v 0.585807 0.429025 -0.187798
v 0.697204 0.347048 -0.320018
v 0.857732 0.396864 -0.411455
v 0.973356 0.549292 -0.408547
v 0.824930 0.805289 -0.483217
v 0.722403 0.881980 -0.341026
v 0.583288 0.819400 -0.225516
v 0.489078 0.654209 -0.204352
v 0.494958 0.483173 -0.289930
v 0.597486 0.406483 -0.432122
v 0.736600 0.469062 -0.547632
v 0.830811 0.634253 -0.568796
v 0.641815 0.864590 -0.634868
v 0.550014 0.937807 -0.483794
v 0.436796 0.866841 -0.346837
v 0.368482 0.693264 -0.304226
v 0.385089 0.518754 -0.380921
v 0.476889 0.445537 -0.531996
v 0.590108 0.516503 -0.668953
v 0.658422 0.690080 -0.711564
v 0.434034 0.890665 -0.762122
v 0.354405 0.962354 -0.603593
v 0.270572 0.887701 -0.448640
v 0.231642 0.710436 -0.388032
v 0.260421 0.534399 -0.457273
v 0.340050 0.462710 -0.615802
v 0.423883 0.537363 -0.770755
v 0.462813 0.714628 -0.831363
v 0.209575 0.882512 -0.860087
v 0.143094 0.954679 -0.695819
v 0.091004 0.881179 -0.527012
v 0.083817 0.705067 -0.452550
v 0.125745 0.529508 -0.516052
v 0.192225 0.457341 -0.680320
v 0.244316 0.530841 -0.849128
v 0.251502 0.706953 -0.923590
v -0.022940 0.840445 -0.925000
v -0.075800 0.915076 -0.756930
v -0.095008 0.847525 -0.578942
v -0.069312 0.677363 -0.495300
v -0.013764 0.504267 -0.555000
v 0.039096 0.429636 -0.723070
v 0.058304 0.497187 -0.901058
v 0.032608 0.667350 -0.984700
v -0.254572 0.766080 -0.954366
v -0.293863 0.845068 -0.784575
v -0.280313 0.788033 -0.602435
v -0.221859 0.628388 -0.514640
v -0.152743 0.459648 -0.572619
v -0.113451 0.380661 -0.742410
v -0.127001 0.437695 -0.924550
v -0.185455 0.597341 -1.012345
v -0.476421 0.662275 -0.947056
v -0.502717 0.747344 -0.777693
v -0.457793 0.704990 -0.596587
v -0.367965 0.560024 -0.509825
v -0.285852 0.397365 -0.568233
v -0.259557 0.312297 -0.737596
v -0.304481 0.354651 -0.918702
v -0.394309 0.499617 -1.005463
v -0.679962 0.533020 -0.903351
v -0.694334 0.625659 -0.736548
v -0.620625 0.601585 -0.561623
v -0.502012 0.474899 -0.481042
v -0.407977 0.319812 -0.542010
v -0.393604 0.227172 -0.708813
v -0.467313 0.251247 -0.883738
v -0.585926 0.377933 -0.964319
v -0.857372 0.383280 -0.824930
v -0.861352 0.484691 -0.662722
v -0.762553 0.481793 -0.498886
v -0.618851 0.376283 -0.429396
v -0.514423 0.229968 -0.494958
v -0.510443 0.128557 -0.657167
v -0.609241 0.131455 -0.821002
v -0.752944 0.236965 -0.890492
v -1.001833 0.218811 -0.714809
v -0.997351 0.329857 -0.559051
v -0.878123 0.350218 -0.410789
v -0.713990 0.267968 -0.356873
v -0.601100 0.131287 -0.428885
v -0.605582 0.020241 -0.584643
v -0.724811 -0.000120 -0.732905
v -0.888943 0.082130 -0.786821
v -1.107795 0.045934 -0.577217
v -1.097106 0.167107 -0.429520
v -0.962892 0.211916 -0.300716
v -0.783774 0.154115 -0.266258
v -0.664677 0.027561 -0.346330
v -0.675366 -0.093612 -0.494028
v -0.809580 -0.138422 -0.622832
v -0.988698 -0.080620 -0.657290
v -1.171185 -0.128709 -0.417443
v -1.156783 0.002694 -0.279105
v -1.013604 0.072202 -0.172897
v -0.825522 0.039098 -0.161034
v -0.702711 -0.077225 -0.250466
v -0.717114 -0.208628 -0.388804
v -0.860292 -0.278136 -0.495012
v -1.048375 -0.245033 -0.506875
v -1.189567 -0.298405 -0.241628
v -1.174088 -0.157062 -0.113588
v -1.028310 -0.063555 -0.032244
v -0.837628 -0.072660 -0.045246
v -0.713740 -0.179043 -0.144977
v -0.729220 -0.320387 -0.273016
v -0.874998 -0.413893 -0.354360
v -1.065680 -0.404788 -0.341359
v -1.162235 -0.456634 -0.056527
v -1.148357 -0.306022 0.060670
v -1.006444 -0.190138 0.115836
v -0.819627 -0.176866 0.076658
v -0.697341 -0.273980 -0.033916
v -0.711219 -0.424593 -0.151112
v -0.853132 -0.540476 -0.206279
v -1.039949 -0.553748 -0.167101
v -1.090238 -0.597315 0.130747
v -1.080578 -0.438462 0.236973
v -0.948847 -0.302683 0.265656
v -0.772212 -0.269516 0.199993
v -0.654143 -0.358389 0.078448
v -0.663804 -0.517242 -0.027778
v -0.795535 -0.653021 -0.056460
v -0.972170 -0.686189 0.009203
v -0.976345 -0.715041 0.312996
v -0.973356 -0.549292 0.408546
v -0.857732 -0.396864 0.411455
v -0.697204 -0.347048 0.320018
v -0.585807 -0.429025 0.187798
v -0.588796 -0.594774 0.092247
v -0.704420 -0.747202 0.089339
v -0.864948 -0.797018 0.180776
v -0.824930 -0.805289 0.483217
v -0.830811 -0.634253 0.568796
v -0.736600 -0.469062 0.547632
v -0.597485 -0.406483 0.432122
v -0.494958 -0.483174 0.289930
v -0.489078 -0.654209 0.204352
v -0.583288 -0.819400 0.225516
v -0.722403 -0.881980 0.341026
v -0.641815 -0.864590 0.634868
v -0.658422 -0.690080 0.711564
v -0.590108 -0.516503 0.668952
v -0.476890 -0.445537 0.531996
v -0.385089 -0.518754 0.380921
v -0.368482 -0.693264 0.304226
v -0.436796 -0.866841 0.346837
v -0.550014 -0.937807 0.483793
v -0.434034 -0.890665 0.762122
v -0.462813 -0.714628 0.831363
v -0.423883 -0.537363 0.770755
v -0.340050 -0.462710 0.615802
v -0.260421 -0.534399 0.457273
v -0.231642 -0.710436 0.388032
v -0.270571 -0.887701 0.448640
v -0.354405 -0.962354 0.603593
v -0.209575 -0.882513 0.860087
v -0.251502 -0.706953 0.923590
v -0.244316 -0.530841 0.849128
v -0.192225 -0.457341 0.680320
v -0.125745 -0.529508 0.516052
v -0.083817 -0.705067 0.452550
v -0.091004 -0.881179 0.527012
v -0.143094 -0.954679 0.695819
v 0.022939 -0.840446 0.925000
v -0.032609 -0.667350 0.984700
v -0.058305 -0.497187 0.901058
v -0.039097 -0.429636 0.723070
v 0.013763 -0.504267 0.555000
v 0.069311 -0.677363 0.495300
v 0.095007 -0.847526 0.578942
v 0.075799 -0.915077 0.756930
v 0.254572 -0.766080 0.954366
v 0.185455 -0.597341 1.012345
v 0.127001 -0.437695 0.924550
v 0.113452 -0.380661 0.742410
v 0.152743 -0.459648 0.572619
v 0.221859 -0.628388 0.514640
v 0.280313 -0.788033 0.602435
v 0.293863 -0.845068 0.784575
v 0.476421 -0.662276 0.947056
v 0.394308 -0.499617 1.005463
v 0.304480 -0.354651 0.918702
v 0.259556 -0.312297 0.737596
v 0.285852 -0.397365 0.568233
v 0.367964 -0.560024 0.509826
v 0.457792 -0.704990 0.596587
v 0.502716 -0.747344 0.777693
v 0.679962 -0.533019 0.903351
v 0.585927 -0.377933 0.964319
v 0.467313 -0.251246 0.883738
v 0.393604 -0.227172 0.708812
v 0.407977 -0.319812 0.542010
v 0.502012 -0.474899 0.481042
v 0.620625 -0.601585 0.561623
v 0.694335 -0.625659 0.736548
vn 0.5740 0.0433 0.8177
vn 0.0041 0.5539 0.8326
vn -0.5702 0.7399 0.3570
vn -0.8077 0.4908 -0.3266
vn -0.5740 -0.0433 -0.8177
vn -0.0041 -0.5539 -0.8326
vn 0.5702 -0.7399 -0.3570
vn 0.8077 -0.4908 0.3266
vn 0.6671 0.1687 0.7256
vn 0.0427 0.6060 0.7943
vn -0.6089 0.6878 0.3952
vn -0.9008 0.3654 -0.2346
vn -0.6671 -0.1687 -0.7256
vn -0.0427 -0.6060 -0.7943
vn 0.6089 -0.6878 -0.3952
vn 0.9008 -0.3654 0.2346
vn 0.7300 0.2978 0.6151
vn 0.0689 0.6597 0.7484
vn -0.6351 0.6341 0.4411
vn -0.9637 0.2363 -0.1241
vn -0.7300 -0.2978 -0.6151
vn -0.0689 -0.6597 -0.7484
vn 0.6351 -0.6341 -0.4411
vn 0.9637 -0.2363 0.1241
vn 0.7604 0.4258 0.4904
vn 0.0815 0.7128 0.6966
vn -0.6477 0.5809 0.4930
vn -0.9941 0.1083 0.0006
vn -0.7604 -0.4258 -0.4904
vn -0.0815 -0.7128 -0.6966
vn 0.6477 -0.5809 -0.4930
vn 0.9941 -0.1083 -0.0006
vn 0.7571 0.5476 0.3563
vn 0.0801 0.7635 0.6408
vn -0.6463 0.5303 0.5487
vn -0.9908 -0.0135 0.1347
vn -0.7571 -0.5476 -0.3563
vn -0.0802 -0.7635 -0.6408
vn 0.6463 -0.5303 -0.5487
vn 0.9908 0.0135 -0.1347
vn 0.7202 0.6587 0.2179
vn 0.0648 0.8097 0.5833
vn -0.6310 0.4841 0.6062
vn -0.9539 -0.1246 0.2731
vn -0.7202 -0.6587 -0.2179
vn -0.0648 -0.8097 -0.5833
vn 0.6310 -0.4841 -0.6062
vn 0.9539 0.1246 -0.2731
vn 0.6511 0.7547 0.0806
vn 0.0361 0.8496 0.5262
vn -0.6023 0.4442 0.6633
vn -0.8848 -0.2206 0.4104
vn -0.6511 -0.7547 -0.0806
vn -0.0361 -0.8496 -0.5262
vn 0.6023 -0.4442 -0.6633
vn 0.8848 0.2206 -0.4104
vn 0.5525 0.8320 -0.0504
vn -0.0049 0.8817 0.4718
vn -0.5613 0.4121 0.7177
vn -0.7862 -0.2979 0.5414
vn -0.5525 -0.8320 0.0504
vn 0.0049 -0.8817 -0.4718
vn 0.5613 -0.4121 -0.7177
vn 0.7862 0.2979 -0.5414
vn 0.4282 0.8876 -0.1700
vn -0.0565 0.9048 0.4221
vn -0.5096 0.3890 0.7675
vn -0.6619 -0.3535 0.6610
vn -0.4282 -0.8876 0.1700
vn 0.0565 -0.9048 -0.4221
vn 0.5096 -0.3890 -0.7675
vn 0.6619 0.3535 -0.6610
vn 0.2829 0.9193 -0.2736
vn -0.1169 0.9180 0.3790
vn -0.4492 0.3758 0.8105
vn -0.5166 -0.3852 0.7646
vn -0.2829 -0.9193 0.2736
vn 0.1169 -0.9180 -0.3790
vn 0.4492 -0.3758 -0.8105
vn 0.5166 0.3852 -0.7646
vn 0.1223 0.9259 -0.3573
vn -0.1837 0.9207 0.3442
vn -0.3825 0.3730 0.8453
vn -0.3560 -0.3919 0.8483
vn -0.1223 -0.9259 0.3573
vn 0.1837 -0.9207 -0.3442
vn 0.3825 -0.3730 -0.8453
vn 0.3560 0.3919 -0.8483
vn -0.0475 0.9073 -0.4178
vn -0.2543 0.9130 0.3191
vn -0.3119 0.3808 0.8705
vn -0.1862 -0.3732 0.9089
vn 0.0475 -0.9073 0.4178
vn 0.2543 -0.9130 -0.3191
vn 0.3119 -0.3808 -0.8705
vn 0.1862 0.3732 -0.9089
vn -0.2200 0.8640 -0.4529
vn -0.3259 0.8950 0.3045
vn -0.2402 0.3988 0.8850
vn -0.0137 -0.3300 0.9439
vn 0.2200 -0.8640 0.4529
vn 0.3259 -0.8950 -0.3045
vn 0.2402 -0.3988 -0.8850
vn 0.0137 0.3300 -0.9439
vn -0.3885 0.7978 -0.4610
vn -0.3960 0.8675 0.3011
vn -0.1702 0.4263 0.8884
vn 0.1548 -0.2637 0.9521
vn 0.3885 -0.7978 0.4610
vn 0.3960 -0.8675 -0.3011
vn 0.1702 -0.4263 -0.8884
vn -0.1548 0.2637 -0.9521
vn -0.5466 0.7112 -0.4421
vn -0.4617 0.8315 0.3090
vn -0.1045 0.4623 0.8806
vn 0.3129 -0.1771 0.9331
vn 0.5466 -0.7112 0.4421
vn 0.4617 -0.8315 -0.3090
vn 0.1045 -0.4623 -0.8806
vn -0.3129 0.1771 -0.9331
vn -0.6881 0.6075 -0.3967
vn -0.5205 0.7884 0.3278
vn -0.0456 0.5054 0.8617
vn 0.4544 -0.0735 0.8878
vn 0.6881 -0.6075 0.3967
vn 0.5205 -0.7884 -0.3278
vn 0.0456 -0.5054 -0.8617
vn -0.4544 0.0735 -0.8878
vn 0.0802 0.7635 0.6408
vn -0.0801 -0.7635 -0.6408
vt 0.531250 0.500000
vt 0.500000 0.625000
vt 0.500000 0.500000
vt 0.531250 0.625000
vt 0.500000 0.750000
vt 0.531250 0.750000
vt 0.500000 0.875000
vt 0.531250 0.875000
vt 0.500000 1.000000
vt 0.500000 0.000000
vt 0.531250 0.125000
vt 0.500000 0.125000
vt 0.500000 0.250000
vt 0.531250 0.375000
vt 0.500000 0.375000
vt 0.562500 0.625000
vt 0.562500 0.750000
vt 0.562500 0.875000
vt 0.531250 1.000000
vt 0.562500 0.000000
vt 0.531250 0.000000
vt 0.562500 0.125000
vt 0.531250 0.250000
vt 0.562500 0.250000
vt 0.562500 0.375000
vt 0.593750 0.500000
vt 0.562500 0.500000
vt 0.593750 0.625000
vt 0.593750 0.750000
vt 0.593750 0.875000
vt 0.562500 1.000000
vt 0.593750 0.125000
vt 0.593750 0.250000
vt 0.593750 0.375000
vt 0.625000 0.500000
vt 0.625000 0.750000
vt 0.625000 1.000000
vt 0.593750 1.000000
vt 0.625000 0.000000
vt 0.593750 0.000000
vt 0.625000 0.250000
vt 0.656250 0.625000
vt 0.625000 0.625000
vt 0.656250 0.750000
vt 0.656250 0.875000
vt 0.625000 0.875000
vt 0.656250 1.000000
vt 0.656250 0.000000
vt 0.625000 0.125000
vt 0.656250 0.125000
vt 0.656250 0.250000
vt 0.625000 0.375000
vt 0.656250 0.375000
vt 0.687500 0.500000
vt 0.656250 0.500000
vt 0.687500 0.750000
vt 0.687500 1.000000
vt 0.687500 0.000000
vt 0.687500 0.250000
vt 0.718750 0.500000
vt 0.687500 0.625000
vt 0.718750 0.625000
vt 0.718750 0.750000
vt 0.687500 0.875000
vt 0.718750 0.875000
vt 0.718750 0.000000
vt 0.687500 0.125000
vt 0.718750 0.125000
vt 0.718750 0.375000
vt 0.687500 0.375000
vt 0.750000 0.625000
vt 0.750000 0.750000
vt 0.750000 1.000000
vt 0.718750 1.000000
vt 0.750000 0.000000
vt 0.750000 0.250000
vt 0.718750 0.250000
vt 0.750000 0.375000
vt 0.781250 0.500000
vt 0.750000 0.500000
vt 0.781250 0.625000
vt 0.781250 0.750000
vt 0.750000 0.875000
vt 0.781250 0.875000
vt 0.781250 0.125000
vt 0.750000 0.125000
vt 0.781250 0.250000
vt 0.781250 0.375000
vt 0.812500 0.500000
vt 0.812500 0.750000
vt 0.812500 0.875000
vt 0.781250 1.000000
vt 0.781250 0.000000
vt 0.812500 0.125000
vt 0.812500 0.250000
vt 0.812500 0.375000
vt 0.843750 0.500000
vt 0.812500 0.625000
vt 0.843750 0.625000
vt 0.843750 0.750000
vt 0.843750 0.875000
vt 0.812500 1.000000
vt 0.812500 0.000000
vt 0.843750 0.125000
vt 0.843750 0.250000
vt 0.843750 0.375000
vt 0.875000 0.625000
vt 0.875000 0.750000
vt 0.875000 1.000000
vt 0.843750 1.000000
vt 0.875000 0.000000
vt 0.843750 0.000000
vt 0.875000 0.250000
vt 0.875000 0.375000
vt 0.875000 0.500000
vt 0.906250 0.625000
vt 0.906250 0.750000
vt 0.906250 0.875000
vt 0.875000 0.875000
vt 0.906250 1.000000
vt 0.906250 0.000000
vt 0.875000 0.125000
vt 0.906250 0.125000
vt 0.906250 0.250000
vt 0.906250 0.375000
vt 0.906250 0.500000
vt 0.937500 0.625000
vt 0.937500 0.875000
vt 0.937500 0.000000
vt 0.937500 0.125000
vt 0.937500 0.375000
vt 0.968750 0.500000
vt 0.937500 0.500000
vt 0.968750 0.750000
vt 0.937500 0.750000
vt 0.968750 0.875000
vt 0.968750 1.000000
vt 0.937500 1.000000
vt 0.968750 0.000000
vt 0.968750 0.125000
vt 0.937500 0.250000
vt 0.968750 0.250000
vt 0.968750 0.375000
vt 1.000000 0.500000
vt 0.968750 0.625000
vt 1.000000 0.625000
vt 1.000000 0.750000
vt 1.000000 0.875000
vt 1.000000 0.000000
vt 1.000000 0.250000
vt 1.000000 0.375000
vt 0.000000 0.500000
vt 0.031250 0.625000
vt 0.000000 0.625000
vt 0.031250 0.750000
vt 0.000000 0.750000
vt 0.031250 0.875000
vt 0.000000 0.875000
vt 0.000000 1.000000
vt 0.000000 0.000000
vt 0.031250 0.125000
vt 0.000000 0.125000
vt 0.000000 0.250000
vt 0.031250 0.250000
vt 0.000000 0.375000
vt 0.031250 0.375000
vt 0.031250 0.500000
vt 0.062500 0.625000
vt 0.062500 0.750000
vt 0.062500 0.875000
vt 0.031250 1.000000
vt 0.031250 0.000000
vt 0.062500 0.125000
vt 0.062500 0.250000
vt 0.062500 0.375000
vt 0.093750 0.500000
vt 0.062500 0.500000
vt 0.093750 0.625000
vt 0.093750 0.875000
vt 0.062500 1.000000
vt 0.093750 0.000000
vt 0.062500 0.000000
vt 0.093750 0.125000
vt 0.093750 0.250000
vt 0.125000 0.500000
vt 0.125000 0.625000
vt 0.093750 0.750000
vt 0.125000 0.750000
vt 0.125000 0.875000
vt 0.093750 1.000000
vt 0.125000 0.125000
vt 0.125000 0.250000
vt 0.125000 0.375000
vt 0.093750 0.375000
vt 0.156250 0.500000
vt 0.156250 0.625000
vt 0.156250 0.875000
vt 0.125000 1.000000
vt 0.125000 0.000000
vt 0.156250 0.125000
vt 0.156250 0.375000
vt 0.187500 0.625000
vt 0.156250 0.750000
vt 0.187500 0.875000
vt 0.187500 1.000000
vt 0.156250 1.000000
vt 0.187500 0.000000
vt 0.156250 0.000000
vt 0.187500 0.125000
vt 0.156250 0.250000
vt 0.187500 0.375000
vt 0.187500 0.500000
vt 0.218750 0.625000
vt 0.218750 0.750000
vt 0.187500 0.750000
vt 0.218750 1.000000
vt 0.218750 0.000000
vt 0.218750 0.125000
vt 0.187500 0.250000
vt 0.218750 0.250000
vt 0.218750 0.375000
vt 0.250000 0.500000
vt 0.218750 0.500000
vt 0.250000 0.625000
vt 0.250000 0.750000
vt 0.218750 0.875000
vt 0.250000 0.875000
vt 0.250000 0.125000
vt 0.250000 0.250000
vt 0.250000 0.375000
vt 0.281250 0.500000
vt 0.281250 0.750000
vt 0.281250 0.875000
vt 0.281250 1.000000
vt 0.250000 1.000000
vt 0.281250 0.000000
vt 0.250000 0.000000
vt 0.281250 0.125000
vt 0.281250 0.250000
vt 0.312500 0.500000
vt 0.281250 0.625000
vt 0.312500 0.750000
vt 0.312500 0.875000
vt 0.312500 0.000000
vt 0.312500 0.250000
vt 0.281250 0.375000
vt 0.312500 0.375000
vt 0.343750 0.625000
vt 0.312500 0.625000
vt 0.343750 0.875000
vt 0.312500 1.000000
vt 0.343750 0.125000
vt 0.312500 0.125000
vt 0.343750 0.375000
vt 0.343750 0.500000
vt 0.375000 0.625000
vt 0.343750 0.750000
vt 0.375000 0.875000
vt 0.343750 1.000000
vt 0.343750 0.000000
vt 0.375000 0.125000
vt 0.343750 0.250000
vt 0.375000 0.375000
vt 0.375000 0.500000
vt 0.406250 0.625000
vt 0.375000 0.750000
vt 0.406250 0.750000
vt 0.406250 0.875000
vt 0.375000 1.000000
vt 0.375000 0.000000
vt 0.406250 0.125000
vt 0.406250 0.250000
vt 0.375000 0.250000
vt 0.406250 0.375000
vt 0.406250 0.500000
vt 0.437500 0.625000
vt 0.437500 0.750000
vt 0.437500 0.875000
vt 0.437500 1.000000
vt 0.406250 1.000000
vt 0.437500 0.000000
vt 0.406250 0.000000
vt 0.437500 0.125000
vt 0.437500 0.250000
vt 0.437500 0.375000
vt 0.468750 0.500000
vt 0.437500 0.500000
vt 0.468750 0.625000
vt 0.468750 0.750000
vt 0.468750 0.875000
vt 0.468750 0.125000
vt 0.468750 0.250000
vt 0.468750 0.375000
vt 0.468750 1.000000
vt 0.468750 0.000000
vt 1.000000 1.000000
vt 1.000000 0.125000
s 0
f 9/1/1 2/2/1 1/3/1
f 10/4/2 3/5/2 2/2/2
f 11/6/3 4/7/3 3/5/3
f 12/8/4 5/9/4 4/7/4
f 5/10/5 14/11/5 6/12/5
f 14/11/6 7/13/6 6/12/6
f 7/13/7 16/14/7 8/15/7
f 8/15/8 9/1/8 1/3/8
f 9/1/9 18/16/9 10/4/9
f 10/4/10 19/17/10 11/6/10
f 11/6/11 20/18/11 12/8/11
f 20/18/12 13/19/12 12/8/12
f 21/20/13 14/11/13 13/21/13
f 22/22/14 15/23/14 14/11/14
f 23/24/15 16/14/15 15/23/15
f 24/25/16 9/1/16 16/14/16
f 25/26/17 18/16/17 17/27/17
f 26/28/18 19/17/18 18/16/18
f 27/29/19 20/18/19 19/17/19
f 28/30/20 21/31/20 20/18/20
f 21/20/21 30/32/21 22/22/21
f 22/22/22 31/33/22 23/24/22
f 23/24/23 32/34/23 24/25/23
f 32/34/24 17/27/24 24/25/24
f 33/35/25 26/28/25 25/26/25
f 26/28/26 35/36/26 27/29/26
f 35/36/27 28/30/27 27/29/27
f 28/30/28 37/37/28 29/38/28
f 37/39/29 30/32/29 29/40/29
f 30/32/30 39/41/30 31/33/30
f 39/41/31 32/34/31 31/33/31
f 32/34/32 33/35/32 25/26/32
f 33/35/33 42/42/33 34/43/33
f 34/43/34 43/44/34 35/36/34
f 35/36/35 44/45/35 36/46/35
f 36/46/36 45/47/36 37/37/36
f 45/48/37 38/49/37 37/39/37
f 46/50/38 39/41/38 38/49/38
f 47/51/39 40/52/39 39/41/39
f 48/53/40 33/35/40 40/52/40
f 49/54/41 42/42/41 41/55/41
f 42/42/42 51/56/42 43/44/42
f 51/56/43 44/45/43 43/44/43
f 44/45/44 53/57/44 45/47/44
f 53/58/45 46/50/45 45/48/45
f 46/50/46 55/59/46 47/51/46
f 55/59/47 48/53/47 47/51/47
f 48/53/48 49/54/48 41/55/48
f 57/60/49 50/61/49 49/54/49
f 58/62/50 51/56/50 50/61/50
f 59/63/51 52/64/51 51/56/51
f 60/65/52 53/57/52 52/64/52
f 61/66/53 54/67/53 53/58/53
f 62/68/54 55/59/54 54/67/54
f 55/59/55 64/69/55 56/70/55
f 56/70/56 57/60/56 49/54/56
f 57/60/57 66/71/57 58/62/57
f 58/62/58 67/72/58 59/63/58
f 67/72/59 60/65/59 59/63/59
f 60/65/60 69/73/60 61/74/60
f 69/75/61 62/68/61 61/66/61
f 62/68/62 71/76/62 63/77/62
f 71/76/63 64/69/63 63/77/63
f 72/78/64 57/60/64 64/69/64
f 73/79/65 66/71/65 65/80/65
f 74/81/66 67/72/66 66/71/66
f 75/82/67 68/83/67 67/72/67
f 76/84/68 69/73/68 68/83/68
f 69/75/69 78/85/69 70/86/69
f 70/86/70 79/87/70 71/76/70
f 71/76/71 80/88/71 72/78/71
f 72/78/72 73/79/72 65/80/72
f 81/89/73 74/81/73 73/79/73
f 74/81/74 83/90/74 75/82/74
f 75/82/75 84/91/75 76/84/75
f 84/91/76 77/92/76 76/84/76
f 77/93/77 86/94/77 78/85/77
f 86/94/78 79/87/78 78/85/78
f 87/95/79 80/88/79 79/87/79
f 88/96/80 73/79/80 80/88/80
f 89/97/81 82/98/81 81/89/81
f 90/99/82 83/90/82 82/98/82
f 91/100/83 84/91/83 83/90/83
f 92/101/84 85/102/84 84/91/84
f 85/103/85 94/104/85 86/94/85
f 86/94/86 95/105/86 87/95/86
f 87/95/87 96/106/87 88/96/87
f 88/96/88 89/97/88 81/89/88
f 89/97/89 98/107/89 90/99/89
f 98/107/90 91/100/90 90/99/90
f 99/108/91 92/101/91 91/100/91
f 92/101/92 101/109/92 93/110/92
f 101/111/93 94/104/93 93/112/93
f 94/104/94 103/113/94 95/105/94
f 95/105/95 104/114/95 96/106/95
f 104/114/96 89/97/96 96/106/96
f 97/115/97 106/116/97 98/107/97
f 98/107/98 107/117/98 99/108/98
f 99/108/99 108/118/99 100/119/99
f 100/119/100 109/120/100 101/109/100
f 109/121/101 102/122/101 101/111/101
f 110/123/102 103/113/102 102/122/102
f 111/124/103 104/114/103 103/113/103
f 112/125/104 97/115/104 104/114/104
f 105/126/105 114/127/105 106/116/105
f 114/127/106 107/117/106 106/116/106
f 107/117/107 116/128/107 108/118/107
f 116/128/108 109/120/108 108/118/108
f 117/129/109 110/123/109 109/121/109
f 118/130/110 111/124/110 110/123/110
f 111/124/111 120/131/111 112/125/111
f 120/131/112 105/126/112 112/125/112
f 121/132/113 114/127/113 113/133/113
f 114/127/114 123/134/114 115/135/114
f 115/135/115 124/136/115 116/128/115
f 116/128/116 125/137/116 117/138/116
f 125/139/117 118/130/117 117/129/117
f 126/140/118 119/141/118 118/130/118
f 127/142/119 120/131/119 119/141/119
f 128/143/120 113/133/120 120/131/120
f 129/144/121 122/145/121 121/132/121
f 130/146/122 123/134/122 122/145/122
f 131/147/123 124/136/123 123/134/123
f 132/148/124 125/137/124 124/136/124
f 133/149/125 126/140/125 125/139/125
f 126/140/126 135/150/126 127/142/126
f 127/142/127 136/151/127 128/143/127
f 136/151/128 121/132/128 128/143/128
f 129/152/4 138/153/4 130/154/4
f 130/154/3 139/155/3 131/156/3
f 131/156/2 140/157/2 132/158/2
f 140/157/1 133/159/1 132/158/1
f 133/160/8 142/161/8 134/162/8
f 142/161/7 135/163/7 134/162/7
f 143/164/6 136/165/6 135/163/6
f 144/166/5 129/152/5 136/165/5
f 137/167/12 146/168/12 138/153/12
f 146/168/11 139/155/11 138/153/11
f 147/169/10 140/157/10 139/155/10
f 148/170/9 141/171/9 140/157/9
f 141/172/16 150/173/16 142/161/16
f 142/161/15 151/174/15 143/164/15
f 143/164/14 152/175/14 144/166/14
f 152/175/13 137/167/13 144/166/13
f 153/176/20 146/168/20 145/177/20
f 154/178/19 147/169/19 146/168/19
f 147/169/18 156/179/18 148/170/18
f 156/179/17 149/180/17 148/170/17
f 157/181/24 150/173/24 149/182/24
f 158/183/23 151/174/23 150/173/23
f 159/184/22 152/175/22 151/174/22
f 152/175/21 153/176/21 145/177/21
f 161/185/28 154/178/28 153/176/28
f 162/186/27 155/187/27 154/178/27
f 163/188/26 156/179/26 155/187/26
f 164/189/25 157/190/25 156/179/25
f 157/181/32 166/191/32 158/183/32
f 158/183/31 167/192/31 159/184/31
f 159/184/30 168/193/30 160/194/30
f 160/194/29 161/185/29 153/176/29
f 169/195/36 162/186/36 161/185/36
f 170/196/35 163/188/35 162/186/35
f 163/188/34 172/197/34 164/189/34
f 172/197/33 165/198/33 164/189/33
f 165/199/40 174/200/40 166/191/40
f 174/200/39 167/192/39 166/191/39
f 167/192/38 176/201/38 168/193/38
f 168/193/37 169/195/37 161/185/37
f 169/195/44 178/202/44 170/196/44
f 178/202/43 171/203/43 170/196/43
f 171/203/42 180/204/42 172/197/42
f 172/197/41 181/205/41 173/206/41
f 181/207/48 174/200/48 173/208/48
f 182/209/47 175/210/47 174/200/47
f 175/210/46 184/211/46 176/201/46
f 184/211/45 169/195/45 176/201/45
f 177/212/52 186/213/52 178/202/52
f 178/202/51 187/214/51 179/215/51
f 187/214/50 180/204/50 179/215/50
f 180/204/49 189/216/49 181/205/49
f 189/217/56 182/209/56 181/207/56
f 190/218/55 183/219/55 182/209/55
f 191/220/54 184/211/54 183/219/54
f 192/221/53 177/212/53 184/211/53
f 193/222/60 186/213/60 185/223/60
f 194/224/59 187/214/59 186/213/59
f 195/225/58 188/226/58 187/214/58
f 196/227/57 189/216/57 188/226/57
f 189/217/64 198/228/64 190/218/64
f 190/218/63 199/229/63 191/220/63
f 191/220/62 200/230/62 192/221/62
f 200/230/61 185/223/61 192/221/61
f 201/231/68 194/224/68 193/222/68
f 194/224/67 203/232/67 195/225/67
f 195/225/66 204/233/66 196/227/66
f 196/227/65 205/234/65 197/235/65
f 205/236/72 198/228/72 197/237/72
f 206/238/71 199/229/71 198/228/71
f 207/239/70 200/230/70 199/229/70
f 200/230/69 201/231/69 193/222/69
f 209/240/76 202/241/76 201/231/76
f 202/241/75 211/242/75 203/232/75
f 211/242/74 204/233/74 203/232/74
f 212/243/73 205/234/73 204/233/73
f 213/244/80 206/238/80 205/236/80
f 206/238/79 215/245/79 207/239/79
f 215/245/78 208/246/78 207/239/78
f 216/247/77 201/231/77 208/246/77
f 209/240/84 218/248/84 210/249/84
f 218/248/83 211/242/83 210/249/83
f 211/242/82 220/250/82 212/243/82
f 220/250/81 213/251/81 212/243/81
f 213/244/88 222/252/88 214/253/88
f 222/252/87 215/245/87 214/253/87
f 215/245/86 224/254/86 216/247/86
f 224/254/85 209/240/85 216/247/85
f 217/255/92 226/256/92 218/248/92
f 226/256/91 219/257/91 218/248/91
f 219/257/90 228/258/90 220/250/90
f 228/258/89 221/259/89 220/250/89
f 221/260/96 230/261/96 222/252/96
f 230/261/95 223/262/95 222/252/95
f 223/262/94 232/263/94 224/254/94
f 232/263/93 217/255/93 224/254/93
f 225/264/100 234/265/100 226/256/100
f 234/265/99 227/266/99 226/256/99
f 235/267/98 228/258/98 227/266/98
f 236/268/97 229/269/97 228/258/97
f 229/270/104 238/271/104 230/261/104
f 230/261/103 239/272/103 231/273/103
f 231/273/102 240/274/102 232/263/102
f 240/274/101 225/264/101 232/263/101
f 233/275/108 242/276/108 234/265/108
f 234/265/107 243/277/107 235/267/107
f 235/267/106 244/278/106 236/268/106
f 236/268/105 245/279/105 237/280/105
f 245/281/112 238/271/112 237/282/112
f 246/283/111 239/272/111 238/271/111
f 247/284/110 240/274/110 239/272/110
f 248/285/109 233/275/109 240/274/109
f 249/286/116 242/276/116 241/287/116
f 250/288/115 243/277/115 242/276/115
f 251/289/114 244/278/114 243/277/114
f 252/290/113 245/279/113 244/278/113
f 245/281/120 254/291/120 246/283/120
f 246/283/119 255/292/119 247/284/119
f 247/284/118 256/293/118 248/285/118
f 248/285/117 249/286/117 241/287/117
f 1/3/124 250/288/124 249/286/124
f 2/2/123 251/289/123 250/288/123
f 251/289/122 4/7/122 252/290/122
f 252/290/121 5/9/121 253/294/121
f 5/10/128 254/291/128 253/295/128
f 6/12/127 255/292/127 254/291/127
f 7/13/126 256/293/126 255/292/126
f 8/15/125 249/286/125 256/293/125
f 9/1/1 10/4/1 2/2/1
f 10/4/2 11/6/2 3/5/2
f 11/6/3 12/8/3 4/7/3
f 12/8/4 13/19/4 5/9/4
f 5/10/5 13/21/5 14/11/5
f 14/11/6 15/23/6 7/13/6
f 7/13/7 15/23/7 16/14/7
f 8/15/8 16/14/8 9/1/8
f 9/1/9 17/27/9 18/16/9
f 10/4/10 18/16/10 19/17/10
f 11/6/11 19/17/11 20/18/11
f 20/18/12 21/31/12 13/19/12
f 21/20/13 22/22/13 14/11/13
f 22/22/14 23/24/14 15/23/14
f 23/24/15 24/25/15 16/14/15
f 24/25/16 17/27/16 9/1/16
f 25/26/17 26/28/17 18/16/17
f 26/28/18 27/29/18 19/17/18
f 27/29/19 28/30/19 20/18/19
f 28/30/20 29/38/20 21/31/20
f 21/20/21 29/40/21 30/32/21
f 22/22/22 30/32/22 31/33/22
f 23/24/23 31/33/23 32/34/23
f 32/34/24 25/26/24 17/27/24
f 33/35/25 34/43/25 26/28/25
f 26/28/26 34/43/26 35/36/26
f 35/36/27 36/46/27 28/30/27
f 28/30/28 36/46/28 37/37/28
f 37/39/29 38/49/29 30/32/29
f 30/32/30 38/49/30 39/41/30
f 39/41/31 40/52/31 32/34/31
f 32/34/32 40/52/32 33/35/32
f 33/35/33 41/55/33 42/42/33
f 34/43/129 42/42/129 43/44/129
f 35/36/35 43/44/35 44/45/35
f 36/46/36 44/45/36 45/47/36
f 45/48/37 46/50/37 38/49/37
f 46/50/130 47/51/130 39/41/130
f 47/51/39 48/53/39 40/52/39
f 48/53/40 41/55/40 33/35/40
f 49/54/41 50/61/41 42/42/41
f 42/42/42 50/61/42 51/56/42
f 51/56/43 52/64/43 44/45/43
f 44/45/44 52/64/44 53/57/44
f 53/58/45 54/67/45 46/50/45
f 46/50/46 54/67/46 55/59/46
f 55/59/47 56/70/47 48/53/47
f 48/53/48 56/70/48 49/54/48
f 57/60/49 58/62/49 50/61/49
f 58/62/50 59/63/50 51/56/50
f 59/63/51 60/65/51 52/64/51
f 60/65/52 61/74/52 53/57/52
f 61/66/53 62/68/53 54/67/53
f 62/68/54 63/77/54 55/59/54
f 55/59/55 63/77/55 64/69/55
f 56/70/56 64/69/56 57/60/56
f 57/60/57 65/80/57 66/71/57
f 58/62/58 66/71/58 67/72/58
f 67/72/59 68/83/59 60/65/59
f 60/65/60 68/83/60 69/73/60
f 69/75/61 70/86/61 62/68/61
f 62/68/62 70/86/62 71/76/62
f 71/76/63 72/78/63 64/69/63
f 72/78/64 65/80/64 57/60/64
f 73/79/65 74/81/65 66/71/65
f 74/81/66 75/82/66 67/72/66
f 75/82/67 76/84/67 68/83/67
f 76/84/68 77/92/68 69/73/68
f 69/75/69 77/93/69 78/85/69
f 70/86/70 78/85/70 79/87/70
f 71/76/71 79/87/71 80/88/71
f 72/78/72 80/88/72 73/79/72
f 81/89/73 82/98/73 74/81/73
f 74/81/74 82/98/74 83/90/74
f 75/82/75 83/90/75 84/91/75
f 84/91/76 85/102/76 77/92/76
f 77/93/77 85/103/77 86/94/77
f 86/94/78 87/95/78 79/87/78
f 87/95/79 88/96/79 80/88/79
f 88/96/80 81/89/80 73/79/80
f 89/97/81 90/99/81 82/98/81
f 90/99/82 91/100/82 83/90/82
f 91/100/83 92/101/83 84/91/83
f 92/101/84 93/110/84 85/102/84
f 85/103/85 93/112/85 94/104/85
f 86/94/86 94/104/86 95/105/86
f 87/95/87 95/105/87 96/106/87
f 88/96/88 96/106/88 89/97/88
f 89/97/89 97/115/89 98/107/89
f 98/107/90 99/108/90 91/100/90
f 99/108/91 100/119/91 92/101/91
f 92/101/92 100/119/92 101/109/92
f 101/111/93 102/122/93 94/104/93
f 94/104/94 102/122/94 103/113/94
f 95/105/95 103/113/95 104/114/95
f 104/114/96 97/115/96 89/97/96
f 97/115/97 105/126/97 106/116/97
f 98/107/98 106/116/98 107/117/98
f 99/108/99 107/117/99 108/118/99
f 100/119/100 108/118/100 109/120/100
f 109/121/101 110/123/101 102/122/101
f 110/123/102 111/124/102 103/113/102
f 111/124/103 112/125/103 104/114/103
f 112/125/104 105/126/104 97/115/104
f 105/126/105 113/133/105 114/127/105
f 114/127/106 115/135/106 107/117/106
f 107/117/107 115/135/107 116/128/107
f 116/128/108 117/138/108 109/120/108
f 117/129/109 118/130/109 110/123/109
f 118/130/110 119/141/110 111/124/110
f 111/124/111 119/141/111 120/131/111
f 120/131/112 113/133/112 105/126/112
f 121/132/113 122/145/113 114/127/113
f 114/127/114 122/145/114 123/134/114
f 115/135/115 123/134/115 124/136/115
f 116/128/116 124/136/116 125/137/116
f 125/139/117 126/140/117 118/130/117
f 126/140/118 127/142/118 119/141/118
f 127/142/119 128/143/119 120/131/119
f 128/143/120 121/132/120 113/133/120
f 129/144/121 130/146/121 122/145/121
f 130/146/122 131/147/122 123/134/122
f 131/147/123 132/148/123 124/136/123
f 132/148/124 133/296/124 125/137/124
f 133/149/125 134/297/125 126/140/125
f 126/140/126 134/297/126 135/150/126
f 127/142/127 135/150/127 136/151/127
f 136/151/128 129/144/128 121/132/128
f 129/152/4 137/167/4 138/153/4
f 130/154/3 138/153/3 139/155/3
f 131/156/2 139/155/2 140/157/2
f 140/157/1 141/171/1 133/159/1
f 133/160/8 141/172/8 142/161/8
f 142/161/7 143/164/7 135/163/7
f 143/164/6 144/166/6 136/165/6
f 144/166/5 137/167/5 129/152/5
f 137/167/12 145/177/12 146/168/12
f 146/168/11 147/169/11 139/155/11
f 147/169/10 148/170/10 140/157/10
f 148/170/9 149/180/9 141/171/9
f 141/172/16 149/182/16 150/173/16
f 142/161/15 150/173/15 151/174/15
f 143/164/14 151/174/14 152/175/14
f 152/175/13 145/177/13 137/167/13
f 153/176/20 154/178/20 146/168/20
f 154/178/19 155/187/19 147/169/19
f 147/169/18 155/187/18 156/179/18
f 156/179/17 157/190/17 149/180/17
f 157/181/24 158/183/24 150/173/24
f 158/183/23 159/184/23 151/174/23
f 159/184/22 160/194/22 152/175/22
f 152/175/21 160/194/21 153/176/21
f 161/185/28 162/186/28 154/178/28
f 162/186/27 163/188/27 155/187/27
f 163/188/26 164/189/26 156/179/26
f 164/189/25 165/198/25 157/190/25
f 157/181/32 165/199/32 166/191/32
f 158/183/31 166/191/31 167/192/31
f 159/184/30 167/192/30 168/193/30
f 160/194/29 168/193/29 161/185/29
f 169/195/36 170/196/36 162/186/36
f 170/196/35 171/203/35 163/188/35
f 163/188/129 171/203/129 172/197/129
f 172/197/33 173/206/33 165/198/33
f 165/199/40 173/208/40 174/200/40
f 174/200/39 175/210/39 167/192/39
f 167/192/38 175/210/38 176/201/38
f 168/193/37 176/201/37 169/195/37
f 169/195/44 177/212/44 178/202/44
f 178/202/43 179/215/43 171/203/43
f 171/203/42 179/215/42 180/204/42
f 172/197/41 180/204/41 181/205/41
f 181/207/48 182/209/48 174/200/48
f 182/209/47 183/219/47 175/210/47
f 175/210/46 183/219/46 184/211/46
f 184/211/45 177/212/45 169/195/45
f 177/212/52 185/223/52 186/213/52
f 178/202/51 186/213/51 187/214/51
f 187/214/50 188/226/50 180/204/50
f 180/204/49 188/226/49 189/216/49
f 189/217/56 190/218/56 182/209/56
f 190/218/55 191/220/55 183/219/55
f 191/220/54 192/221/54 184/211/54
f 192/221/53 185/223/53 177/212/53
f 193/222/60 194/224/60 186/213/60
f 194/224/59 195/225/59 187/214/59
f 195/225/58 196/227/58 188/226/58
f 196/227/57 197/235/57 189/216/57
f 189/217/64 197/237/64 198/228/64
f 190/218/63 198/228/63 199/229/63
f 191/220/62 199/229/62 200/230/62
f 200/230/61 193/222/61 185/223/61
f 201/231/68 202/241/68 194/224/68
f 194/224/67 202/241/67 203/232/67
f 195/225/66 203/232/66 204/233/66
f 196/227/65 204/233/65 205/234/65
f 205/236/72 206/238/72 198/228/72
f 206/238/71 207/239/71 199/229/71
f 207/239/70 208/246/70 200/230/70
f 200/230/69 208/246/69 201/231/69
f 209/240/76 210/249/76 202/241/76
f 202/241/75 210/249/75 211/242/75
f 211/242/74 212/243/74 204/233/74
f 212/243/73 213/251/73 205/234/73
f 213/244/80 214/253/80 206/238/80
f 206/238/79 214/253/79 215/245/79
f 215/245/78 216/247/78 208/246/78
f 216/247/77 209/240/77 201/231/77
f 209/240/84 217/255/84 218/248/84
f 218/248/83 219/257/83 211/242/83
f 211/242/82 219/257/82 220/250/82
f 220/250/81 221/259/81 213/251/81
f 213/244/88 221/260/88 222/252/88
f 222/252/87 223/262/87 215/245/87
f 215/245/86 223/262/86 224/254/86
f 224/254/85 217/255/85 209/240/85
f 217/255/92 225/264/92 226/256/92
f 226/256/91 227/266/91 219/257/91
f 219/257/90 227/266/90 228/258/90
f 228/258/89 229/269/89 221/259/89
f 221/260/96 229/270/96 230/261/96
f 230/261/95 231/273/95 223/262/95
f 223/262/94 231/273/94 232/263/94
f 232/263/93 225/264/93 217/255/93
f 225/264/100 233/275/100 234/265/100
f 234/265/99 235/267/99 227/266/99
f 235/267/98 236/268/98 228/258/98
f 236/268/97 237/280/97 229/269/97
f 229/270/104 237/282/104 238/271/104
f 230/261/103 238/271/103 239/272/103
f 231/273/102 239/272/102 240/274/102
f 240/274/101 233/275/101 225/264/101
f 233/275/108 241/287/108 242/276/108
f 234/265/107 242/276/107 243/277/107
f 235/267/106 243/277/106 244/278/106
f 236/268/105 244/278/105 245/279/105
f 245/281/112 246/283/112 238/271/112
f 246/283/111 247/284/111 239/272/111
f 247/284/110 248/285/110 240/274/110
f 248/285/109 241/287/109 233/275/109
f 249/286/116 250/288/116 242/276/116
f 250/288/115 251/289/115 243/277/115
f 251/289/114 252/290/114 244/278/114
f 252/290/113 253/294/113 245/279/113
f 245/281/120 253/295/120 254/291/120
f 246/283/119 254/291/119 255/292/119
f 247/284/118 255/292/118 256/293/118
f 248/285/117 256/293/117 249/286/117
f 1/3/124 2/2/124 250/288/124
f 2/2/123 3/5/123 251/289/123
f 251/289/122 3/5/122 4/7/122
f 252/290/121 4/7/121 5/9/121
f 5/10/128 6/12/128 254/291/128
f 6/12/127 7/13/127 255/292/127
f 7/13/126 8/15/126 256/293/126
f 8/15/125 1/3/125 249/286/125
