# Blender 4.4.1
# www.blender.org
mtllib rotTest.mtl
o Suzanne.002
v -0.180805 0.381241 0.742188
v -0.157928 0.466618 0.750000
v -0.141742 0.313583 0.820312
v -0.266181 0.404118 0.750000
v -0.169086 0.360944 0.601562
v -0.092849 0.432022 0.843750
v -0.268760 0.330460 0.843750
v -0.101708 0.462992 0.609375
v -0.291151 0.353617 0.609375
v -0.467138 0.486559 0.617188
v -0.662786 0.247307 0.554688
v -0.251117 0.503026 0.570312
v -0.626863 0.231962 0.429688
v -0.740555 0.085132 0.281250
v -0.784160 0.520033 0.234375
v -0.781150 0.061695 0.492188
v -0.415180 0.787190 0.289062
v -0.458148 0.861614 -0.078125
v 0.000676 0.973158 0.234375
v 0.171504 0.692900 0.429688
v 0.355508 0.717945 0.281250
v 0.176176 0.731682 0.554688
v 0.396103 0.741382 0.492188
v 0.407542 0.784071 0.625000
v 0.521028 0.759381 0.460938
v 0.460136 0.724225 0.335938
v 0.442903 0.894698 0.125000
v 0.654326 0.637877 0.054688
v 0.621824 0.537922 0.375000
v 0.676998 0.551734 0.445312
v 0.555007 0.309902 0.414062
v 0.693464 0.335713 0.070312
v 0.610742 0.197743 -0.164062
v 0.471799 0.063398 0.148438
v 0.663261 0.372402 -0.070312
v 0.668214 0.348198 -0.171875
v 0.618123 0.716207 -0.046875
v 0.636964 0.402325 -0.187500
v 0.622591 0.583470 -0.210937
v 0.672045 0.575938 -0.273437
v 0.620217 0.681331 -0.210937
v 0.643449 0.469217 -0.273437
v 0.684249 0.664174 -0.265625
v 0.580388 0.703442 -0.203125
v 0.415559 0.942058 -0.117188
v 0.571043 0.625877 -0.437500
v 0.602218 0.806256 -0.234375
v 0.454622 0.874400 -0.359375
v 0.652719 0.781286 -0.218750
v 0.586873 0.770334 -0.382812
v 0.701612 0.899726 -0.484375
v 0.779887 0.295399 -0.328125
v 0.682081 0.933555 -0.312500
v 0.976862 0.454228 -0.492187
v 0.984675 0.440696 -0.328125
v 1.143354 0.712731 -0.531250
v 1.116290 0.697106 -0.429687
v 1.044370 0.962301 -0.421875
v 1.043679 0.682248 -0.406250
v 0.985571 0.892269 -0.406250
v 1.069621 0.949816 -0.500000
v 0.882196 1.040070 -0.546875
v 0.849133 1.066087 -0.421875
v 0.843694 0.981757 -0.390625
v 0.706565 0.875522 -0.289062
v 0.869225 0.906286 -0.437500
v 0.748487 0.818536 -0.359375
v 0.700360 0.745644 -0.289062
v 0.769831 0.812817 -0.414062
v 0.714938 0.736019 -0.343750
v 0.688155 0.657408 -0.320312
v 0.796409 0.719908 -0.375000
v 0.780298 0.638438 -0.351562
v 0.750655 0.549155 -0.328125
v 0.837564 0.617374 -0.367187
v 0.814688 0.531997 -0.335937
v 0.853675 0.698844 -0.382812
v 0.678810 0.579844 -0.320312
v 0.650215 0.473123 -0.320312
v 0.712154 0.490841 -0.320312
v 0.701482 0.493701 -0.273437
v 0.763701 0.448434 -0.320312
v 0.756935 0.444527 -0.273437
v 0.745497 0.401839 -0.273437
v 0.745497 0.401839 -0.320312
v 0.806390 0.436995 -0.265625
v 0.810296 0.430230 -0.210937
v 0.940659 0.532558 -0.421875
v 0.933894 0.528652 -0.367187
v 0.946659 0.490917 -0.304687
v 1.015569 0.684061 -0.445312
v 0.978039 0.842815 -0.445312
v 1.039773 0.689014 -0.484375
v 1.002243 0.847768 -0.492187
v 0.889317 0.746485 -0.390625
v 0.837770 0.788893 -0.390625
v 0.890569 0.900567 -0.484375
v 0.786373 0.362291 -0.132812
v 0.774168 0.274055 -0.125000
v 0.592743 0.322667 -0.429687
v 0.441801 0.271606 -0.546875
v 0.404477 0.601879 -0.585938
v 0.503816 0.054819 -0.210937
v 0.447390 -0.113075 -0.265625
v 0.405954 0.052445 -0.539062
v 0.297626 0.224450 -0.664062
v 0.131695 -0.160025 -0.671875
v 0.225445 -0.322405 -0.351562
v -0.066812 -0.409950 -0.265625
v 0.264508 -0.390063 0.187500
v -0.189438 -0.291305 -0.539062
v 0.412029 -0.223702 0.164062
v 0.046674 -0.434639 0.164062
v 0.085456 -0.439312 0.257812
v -0.014779 -0.343824 0.429688
v -0.231846 -0.342852 0.148438
v -0.240425 -0.374869 -0.210937
v -0.578511 -0.398662 0.070312
v -0.297972 -0.290819 0.468750
v -0.417664 -0.396007 -0.164062
v -0.486929 -0.291661 0.414062
v -0.717809 -0.235516 0.375000
v -0.494461 -0.341115 0.539062
v -0.757357 -0.276391 0.445312
v -0.696745 -0.178249 0.601562
v -0.925045 -0.048446 0.593750
v -0.859200 -0.037494 0.460938
v -0.798307 -0.002338 0.335938
v -0.823838 0.073133 0.625000
v -0.768385 0.023959 0.726562
v -0.692989 0.283995 0.687500
v -0.796214 -0.037213 0.656250
v -0.669196 -0.054090 0.648438
v -0.674429 0.033099 0.664062
v -0.556831 0.173163 0.718750
v -0.628881 0.032333 0.695312
v -0.617929 -0.033513 0.687500
v -0.564288 -0.110796 0.679688
v -0.586959 -0.024653 0.671875
v -0.600977 -0.140999 0.648438
v -0.594006 0.034426 0.679688
v -0.545037 -0.081640 0.671875
v -0.423738 -0.119861 0.703125
v -0.429457 -0.141205 0.718750
v -0.321970 -0.124253 0.742188
v -0.423458 -0.182846 0.671875
v -0.298533 -0.164848 0.703125
v -0.333689 -0.103955 0.726562
v -0.238201 -0.003720 0.757812
v -0.216857 -0.009439 0.781250
v -0.227810 0.056406 0.750000
v -0.206466 0.050687 0.773438
v -0.224184 0.112626 0.781250
v -0.178356 0.048874 0.750000
v -0.186449 0.125392 0.757812
v -0.188747 -0.011252 0.742188
v -0.023433 -0.141335 0.812500
v -0.287580 -0.230693 0.671875
v 0.010602 0.049716 0.726562
v 0.105809 0.212937 0.750000
v 0.193074 -0.016335 0.812500
v -0.071430 0.191798 0.765625
v 0.104352 -0.112664 0.742188
v 0.163075 0.191873 0.742188
v 0.350986 0.210152 0.703125
v 0.175560 0.217124 0.781250
v 0.402534 0.167745 0.671875
v 0.118294 0.238187 0.773438
v 0.327549 0.250747 0.742188
v 0.395973 0.335358 0.718750
v 0.315830 0.271045 0.726562
v 0.181280 0.238468 0.757812
v 0.124013 0.259531 0.750000
v 0.089903 0.302986 0.750000
v 0.073512 0.284501 0.781250
v 0.043589 0.258204 0.757812
v 0.041216 0.356066 0.781250
v -0.010051 0.335488 0.765625
v -0.030910 0.449741 0.773438
v 0.029216 0.439349 0.781250
v 0.059905 0.511194 0.773438
v 0.057326 0.437536 0.757812
v 0.016170 0.540070 0.757812
v 0.054747 0.363878 0.757812
v -0.098643 0.645183 0.851562
v 0.079922 0.585898 0.742188
v -0.015640 0.720168 0.835938
v -0.067468 0.825562 0.734375
v 0.139488 0.701478 0.796875
v 0.159505 0.776183 0.687500
v -0.190019 0.709701 0.757812
v -0.128847 0.681872 0.617188
v -0.018781 0.772482 0.593750
v 0.422400 0.711459 0.726562
v 0.489292 0.704974 0.656250
v 0.367507 0.634662 0.664062
v 0.187409 0.602851 0.718750
v 0.200175 0.565115 0.773438
v 0.345397 0.594833 0.695312
v 0.110126 0.549210 0.757812
v 0.121844 0.528912 0.750000
v 0.078390 0.494803 0.765625
v 0.197315 0.554443 0.750000
v 0.326146 0.565676 0.679688
v 0.373788 0.530034 0.671875
v 0.396945 0.552425 0.687500
v 0.440399 0.586535 0.648438
v 0.437054 0.467329 0.679688
v 0.481555 0.484001 0.648438
v 0.402178 0.465235 0.671875
v 0.374629 0.341077 0.703125
v 0.561698 0.548313 0.601562
v 0.429036 0.309341 0.671875
v 0.541195 0.365075 0.625000
v 0.601602 0.291698 0.539062
v 0.483238 0.106086 0.531250
v 0.459800 0.146681 0.468750
v 0.295888 -0.038165 0.500000
v 0.329998 -0.081619 0.468750
v 0.364107 -0.125074 0.429688
v 0.413561 -0.132606 0.554688
v 0.412795 -0.178154 0.406250
v 0.362014 -0.090198 0.554688
v 0.396684 -0.259624 0.257812
v 0.276227 -0.410360 0.281250
v 0.411824 -0.395221 0.359375
v 0.500545 -0.298892 0.390625
v 0.686157 -0.417256 0.570312
v 0.639843 -0.462038 0.382812
v 0.523422 -0.213515 0.570312
v 0.439373 -0.271062 0.710938
v 0.602108 -0.474803 0.687500
v 0.674233 -0.568478 0.664062
v 0.479276 -0.527678 0.734375
v 0.488136 -0.558648 0.734375
v 0.553495 -0.656229 0.710938
v 0.416852 -0.653930 0.734375
v 0.486323 -0.586757 0.726562
v 0.373883 -0.579506 0.734375
v 0.256695 -0.376531 0.750000
v 0.276302 -0.644865 0.734375
v 0.324354 -0.337469 0.750000
v 0.189037 -0.415594 0.750000
v 0.298693 -0.668023 0.734375
v 0.350520 -0.773416 0.710938
v 0.214157 -0.834103 0.664062
v 0.323943 -0.680507 0.726562
v 0.169095 -0.724803 0.687500
v 0.077233 -0.768819 0.570312
v 0.074018 -0.482000 0.710938
v -0.017844 -0.526015 0.570312
v -0.032983 -0.390418 0.554688
v 0.006846 -0.412529 0.406250
v 0.067533 -0.548892 0.390625
v 0.139172 -0.751100 0.382812
v 0.195317 -0.520221 0.359375
v 0.319195 -0.484784 0.320312
v 0.291161 -0.717477 0.367188
v 0.436383 -0.687759 0.343750
v 0.364613 -0.891575 0.437500
v 0.206906 -0.946543 0.398438
v 0.222531 -0.973606 0.523438
v 0.161358 -0.945777 0.531250
v 0.288096 -0.899668 0.632812
v 0.356801 -0.878043 0.632812
v 0.362800 -0.919685 0.554688
v 0.526227 -0.843373 0.578125
v 0.522320 -0.836607 0.460938
v 0.648778 -0.727513 0.437500
v 0.674028 -0.739998 0.554688
v 0.640965 -0.713981 0.632812
v 0.790860 -0.645481 0.523438
v 0.694045 -0.665293 0.632812
v 0.797345 -0.578589 0.531250
v 0.775235 -0.618418 0.398438
v 0.534730 -0.576852 0.367188
v 0.506695 -0.809544 0.640625
v 0.529572 -0.724167 0.695312
v 0.479352 -0.762183 0.687500
v 0.508228 -0.718448 0.687500
v 0.525385 -0.654416 0.710938
v 0.521479 -0.647650 0.640625
v 0.490229 -0.593523 0.664062
v 0.424664 -0.667462 0.656250
v 0.500415 -0.704916 0.632812
v 0.420758 -0.660696 0.718750
v 0.327849 -0.687273 0.664062
v 0.359099 -0.741400 0.640625
v 0.419225 -0.751791 0.632812
v 0.363005 -0.748166 0.710938
v 0.427038 -0.765323 0.687500
v 0.421319 -0.786667 0.695312
v 0.471539 -0.748651 0.687500
v 0.463727 -0.735120 0.632812
v 0.034675 -0.351356 0.710938
v -0.043936 -0.324573 0.554688
v 0.013051 -0.282651 0.710938
v -0.048122 -0.254822 0.562500
v -0.035357 -0.292557 0.468750
v -0.055935 -0.241290 0.500000
v -0.274535 -0.331414 0.531250
v 0.039067 -0.249588 0.750000
v 0.020302 -0.170211 0.742188
v 0.104146 -0.284183 0.742188
v 0.198102 -0.275044 0.742188
v 0.089568 -0.274558 0.781250
v 0.194195 -0.268278 0.781250
v 0.251948 -0.180808 0.781250
v 0.178570 -0.241215 0.804688
v 0.252994 -0.198246 0.742188
v 0.255574 -0.124588 0.750000
v 0.345903 -0.171668 0.710938
v 0.297215 -0.118589 0.710938
v 0.196214 -0.068649 0.742188
v 0.303701 -0.051697 0.562500
v 0.195167 -0.051211 0.781250
v 0.130368 -0.079601 0.781250
v 0.127789 -0.153259 0.796875
v 0.148853 -0.095992 0.812500
v 0.193354 -0.079321 0.812500
v 0.242042 -0.132401 0.828125
v 0.262339 -0.120682 0.796875
v 0.226697 -0.168323 0.804688
v 0.135602 -0.166791 0.828125
v 0.067663 -0.142867 0.812500
v 0.052599 -0.241776 0.828125
v 0.091381 -0.246448 0.804688
v 0.032301 -0.253494 0.796875
v 0.005724 -0.160586 0.781250
v 0.030974 -0.173071 0.812500
v 0.062710 -0.118664 0.781250
v 0.131695 -0.160025 0.750000
v 0.563436 0.810929 0.593750
v -0.226558 0.210488 0.765625
v -0.315074 0.285678 0.773438
v -0.270012 0.176378 0.781250
v -0.336138 0.228412 0.781250
v -0.413702 0.237756 0.773438
v -0.348623 0.203161 0.757812
v -0.416842 0.290070 0.757812
v -0.283544 0.168566 0.757812
v -0.248388 0.107673 0.750000
v -0.450466 0.442058 0.851562
v -0.488407 0.257773 0.742188
v -0.556906 0.407668 0.835938
v -0.618285 0.263978 0.796875
v -0.622266 0.505249 0.734375
v -0.460652 0.553451 0.757812
v -0.600641 0.436544 0.593750
v -0.471735 0.213272 0.757812
v -0.530534 0.143240 0.773438
v -0.460016 0.192975 0.750000
v -0.408749 0.213553 0.765625
v -0.519862 0.140381 0.750000
v -0.527805 -0.252112 0.625000
v -0.937325 0.097823 0.125000
v -0.820623 -0.213686 0.054688
v -0.870358 -0.143168 -0.046875
v -0.595182 -0.354161 -0.070312
v -0.576698 -0.370552 -0.171875
v -0.607948 -0.316425 -0.187500
v -0.757637 -0.213405 -0.210937
v -0.775842 -0.260000 -0.273437
v -0.841201 -0.162419 -0.210937
v -0.669121 -0.288596 -0.273437
v -0.858359 -0.226451 -0.265625
v -0.840435 -0.116871 -0.203125
v -0.964669 0.145183 -0.117188
v -0.768590 -0.147560 -0.437500
v -0.940390 -0.084369 -0.234375
v -0.925606 0.077525 -0.359375
v -0.944016 -0.140589 -0.218750
v -0.901608 -0.089041 -0.382812
v -1.071034 -0.123712 -0.484375
v -0.586809 -0.493664 -0.328125
v -1.090565 -0.089883 -0.312500
v -0.822847 -0.584835 -0.492187
v -0.815034 -0.598366 -0.328125
v -1.129963 -0.599769 -0.531250
v -1.102900 -0.584144 -0.429687
v -1.053726 -0.528690 -0.406250
v -1.296605 -0.389262 -0.421875
v -1.206556 -0.373356 -0.406250
v -1.298418 -0.417372 -0.500000
v -1.282868 -0.209930 -0.546875
v -1.288867 -0.168288 -0.421875
v -1.213116 -0.205743 -0.390625
v -1.052549 -0.140103 -0.289062
v -1.160522 -0.265589 -0.437500
v -1.024159 -0.204902 -0.359375
v -0.936969 -0.199668 -0.289062
v -1.029878 -0.226246 -0.414062
v -0.935923 -0.217106 -0.343750
v -0.854452 -0.233217 -0.320312
v -0.962705 -0.295717 -0.375000
v -0.884095 -0.322500 -0.351562
v -0.894486 -0.382626 -0.367187
v -0.791952 -0.341470 -0.328125
v -0.809110 -0.405503 -0.335937
v -0.973097 -0.355843 -0.382812
v -0.782607 -0.263906 -0.320312
v -0.675887 -0.292502 -0.320312
v -0.722201 -0.337284 -0.320312
v -0.719341 -0.326611 -0.273437
v -0.711248 -0.403129 -0.320312
v -0.704482 -0.399223 -0.273437
v -0.661794 -0.410661 -0.273437
v -0.661794 -0.410661 -0.320312
v -0.722686 -0.445817 -0.265625
v -0.718780 -0.452583 -0.210937
v -0.872581 -0.514317 -0.421875
v -0.865815 -0.510410 -0.367187
v -0.839518 -0.540333 -0.304687
v -1.041241 -0.503439 -0.445312
v -1.159961 -0.391560 -0.445312
v -1.057632 -0.521924 -0.484375
v -1.176352 -0.410045 -0.492187
v -1.032177 -0.362890 -0.390625
v -1.043129 -0.297044 -0.390625
v -1.166241 -0.286933 -0.484375
v -0.647982 -0.465834 -0.132812
v -0.565465 -0.499383 -0.125000
v -0.516852 -0.317958 -0.429687
v -0.397161 -0.212769 -0.546875
v -0.664523 -0.015308 -0.585938
v -0.860602 0.277435 -0.445312
v -0.583894 0.157538 -0.703125
v -0.284235 -0.111487 -0.664062
v -0.001117 0.070013 -0.828125
v -0.247211 0.496260 -0.851562
v 0.214473 0.618476 -0.703125
v -0.007137 0.986690 -0.382812
v -0.415180 0.787190 -0.546875
v 0.248993 0.918060 -0.445312
v 0.213837 0.978952 -0.195312
v 0.237274 0.938357 0.054688
v -0.038387 1.040816 -0.070312
v -0.791972 0.533565 -0.382812
v -0.823222 0.587691 -0.070312
v -0.895758 0.338327 -0.195312
v -0.872321 0.297732 0.054688
vn -0.8911 0.2720 -0.3633
vn -0.7838 0.1550 0.6013
vn -0.7887 0.2113 0.5774
vn 0.2113 0.7887 0.5773
vn 0.2100 0.9077 -0.3633
vn 0.2577 0.7563 0.6013
vn -0.0687 0.9866 -0.1481
vn -0.8201 0.5528 -0.1481
vn 0.0476 0.2407 0.9694
vn 0.5503 0.7500 -0.3670
vn 0.0926 0.1801 -0.9793
vn -0.2446 0.9514 -0.1871
vn -0.5371 0.3451 0.7697
vn -0.7878 -0.0126 0.6158
vn -0.7521 0.6551 -0.0720
vn -0.3881 0.3626 0.8473
vn -0.7597 0.5821 -0.2898
vn -0.5590 0.3974 0.7277
vn -0.5930 0.7728 0.2260
vn -0.3727 0.9000 0.2260
vn -0.1199 0.5174 0.8473
vn -0.0647 0.6829 0.7277
vn 0.4048 0.6759 0.6158
vn -0.1913 0.9789 -0.0720
vn -0.7016 0.6876 -0.1871
vn -0.1242 0.9490 -0.2898
vn -0.0304 0.6377 0.7697
vn -0.1253 0.9476 -0.2938
vn -0.2058 0.9367 -0.2833
vn -0.1846 0.9659 -0.1817
vn -0.0022 0.9939 -0.1100
vn 0.7072 0.5113 -0.4883
vn -0.3586 0.7115 0.6043
vn 0.7652 0.5298 0.3657
vn 0.6961 0.6623 0.2773
vn 0.6236 0.5128 -0.5901
vn 0.7748 -0.3204 -0.5450
vn 0.9128 -0.2071 0.3521
vn 0.9808 0.1344 0.1414
vn 0.7829 -0.5589 0.2734
vn 0.9768 0.1173 -0.1792
vn 0.9567 -0.1556 -0.2461
vn 0.7845 -0.6143 0.0847
vn 0.9287 -0.3481 0.1282
vn 0.8727 0.4829 -0.0725
vn 0.9874 0.1353 -0.0825
vn 0.9620 0.1422 -0.2332
vn 0.9772 0.0508 -0.2063
vn 0.7644 -0.1610 0.6243
vn 0.7559 -0.2025 0.6225
vn 0.9838 0.0975 0.1501
vn 0.1950 0.0047 0.9808
vn 0.6518 0.0158 0.7582
vn 0.9090 0.3358 -0.2470
vn 0.7589 0.6081 -0.2330
vn 0.8176 0.5751 -0.0288
vn -0.9942 0.1074 0.0041
vn 0.8653 0.4645 -0.1882
vn -0.9741 0.2212 0.0472
vn -0.1353 0.3143 0.9396
vn 0.1988 0.0119 0.9800
vn -0.8564 0.5151 -0.0361
vn -0.8059 0.5568 -0.2012
vn -0.4537 -0.2654 -0.8507
vn 0.6782 0.1940 -0.7088
vn -0.4665 -0.2860 -0.8370
vn 0.8733 -0.4804 -0.0812
vn 0.5761 -0.8119 -0.0944
vn -0.1322 -0.0643 -0.9891
vn 0.8417 -0.5203 0.1442
vn 0.9332 0.2454 0.2624
vn 0.2216 0.0314 0.9746
vn 0.2912 0.0806 0.9533
vn 0.2531 0.2412 0.9369
vn 0.9253 0.2502 0.2851
vn 0.4346 0.9006 -0.0035
vn 0.3371 0.2253 -0.9141
vn -0.6480 0.6932 -0.3157
vn 0.4686 0.8814 -0.0595
vn -0.1838 -0.1927 -0.9639
vn -0.6894 0.6919 -0.2145
vn 0.3381 0.3078 0.8894
vn 0.1765 0.3320 0.9266
vn 0.2729 0.4570 0.8465
vn 0.7034 -0.2857 0.6509
vn 0.1613 0.0840 0.9833
vn -0.2763 -0.5728 0.7717
vn 0.6428 -0.2354 0.7290
vn 0.8435 -0.0403 0.5356
vn 0.6862 -0.6456 0.3353
vn 0.9032 -0.3112 0.2956
vn 0.8816 -0.2876 0.3742
vn 0.9293 -0.2307 0.2883
vn 0.3461 0.1578 0.9248
vn 0.3960 0.4498 0.8005
vn 0.3836 0.1845 0.9049
vn 0.1864 0.1911 0.9637
vn 0.1705 0.1968 0.9655
vn 0.3026 0.1215 0.9453
vn 0.3374 0.2425 0.9096
vn 0.2143 0.2307 0.9491
vn 0.3140 -0.0378 0.9487
vn 0.9841 -0.1186 0.1322
vn 0.9593 -0.2570 0.1170
vn -0.0000 -0.0000 1.0000
vn 0.1282 0.0480 0.9906
vn -0.2730 0.9544 -0.1204
vn 0.6598 0.7441 0.1048
vn 0.6277 0.7630 0.1542
vn 0.0710 0.0863 0.9937
vn 0.9659 -0.2588 -0.0000
vn 0.6119 -0.1640 0.7737
vn 0.1679 0.7717 0.6134
vn 0.9264 -0.3619 0.1036
vn -0.5000 0.8660 -0.0000
vn -0.7262 0.2837 0.6262
vn -0.5085 0.8494 0.1414
vn -0.5011 0.8538 0.1414
vn -0.5918 0.8059 -0.0157
vn 0.4895 0.4907 0.7208
vn -0.6309 0.4964 0.5963
vn -0.0224 0.8538 0.5201
vn -0.6476 0.5866 0.4864
vn -0.6447 0.5857 0.4911
vn -0.8984 0.4318 -0.0803
vn -0.8011 -0.1894 0.5677
vn -0.8226 -0.1945 -0.5343
vn -0.8198 0.3333 -0.4657
vn -0.8558 -0.2252 -0.4657
vn 0.5678 0.1738 0.8046
vn 0.4804 0.0456 0.8759
vn 0.4608 -0.2030 0.8640
vn 0.0828 0.1006 0.9915
vn 0.3916 0.4760 0.7875
vn 0.2915 0.4955 0.8182
vn -0.5066 -0.8529 -0.1266
vn 0.6788 -0.6251 0.3853
vn -0.0321 0.6515 0.7580
vn -0.4241 -0.8513 -0.3089
vn -0.2019 0.3299 0.9221
vn 0.1760 0.1159 0.9775
vn -0.2765 -0.5694 0.7742
vn -0.8539 -0.2363 0.4637
vn 0.6162 0.1020 0.7809
vn 0.6606 0.1575 0.7340
vn 0.1404 0.7254 0.6738
vn -0.3250 0.1279 0.9370
vn 0.7084 -0.0356 0.7049
vn -0.6508 0.6602 0.3749
vn -0.2164 0.9216 0.3221
vn 0.5773 -0.8136 -0.0692
vn 0.4377 -0.8954 -0.0818
vn -0.3010 0.1638 0.9395
vn 0.5083 0.0642 0.8588
vn 0.5567 0.1499 0.8171
vn 0.5371 0.5051 0.6755
vn 0.1457 0.0952 0.9847
vn -0.3886 0.9212 0.0207
vn 0.9816 -0.1680 0.0909
vn 0.9856 -0.1441 0.0882
vn 0.8179 -0.0391 0.5740
vn 0.7614 -0.1993 0.6169
vn 0.6601 0.0842 0.7465
vn 0.1769 0.4318 0.8844
vn 0.0376 0.5837 0.8111
vn 0.1021 -0.8975 -0.4290
vn 0.4783 0.0116 -0.8781
vn 0.6628 0.0282 -0.7483
vn 0.6027 -0.6152 -0.5082
vn 0.6180 -0.0231 -0.7859
vn 0.8091 -0.5088 -0.2941
vn 0.9346 -0.3439 0.0915
vn 0.9344 -0.2238 -0.2771
vn 0.7844 -0.6145 0.0845
vn 0.9455 -0.1647 -0.2808
vn 0.5607 -0.2258 -0.7966
vn 0.6510 -0.1331 -0.7473
vn 0.6704 -0.5640 -0.4821
vn 0.6997 -0.5593 -0.4446
vn 0.1532 -0.8626 -0.4821
vn 0.7056 -0.6981 -0.1217
vn 0.2518 -0.9601 -0.1217
vn 0.1345 -0.8856 -0.4446
vn 0.2127 -0.9675 -0.1368
vn 0.7315 -0.6680 -0.1368
vn 0.2127 -0.9676 -0.1362
vn -0.3143 -0.9489 0.0285
vn -0.5116 -0.8423 0.1696
vn -0.3159 -0.9177 0.2407
vn 0.1400 -0.9865 0.0845
vn -0.1695 -0.9813 0.0915
vn 0.1397 -0.9866 0.0847
vn 0.0925 -0.9574 0.2734
vn -0.0397 -0.9875 0.1522
vn -0.1659 -0.9782 0.1247
vn -0.2770 -0.8940 0.3521
vn -0.1099 -0.8312 -0.5450
vn -0.0950 -0.9237 -0.3712
vn 0.1083 -0.9266 -0.3601
vn -0.4129 -0.6905 0.5939
vn -0.3856 -0.7066 0.5934
vn -0.8356 -0.3273 -0.4412
vn -0.7559 -0.2836 -0.5901
vn -0.7442 0.6428 -0.1817
vn -0.7083 0.6466 -0.2833
vn -0.6970 0.6551 -0.2915
vn -0.7964 -0.3567 -0.4883
vn -0.7650 0.3069 0.5663
vn -0.8928 -0.0990 0.4395
vn -0.4420 0.1402 0.8860
vn -0.7559 0.5664 -0.3284
vn -0.7580 0.5823 -0.2938
vn 0.0103 -0.3552 0.9347
vn -0.3306 -0.5347 0.7777
vn 0.4081 -0.7626 0.5019
vn 0.0374 -0.1741 0.9840
vn 0.4700 -0.6343 0.6138
vn -0.5577 0.1494 0.8165
vn -0.5497 -0.1792 0.8159
vn -0.5577 -0.1887 0.8083
vn 0.2620 0.0846 0.9614
vn -0.4085 -0.3680 0.8353
vn -0.4665 -0.3662 0.8052
vn 0.4105 -0.0398 0.9110
vn 0.3702 0.2723 0.8881
vn 0.4636 -0.0616 0.8839
vn -0.1822 0.3649 0.9130
vn -0.0200 0.5941 0.8042
vn -0.2588 0.4909 0.8319
vn -0.0430 -0.7055 0.7074
vn -0.0568 -0.7500 0.6590
vn -0.3375 -0.7248 0.6007
vn -0.2986 0.6145 0.7302
vn -0.5536 0.2832 0.7831
vn -0.6969 0.2096 0.6858
vn -0.6443 0.3603 0.6746
vn -0.7419 -0.2886 0.6052
vn 0.5173 0.0402 0.8548
vn 0.6189 -0.2055 0.7581
vn 0.6399 -0.0108 0.7683
vn 0.8086 -0.0638 0.5849
vn -0.4457 -0.0848 0.8911
vn -0.0568 0.4180 0.9067
vn 0.4181 -0.4929 0.7631
vn 0.2236 -0.3873 0.8944
vn 0.1224 -0.1487 0.9813
vn 0.5784 -0.6819 0.4478
vn 0.0675 -0.1803 0.9813
vn 0.1101 -0.2039 0.9728
vn -0.4740 -0.1909 0.8596
vn -0.3336 0.2581 0.9067
vn 0.4023 0.3150 0.8596
vn 0.1215 -0.1973 0.9728
vn 0.2178 -0.6085 0.7631
vn 0.2963 0.3436 0.8911
vn -0.1315 -0.6387 0.7581
vn -0.3491 -0.7322 0.5849
vn 0.3013 -0.8418 0.4478
vn 0.6325 -0.3155 0.7074
vn 0.0101 0.7381 0.6746
vn -0.2958 0.4696 0.8319
vn 0.0315 0.6211 0.7831
vn 0.1670 0.7083 0.6858
vn 0.6209 0.4982 0.6052
vn 0.6209 0.4874 0.6140
vn -0.3717 -0.3451 0.8618
vn -0.2935 -0.4280 0.8548
vn 0.7392 0.3336 0.5851
vn -0.2483 -0.1120 0.9622
vn -0.1442 -0.0937 0.9851
vn 0.7363 0.0885 0.6709
vn 0.4020 -0.1717 0.8994
vn 0.4083 -0.3365 0.8485
vn 0.0897 -0.0383 0.9952
vn -0.2766 -0.0399 0.9601
vn -0.0893 0.2148 0.9726
vn 0.8416 0.1213 0.5263
vn 0.6226 -0.1832 0.7608
vn -0.2132 0.1952 0.9573
vn 0.6394 -0.0224 0.7686
vn 0.7500 0.3620 0.5536
vn 0.7531 -0.2904 0.5903
vn 0.6261 -0.0116 0.7797
vn 0.4275 -0.2952 0.8545
vn -0.0630 0.3995 0.9146
vn 0.4231 -0.2967 0.8561
vn 0.2868 0.7341 0.6155
vn -0.3701 0.5438 0.7532
vn 0.1575 -0.4875 0.8588
vn 0.2394 0.7808 0.5771
vn -0.3664 0.5604 0.7428
vn -0.6662 0.6212 -0.4127
vn -0.7510 -0.1200 0.6494
vn -0.9192 -0.1092 -0.3783
vn -0.2023 0.0099 -0.9793
vn -0.9246 -0.1015 -0.3670
vn -0.1988 -0.0119 -0.9800
vn -0.6216 0.6372 -0.4557
vn 0.1415 0.9413 -0.3063
vn 0.1377 0.9442 -0.2991
vn -0.1126 0.9378 -0.3284
vn 0.1167 0.8159 0.5663
vn 0.1142 0.8105 0.5745
vn 0.5321 0.7236 0.4395
vn 0.4564 -0.7347 0.5019
vn 0.2212 -0.5372 0.8139
vn 0.3143 -0.7242 0.6138
vn 0.1169 0.4691 0.8754
vn 0.2594 -0.5191 0.8144
vn 0.1494 0.5577 0.8165
vn 0.1228 0.8300 0.5441
vn -0.2386 0.7724 0.5886
vn -0.0064 0.3874 0.9219
vn 0.0908 -0.9105 0.4035
vn 0.3401 -0.0637 0.9382
vn 0.1031 -0.3049 0.9468
vn 0.4119 -0.1104 0.9045
vn 0.2790 -0.8863 0.3696
vn -0.1708 -0.3754 0.9110
vn 0.4624 -0.6363 0.6175
vn -0.1784 -0.4323 0.8839
vn 0.5504 0.2209 0.8052
vn 0.4301 0.3865 0.8159
vn -0.2043 -0.1845 0.9614
vn 0.5229 0.1698 0.8353
vn 0.4423 0.3887 0.8083
vn -0.4209 -0.1844 0.8881
vn -0.2250 0.3403 0.9130
vn -0.5045 0.3143 0.8042
vn -0.3829 0.5659 0.7302
vn 0.3993 0.1603 0.9027
vn 0.4673 0.0605 0.8820
vn 0.5907 -0.0697 0.8039
vn 0.3817 0.0093 0.9243
vn 0.6493 -0.2892 0.7034
vn 0.8115 -0.0161 0.5841
vn 0.4172 -0.0781 0.9054
vn 0.7149 -0.4328 -0.5492
vn 0.6726 -0.4535 0.5848
vn 0.8475 -0.3795 -0.3712
vn 0.8047 -0.0194 0.5934
vn 0.7483 -0.5571 -0.3601
vn 0.5521 -0.5893 -0.5898
vn 0.8751 -0.4594 0.1522
vn 0.4533 -0.2578 0.8533
vn 0.9301 -0.3454 0.1247
vn 0.5278 -0.3001 0.7946
vn 0.6680 0.7105 -0.2215
vn 0.6224 0.7565 -0.2007
vn 0.6854 0.7043 -0.1850
vn 0.5526 0.7039 -0.4463
vn 0.9853 0.0219 0.1696
vn 0.9528 -0.1853 0.2407
vn 0.4750 -0.4929 -0.7289
vn 0.7427 -0.6292 -0.2291
vn 0.6599 -0.4018 -0.6349
vn 0.7190 0.5734 -0.3927
vn 0.7316 -0.6680 -0.1362
vn 0.7265 0.5803 -0.3682
vn 0.7116 0.6231 -0.3246
vn 0.1515 0.1760 -0.9727
vn 0.7292 0.5775 -0.3672
vn 0.5904 0.4716 0.6550
vn 0.6644 0.4632 0.5866
vn 0.4416 0.7065 0.5531
vn 0.5977 0.7656 -0.2380
vn 0.6699 0.3523 0.6535
vn 0.3550 0.0396 0.9340
vn 0.3028 0.1333 0.9437
vn 0.3204 0.0916 0.9429
vn 0.3540 0.0125 0.9352
vn -0.0495 -0.2645 0.9631
vn 0.3625 -0.2712 0.8917
vn 0.0288 -0.0585 0.9979
vn 0.0333 -0.0576 0.9978
vn 0.0363 -0.0542 0.9979
vn 0.2538 -0.0894 0.9631
vn -0.1878 -0.3003 0.9352
vn -0.2118 -0.2876 0.9340
vn -0.2395 -0.2316 0.9429
vn 0.0536 -0.4495 0.8917
vn -0.6401 -0.4040 0.6535
vn -0.7036 -0.2755 0.6550
vn -0.7333 -0.3438 0.5866
vn -0.2668 -0.1956 0.9437
vn -0.8326 -0.0292 0.5531
vn -0.8657 -0.3390 -0.3682
vn -0.9619 -0.1348 -0.2380
vn -0.8647 -0.3427 -0.3672
vn -0.2282 -0.0433 -0.9727
vn -0.8954 -0.3047 -0.3246
vn 0.0180 -0.7724 -0.6349
vn -0.8561 -0.3360 -0.3927
vn 0.1894 -0.6579 -0.7289
vn -0.1203 -0.5149 -0.8487
vn -0.2545 -0.1614 -0.9535
vn -0.0843 -0.0803 -0.9932
vn -0.1202 -0.1821 -0.9759
vn -0.0663 -0.3976 -0.9152
vn 0.3114 -0.2400 -0.9195
vn -0.0784 -0.1064 -0.9912
vn 0.3721 -0.8965 -0.2406
vn -0.4248 -0.8943 -0.1405
vn -0.8923 -0.3336 -0.3041
vn -0.3032 -0.6665 0.6810
vn -0.6406 -0.4430 0.6272
vn -0.2488 -0.7267 0.6404
vn -0.8803 -0.3470 -0.3236
vn 0.1829 -0.5811 0.7930
vn 0.2651 -0.8423 0.4693
vn 0.2333 -0.8648 0.4447
vn -0.0757 -0.4973 0.8642
vn 0.3190 -0.8260 0.4648
vn 0.4300 -0.9004 -0.0663
vn 0.3911 -0.8963 -0.2089
vn 0.3497 -0.9122 -0.2134
vn 0.6152 -0.7589 -0.2134
vn 0.2724 -0.4932 -0.8262
vn 0.2909 -0.4825 -0.8262
vn 0.5648 -0.8226 -0.0663
vn 0.5558 -0.6893 0.4648
vn 0.5969 -0.6507 0.4693
vn 0.5807 -0.7869 -0.2090
vn 0.6322 -0.6345 0.4447
vn 0.7537 -0.1479 0.6404
vn 0.4118 -0.4490 0.7930
vn 0.4686 -0.1831 0.8642
vn 0.7289 -0.0707 0.6810
vn 0.9869 -0.0793 -0.1405
vn 0.7040 0.3333 0.6272
vn 0.7407 0.5888 -0.3236
vn 0.7350 0.6060 -0.3041
vn 0.5903 -0.7705 -0.2406
vn 0.0521 -0.3897 -0.9195
vn 0.1313 0.0147 -0.9912
vn 0.3775 -0.1413 -0.9152
vn 0.2178 0.0131 -0.9759
vn 0.1117 0.0329 -0.9932
vn 0.2670 0.1397 -0.9535
vn 0.5129 -0.6776 0.5270
vn 0.4425 -0.5648 0.6966
vn 0.4820 -0.3541 0.8014
vn -0.2914 0.1924 0.9370
vn 0.3136 -0.5703 0.7592
vn -0.0141 -0.2194 0.9755
vn -0.3873 -0.2236 0.8944
vn -0.0150 -0.2332 0.9723
vn -0.8660 -0.5000 -0.0000
vn -0.9697 0.2320 0.0762
vn 0.7367 -0.6658 0.1181
vn 0.2911 -0.2336 0.9277
vn 0.1703 -0.2517 0.9527
vn 0.6513 -0.6233 0.4327
vn 0.2141 -0.8757 0.4327
vn 0.2082 -0.9709 0.1181
vn 0.0568 -0.3689 0.9277
vn 0.8660 0.5000 -0.0000
vn 0.1328 -0.2733 0.9527
vn 0.2095 -0.1036 0.9723
vn 0.1971 -0.0974 0.9755
vn 0.2840 0.9558 0.0762
vn 0.3873 0.2236 0.8944
vn -0.0209 0.3486 0.9370
vn 0.3371 -0.5568 0.7592
vn 0.0656 -0.5945 0.8014
vn 0.2679 -0.6656 0.6966
vn -0.3377 0.9013 0.2713
vn 0.1929 0.9586 0.2096
vn -0.6117 0.7431 0.2713
vn 0.1849 -0.2246 0.9567
vn 0.1021 -0.2725 0.9567
vn -0.9266 0.3122 0.2096
vn 0.3304 -0.7830 0.5270
vn 0.5061 -0.1533 -0.8487
vn -0.8859 -0.1266 -0.4463
vn -0.9493 -0.2232 -0.2215
vn -0.8934 -0.1486 0.4240
vn -0.8610 -0.2593 0.4376
vn -0.9664 -0.1607 -0.2007
vn -0.9265 -0.0964 0.3638
vn -0.8768 -0.2760 0.3938
vn -0.9915 -0.0717 0.1084
vn -0.9456 -0.2624 -0.1922
vn -0.9526 -0.2414 -0.1850
vn -0.0035 -0.5215 0.8533
vn 0.3406 -0.9092 -0.2394
vn 0.2343 -0.7728 -0.5898
vn 0.0565 -0.8092 0.5848
vn 0.1868 -0.7904 0.5834
vn 0.0173 -0.8355 -0.5492
vn -0.0040 -0.6071 0.7946
vn -0.8634 -0.4218 0.2767
vn 0.0928 -0.9101 0.4040
vn 0.7887 -0.2113 0.5774
vn -0.2573 -0.6463 0.7184
vn -0.7752 -0.1223 0.6198
vn -0.3243 -0.1021 0.9404
vn 0.0953 -0.9792 0.1791
vn -0.0054 0.0558 0.9984
vn -0.2954 -0.1346 0.9459
vn 0.0579 -0.9641 0.2592
vn -0.4648 -0.8843 0.0445
vn 0.8004 -0.5721 0.1791
vn 0.8060 -0.5322 0.2592
vn 0.5362 -0.3540 0.7663
vn 0.0385 -0.6414 0.7663
vn 0.2642 0.1885 0.9459
vn -0.0456 0.0326 0.9984
vn 0.6884 -0.1003 0.7184
vn 0.9982 -0.0397 0.0445
vn 0.2506 0.2298 0.9404
vn 0.4935 0.6102 0.6198
vn 0.7970 0.5368 0.2767
vn -0.2113 -0.7887 0.5774
vn 0.6774 0.6213 0.3938
vn 0.5467 0.7542 0.3638
vn 0.7417 -0.5354 0.4040
vn 0.5911 -0.5570 0.5834
vn 0.6171 -0.7496 -0.2394
vn 0.5578 0.8229 0.1084
vn 0.6770 0.6786 -0.2848
vn -0.3700 0.8446 -0.3870
vn 0.3556 -0.7422 0.5681
vn -0.3902 0.8144 -0.4294
vn -0.8726 0.1304 0.4708
vn -0.3133 0.7150 0.6250
vn -0.8155 0.1473 0.5596
vn -0.2876 0.7676 0.5727
vn -0.0799 0.2133 0.9737
vn 0.5089 0.6251 0.5918
vn 0.5130 0.6392 0.5729
vn 0.7274 0.6672 -0.1606
vn 0.9821 -0.1358 -0.1304
vn 0.5663 -0.2976 0.7686
vn 0.7852 -0.5368 0.3087
vn 0.2434 -0.1607 0.9565
vn 0.1914 -0.5924 0.7826
vn 0.2440 0.9107 0.3333
vn -0.9107 0.2440 0.3333
vn -0.0737 0.2281 0.9709
vn -0.1607 0.1778 0.9709
vn 0.4173 -0.4619 0.7826
vn 0.0175 -0.2911 0.9565
vn -0.0254 -0.6392 0.7686
vn 0.0723 -0.9484 0.3087
vn -0.3734 -0.9185 -0.1304
vn -0.9415 -0.2963 -0.1606
vn -0.7958 -0.1281 0.5918
vn -0.8101 -0.1247 0.5729
vn -0.4626 0.6288 0.6250
vn -0.5210 0.6329 0.5727
vn -0.1448 0.1759 0.9737
vn -0.5464 0.7428 -0.3870
vn -0.5102 0.7452 -0.4294
vn 0.3233 0.8209 0.4708
vn 0.2802 0.7799 0.5596
vn -0.9262 -0.2470 -0.2848
vn 0.6550 0.6160 0.4376
vn 0.2107 0.1981 0.9573
vn 0.5754 0.6994 0.4240
vn -0.0333 0.0576 0.9978
vn 0.4649 -0.6791 0.5681
vn -0.2769 -0.0834 0.9573
vn -0.2361 -0.1553 0.9592
vn 0.2525 0.1269 0.9592
vn 0.1735 -0.9578 -0.2291
vn 0.7001 0.6877 -0.1922
vn 0.6779 -0.3258 0.6590
vn 0.4633 -0.0867 0.8819
vn 0.7964 -0.0701 0.6007
vn 0.8045 0.0123 0.5939
vn 0.3025 -0.1865 0.9347
vn 0.6284 0.0190 0.7777
vn 0.7013 0.5599 -0.4412
vn 0.0996 0.4529 0.8860
vn -0.2189 0.9312 -0.2915
vn 0.1321 -0.1194 0.9840
vn 0.2169 -0.2098 0.9534
vn -0.8281 -0.0430 0.5590
vn 0.0929 -0.0439 0.9947
vn -0.3106 -0.5596 0.7684
vn -0.0523 -0.4341 0.8994
vn -0.0084 -0.1024 0.9947
vn -0.0117 -0.0969 0.9952
vn 0.0872 -0.5219 0.8485
vn 0.1532 0.0780 0.9851
vn -0.4448 -0.5933 0.6709
vn 0.4847 0.1494 0.8618
vn 0.1728 0.2196 0.9601
vn 0.2212 0.1590 0.9622
vn -0.5258 -0.6682 0.5263
vn -0.1414 0.1847 0.9726
vn -0.1526 -0.6307 0.7608
vn -0.0624 0.2822 0.9573
vn -0.3003 -0.5649 0.7686
vn -0.6885 -0.4685 0.5536
vn -0.6585 -0.4734 0.5851
vn -0.7325 -0.2940 0.6140
vn 0.0419 -0.5178 0.8545
vn -0.3030 -0.5480 0.7797
vn -0.1250 -0.7975 0.5903
vn -0.3144 0.2543 0.9146
vn 0.0454 -0.5147 0.8561
vn 0.3434 -0.3802 0.8588
vn -0.7959 0.1831 0.5771
vn -0.2859 0.5924 0.7532
vn -0.7792 0.1187 0.6155
vn -0.3021 0.5975 0.7428
vn 0.4794 0.5903 0.6494
vn -0.2049 0.8875 -0.4127
vn 0.5542 0.7415 -0.3783
vn -0.8860 0.3481 -0.3063
vn -0.2410 0.8569 -0.4557
vn 0.1098 0.1662 -0.9800
vn -0.8866 0.3529 -0.2991
vn 0.3546 -0.4602 0.8139
vn -0.7590 0.3064 0.5745
vn 0.3198 -0.4842 0.8144
vn -0.4647 0.1333 0.8754
vn -0.3323 0.1992 0.9219
vn 0.7431 -0.5339 0.4035
vn -0.5496 0.5928 0.5886
vn -0.1149 -0.3264 0.9382
vn 0.2125 -0.2418 0.9468
vn -0.1104 -0.4119 0.9045
vn 0.6281 -0.6848 0.3696
vn 0.0733 -0.2927 0.9534
vn 0.3198 -0.7186 0.6175
vn -0.7802 0.3086 0.5441
vn 0.4513 0.6956 0.5590
vn -0.1410 -0.4004 0.9054
vn -0.0742 -0.7069 0.7034
vn -0.1566 -0.4446 0.8819
vn -0.3918 -0.7108 0.5841
vn -0.2861 -0.3744 0.8820
vn -0.1989 -0.3259 0.9243
vn -0.2349 -0.5464 0.8039
vn -0.3385 -0.2657 0.9027
vn -0.4369 0.6663 0.6043
vn -0.8597 0.4988 -0.1100
vn -0.8415 -0.3978 0.3657
vn -0.9216 -0.2717 0.2773
vn -0.5899 -0.7873 -0.1792
vn -0.6067 -0.7822 0.1414
vn -0.9071 -0.3805 0.1800
vn -0.6041 -0.7620 -0.2332
vn -0.8545 -0.5143 -0.0725
vn -0.1629 -0.9783 0.1282
vn -0.3436 -0.9063 -0.2461
vn -0.6108 -0.7875 -0.0825
vn -0.5326 -0.8208 -0.2063
vn -0.5764 -0.8033 0.1501
vn -0.2025 -0.7559 0.6225
vn -0.2428 -0.7425 0.6243
vn -0.3396 -0.5566 0.7582
vn -0.1016 -0.1665 0.9808
vn -0.7453 -0.6193 -0.2470
vn -0.9061 -0.3532 -0.2330
vn -0.9068 -0.4205 -0.0288
vn 0.4041 0.9147 0.0041
vn -0.8350 -0.5171 -0.1882
vn -0.1098 -0.1662 0.9800
vn 0.2955 0.9542 0.0472
vn -0.2046 0.2743 0.9396
vn 0.4567 0.2602 -0.8507
vn -0.0792 0.9763 -0.2012
vn -0.0179 0.9992 -0.0361
vn -0.5071 -0.4903 -0.7088
vn 0.4809 0.2610 -0.8370
vn 0.4151 -0.9049 -0.0944
vn -0.0206 -0.9965 -0.0812
vn 0.1218 0.0823 -0.9891
vn 0.0297 -0.9891 0.1442
vn -0.3354 -0.0985 0.9369
vn -0.2154 -0.2119 0.9533
vn -0.6791 -0.6855 0.2624
vn -0.1380 -0.1762 0.9746
vn -0.6793 -0.6762 0.2850
vn -0.3637 -0.1793 -0.9141
vn -0.9973 0.0740 -0.0035
vn -0.9976 0.0349 -0.0595
vn -0.2763 0.9077 -0.3157
vn 0.2588 0.0629 -0.9639
vn -0.3758 0.0132 0.9266
vn -0.4356 -0.1389 0.8894
vn -0.2545 0.9430 -0.2145
vn -0.1043 -0.7520 0.6509
vn -0.5323 -0.0078 0.8465
vn 0.6342 -0.0471 0.7717
vn -0.1534 -0.0977 0.9833
vn -0.1176 -0.6743 0.7290
vn 0.2160 -0.9170 0.3353
vn -0.3869 -0.7507 0.5356
vn -0.1821 -0.9378 0.2956
vn -0.1918 -0.9073 0.3742
vn -0.3097 -0.2209 0.9248
vn -0.2649 -0.9202 0.2883
vn -0.5876 -0.1180 0.8005
vn -0.3515 -0.2400 0.9049
vn -0.2565 -0.2013 0.9453
vn -0.3787 -0.1709 0.9096
vn -0.2557 -0.0493 0.9655
vn -0.2587 -0.0659 0.9637
vn -0.3069 -0.0703 0.9491
vn -0.1242 -0.2908 0.9487
vn -0.3894 -0.9115 0.1322
vn -0.2570 -0.9593 0.1170
vn -0.1057 -0.0870 0.9906
vn -0.6901 0.7137 -0.1204
vn -0.9743 -0.1994 0.1048
vn -0.1102 -0.0183 0.9937
vn -0.9747 -0.1621 0.1542
vn -0.7523 0.2405 0.6134
vn -0.1640 -0.6119 0.7737
vn -0.2588 -0.9659 -0.0000
vn -0.1498 -0.9833 0.1036
vn 0.1174 0.7708 0.6262
vn -0.4888 0.8608 0.1414
vn -0.4813 0.8651 0.1414
vn -0.6697 -0.1786 0.7208
vn -0.4020 0.9155 -0.0157
vn -0.1145 0.7946 0.5963
vn -0.7282 0.4463 0.5201
vn -0.1842 0.8541 0.4864
vn 0.0753 0.9939 -0.0803
vn -0.1849 0.8512 0.4911
vn 0.5646 0.5991 0.5677
vn 0.5797 0.6152 -0.5343
vn 0.1212 0.8766 -0.4657
vn -0.4344 -0.4048 0.8046
vn 0.6230 0.6285 -0.4657
vn -0.2797 -0.3933 0.8759
vn -0.0545 -0.5006 0.8640
vn -0.6080 -0.1011 0.7875
vn -0.1286 -0.0214 0.9915
vn -0.5749 -0.0047 0.8182
vn -0.5482 0.3535 0.7580
vn 0.2020 -0.9004 0.3853
vn 0.9919 0.0123 -0.1266
vn 0.9493 -0.0584 -0.3089
vn -0.1884 -0.0945 0.9775
vn -0.1848 0.3399 0.9221
vn 0.6315 0.6214 0.4637
vn 0.6314 -0.0452 0.7742
vn -0.4668 -0.4934 0.7340
vn -0.3965 -0.4827 0.7809
vn -0.6984 0.2411 0.6738
vn 0.0517 0.3454 0.9370
vn -0.3234 -0.6313 0.7049
vn -0.2464 0.8937 0.3749
vn -0.6900 0.6482 0.3221
vn 0.4160 -0.9067 -0.0692
vn 0.0087 0.3426 0.9395
vn 0.5566 -0.8267 -0.0818
vn -0.4082 -0.4072 0.8171
vn -0.3097 -0.4081 0.8588
vn -0.7060 -0.2126 0.6755
vn -0.1553 -0.0785 0.9847
vn -0.6034 0.7971 0.0207
vn -0.3680 -0.9256 0.0882
vn -0.3453 -0.9341 0.0909
vn -0.2080 -0.7590 0.6169
vn -0.3751 -0.7279 0.5740
vn -0.4030 -0.5295 0.7465
vn -0.5243 0.2592 0.8111
vn -0.4624 0.0627 0.8844
vn 0.7262 -0.5371 -0.4290
vn -0.2492 -0.4084 -0.8781
vn 0.2314 -0.8295 -0.5082
vn -0.2890 -0.5467 -0.7859
vn -0.3558 -0.5599 -0.7483
vn 0.0361 -0.9551 -0.2941
vn -0.7068 -0.1404 -0.6933
vn -0.6718 -0.0972 -0.7343
vn -0.6834 -0.2371 -0.6904
vn -0.2865 -0.4425 -0.8498
vn -0.3002 -0.5593 -0.7727
vn -0.2102 -0.6303 -0.7473
vn -0.0848 -0.5985 -0.7966
vn -0.0842 -0.5927 -0.8010
vn -0.2495 -0.4056 -0.8793
vn 0.5554 -0.2234 -0.8010
vn 0.4760 0.0133 -0.8793
vn -0.2328 -0.1869 -0.9544
vn 0.2782 0.1082 -0.9544
vn 0.0262 0.7302 -0.6828
vn 0.5265 0.0269 -0.8498
vn -0.0099 0.6529 -0.7574
vn -0.0136 0.6516 -0.7585
vn 0.4750 0.5419 -0.6933
vn 0.2066 0.9569 -0.2040
vn 0.2792 0.9412 -0.1900
vn 0.4201 0.5332 -0.7343
vn 0.2948 0.9472 0.1262
vn 0.1222 0.9814 0.1479
vn 0.2577 0.9406 -0.2212
vn 0.1635 0.9747 -0.1525
vn 0.2722 0.9461 0.1752
vn -0.3844 0.8896 0.2468
vn -0.3821 0.9034 -0.1947
vn 0.4710 0.7424 0.4764
vn -0.1005 0.6864 0.7202
vn 0.1473 0.9737 0.1738
vn -0.6018 0.7784 -0.1788
vn -0.3732 0.9104 -0.1788
vn -0.5575 0.3376 -0.7585
vn -0.6455 0.3424 -0.6828
vn -0.9259 0.3457 -0.1525
vn -0.5913 0.7826 -0.1947
vn -0.5605 0.3350 -0.7574
vn -0.9320 0.2995 -0.2040
vn -0.9434 0.2471 -0.2212
vn -0.9110 0.3849 0.1479
vn -0.9677 0.2182 0.1262
vn -0.9548 0.2288 -0.1900
vn -0.9169 0.3593 0.1738
vn -0.5442 0.4303 0.7202
vn -0.8784 -0.0367 0.4764
vn -0.9555 0.2373 0.1752
vn -0.5782 0.7777 0.2468
vn -0.3302 -0.9012 -0.2808
vn -0.9528 -0.2997 0.0490
vn -0.2734 -0.9211 -0.2771
vn 0.9789 -0.2022 0.0285
vn 0.6345 -0.0197 -0.7727
vn 0.5471 0.4733 -0.6904
vn 0.7359 0.6753 0.0490
vn 0.7830 0.5953 0.1800
vn -0.2323 0.0791 0.9694
vt 0.500000 0.382860
vt 0.532016 0.387365
vt 0.529647 0.428636
vt 0.539817 0.354339
vt 0.500000 0.340417
vt 0.460183 0.354339
vt 0.470353 0.428636
vt 0.467984 0.387365
vt 0.500000 0.428636
vt 0.175235 0.470987
vt 0.207859 0.464714
vt 0.204362 0.489991
vt 0.415384 0.428636
vt 0.257819 0.461543
vt 0.255481 0.390057
vt 0.227737 0.374010
vt 0.233887 0.319494
vt 0.155683 0.347370
vt 0.275237 0.340212
vt 0.100193 0.420886
vt 0.041037 0.357385
vt 0.844317 0.347370
vt 0.958963 0.357385
vt 0.899807 0.420886
vt 0.772263 0.374010
vt 0.824765 0.470987
vt 0.766113 0.319494
vt 0.724763 0.340212
vt 0.792141 0.464714
vt 0.744519 0.390057
vt 0.671357 0.334694
vt 0.701481 0.344467
vt 0.666214 0.388954
vt 0.712163 0.315527
vt 0.744725 0.304629
vt 0.704305 0.260225
vt 0.793427 0.280495
vt 0.766410 0.233065
vt 0.689501 0.268805
vt 0.672947 0.224880
vt 0.743592 0.198572
vt 0.691484 0.146686
vt 0.770208 0.191225
vt 0.780113 0.169386
vt 0.786150 0.181127
vt 0.789609 0.184671
vt 0.797710 0.195652
vt 0.786137 0.227788
vt 0.391578 0.815187
vt 0.427719 0.796173
vt 0.448277 0.830976
vt 0.422979 0.754609
vt 0.392812 0.710774
vt 0.802580 0.199758
vt 0.802950 0.203415
vt 0.414155 0.878318
vt 0.823620 0.254612
vt 0.835860 0.225225
vt 0.717709 0.538143
vt 0.648152 0.594596
vt 0.630034 0.557583
vt 0.813499 0.190705
vt 0.721292 0.572934
vt 0.400301 0.910556
vt 0.477326 0.891852
vt 0.464516 0.959188
vt 0.729804 0.624370
vt 0.667013 0.640198
vt 0.613510 0.655816
vt 0.574269 0.607668
vt 0.617867 0.719156
vt 0.568728 0.682132
vt 0.644031 0.693270
vt 0.668163 0.712097
vt 0.683874 0.757011
vt 0.605360 0.784410
vt 0.574835 0.744212
vt 0.676584 0.686010
vt 0.727131 0.698475
vt 0.574628 0.959188
vt 0.605134 0.846978
vt 0.715894 0.897069
vt 0.545439 0.884582
vt 0.524671 0.842380
vt 0.553841 0.821849
vt 0.485193 0.845321
vt 0.514211 0.817769
vt 0.490498 0.816075
vt 0.466042 0.804091
vt 0.477354 0.785393
vt 0.496545 0.797122
vt 0.448042 0.783921
vt 0.459660 0.770459
vt 0.468029 0.756171
vt 0.487167 0.769899
vt 0.504617 0.782999
vt 0.438745 0.764960
vt 0.445216 0.756351
vt 0.432640 0.746527
vt 0.429725 0.728622
vt 0.449819 0.743458
vt 0.443630 0.713731
vt 0.456307 0.732687
vt 0.475471 0.740871
vt 0.478880 0.719593
vt 0.513415 0.736977
vt 0.498668 0.755033
vt 0.534996 0.712528
vt 0.541117 0.760754
vt 0.557599 0.789442
vt 0.518620 0.772385
vt 0.530079 0.790754
vt 0.516137 0.792591
vt 0.513713 0.804019
vt 0.527961 0.808598
vt 0.483006 0.686791
vt 0.508539 0.641024
vt 0.409610 0.674022
vt 0.408153 0.587507
vt 0.526877 0.539235
vt 0.803789 0.171181
vt 0.851288 0.181145
vt 0.769334 0.128771
vt 0.830917 0.139518
vt 0.765863 0.087001
vt 0.823287 0.101559
vt 0.859647 0.117994
vt 0.861342 0.027230
vt 0.774604 0.010837
vt 0.176713 0.101559
vt 0.138658 0.027230
vt 0.225396 0.010837
vt 0.661952 0.087561
vt 0.338048 0.087561
vt 0.234137 0.087001
vt 0.352990 0.028716
vt 0.647010 0.028716
vt 0.364247 0.082198
vt 0.308516 0.146686
vt 0.387337 0.133675
vt 0.219887 0.169386
vt 0.230666 0.128771
vt 0.256408 0.198572
vt 0.327053 0.224880
vt 0.359503 0.198841
vt 0.295695 0.260225
vt 0.310499 0.268805
vt 0.349092 0.240294
vt 0.315483 0.317795
vt 0.344104 0.284413
vt 0.287837 0.315527
vt 0.255275 0.304629
vt 0.328643 0.334694
vt 0.298519 0.344467
vt 0.363225 0.370732
vt 0.350893 0.322437
vt 0.340493 0.313152
vt 0.333786 0.388954
vt 0.364449 0.300507
vt 0.371749 0.311636
vt 0.393837 0.325516
vt 0.384129 0.307438
vt 0.381926 0.299197
vt 0.382890 0.287175
vt 0.393015 0.291216
vt 0.368516 0.283889
vt 0.393986 0.302517
vt 0.392265 0.297520
vt 0.397810 0.277180
vt 0.401725 0.283083
vt 0.410086 0.271772
vt 0.410134 0.280167
vt 0.407628 0.254897
vt 0.388669 0.264411
vt 0.423648 0.284624
vt 0.430757 0.278245
vt 0.437639 0.284338
vt 0.427169 0.289915
vt 0.440810 0.294882
vt 0.456363 0.293371
vt 0.440331 0.267717
vt 0.449122 0.277832
vt 0.399530 0.238288
vt 0.464115 0.215568
vt 0.500000 0.252445
vt 0.559669 0.267717
vt 0.550878 0.277832
vt 0.500000 0.295691
vt 0.500000 0.203867
vt 0.535885 0.215568
vt 0.592372 0.254897
vt 0.589914 0.271772
vt 0.600470 0.238288
vt 0.562361 0.284338
vt 0.569243 0.278245
vt 0.602190 0.277180
vt 0.576352 0.284624
vt 0.589866 0.280167
vt 0.572831 0.289915
vt 0.559190 0.294882
vt 0.572447 0.295716
vt 0.544001 0.314523
vt 0.543637 0.293371
vt 0.563180 0.307151
vt 0.570458 0.318697
vt 0.559135 0.334326
vt 0.579057 0.335646
vt 0.573307 0.303342
vt 0.582130 0.320991
vt 0.578615 0.309394
vt 0.577351 0.373341
vt 0.594178 0.371277
vt 0.592090 0.332885
vt 0.636775 0.370732
vt 0.602261 0.395588
vt 0.581044 0.398468
vt 0.613636 0.353108
vt 0.584616 0.428636
vt 0.742181 0.461543
vt 0.726855 0.432574
vt 0.622301 0.417889
vt 0.649107 0.322437
vt 0.659507 0.313152
vt 0.628251 0.311636
vt 0.606163 0.325516
vt 0.590828 0.319797
vt 0.615871 0.307438
vt 0.598424 0.313725
vt 0.596347 0.309249
vt 0.583998 0.312892
vt 0.589656 0.312336
vt 0.606014 0.302517
vt 0.618074 0.299197
vt 0.607735 0.297520
vt 0.631484 0.283889
vt 0.635551 0.300507
vt 0.606985 0.291216
vt 0.617110 0.287175
vt 0.598275 0.283083
vt 0.655896 0.284413
vt 0.636962 0.261221
vt 0.611331 0.264411
vt 0.650908 0.240294
vt 0.626605 0.208159
vt 0.640497 0.198841
vt 0.600708 0.162985
vt 0.605467 0.151503
vt 0.612663 0.133675
vt 0.607239 0.113940
vt 0.578661 0.139176
vt 0.583245 0.154155
vt 0.635753 0.082198
vt 0.625128 0.029461
vt 0.598617 0.056841
vt 0.588127 0.085177
vt 0.565647 0.115495
vt 0.544695 0.083023
vt 0.558499 0.065137
vt 0.529228 0.091098
vt 0.537536 0.127779
vt 0.526301 0.079422
vt 0.512172 0.093457
vt 0.513874 0.097191
vt 0.511782 0.080633
vt 0.509911 0.090724
vt 0.500000 0.100063
vt 0.500000 0.091346
vt 0.514257 0.133422
vt 0.500000 0.134352
vt 0.485743 0.133422
vt 0.486126 0.097191
vt 0.487828 0.093457
vt 0.490089 0.090724
vt 0.488218 0.080633
vt 0.473699 0.079422
vt 0.470772 0.091098
vt 0.455305 0.083023
vt 0.434353 0.115495
vt 0.462464 0.127779
vt 0.421339 0.139176
vt 0.411873 0.085177
vt 0.392761 0.113940
vt 0.401383 0.056841
vt 0.441501 0.065137
vt 0.374872 0.029461
vt 0.396447 0.023452
vt 0.443646 0.040906
vt 0.453219 0.009442
vt 0.472841 0.049514
vt 0.462778 0.060794
vt 0.469543 0.065062
vt 0.467122 0.067822
vt 0.477388 0.070678
vt 0.482972 0.068490
vt 0.479289 0.060503
vt 0.500000 0.054411
vt 0.500000 0.033223
vt 0.520711 0.060503
vt 0.527159 0.049514
vt 0.546781 0.009442
vt 0.517028 0.068490
vt 0.522612 0.070678
vt 0.530457 0.065062
vt 0.532878 0.067822
vt 0.537222 0.060794
vt 0.556354 0.040906
vt 0.603553 0.023452
vt 0.500000 0.064527
vt 0.506819 0.075382
vt 0.500000 0.073497
vt 0.505196 0.077083
vt 0.509713 0.082236
vt 0.506822 0.086791
vt 0.506660 0.083289
vt 0.500000 0.089977
vt 0.503445 0.080840
vt 0.500000 0.085637
vt 0.493178 0.086791
vt 0.493340 0.083289
vt 0.496555 0.080840
vt 0.490287 0.082236
vt 0.493181 0.075382
vt 0.494804 0.077083
vt 0.500000 0.075473
vt 0.500000 0.080320
vt 0.416755 0.154155
vt 0.458673 0.154899
vt 0.455791 0.172814
vt 0.413084 0.172042
vt 0.399292 0.162985
vt 0.394533 0.151503
vt 0.373395 0.208159
vt 0.476327 0.198817
vt 0.479774 0.164615
vt 0.469742 0.180239
vt 0.500000 0.157864
vt 0.500000 0.165170
vt 0.482334 0.172353
vt 0.520226 0.164615
vt 0.517666 0.172353
vt 0.500000 0.171718
vt 0.541327 0.154899
vt 0.544209 0.172814
vt 0.530258 0.180239
vt 0.523673 0.198817
vt 0.586916 0.172042
vt 0.518957 0.194728
vt 0.508211 0.197295
vt 0.500000 0.192167
vt 0.515232 0.190709
vt 0.508818 0.192407
vt 0.516908 0.181873
vt 0.521901 0.181560
vt 0.513538 0.176949
vt 0.500000 0.186182
vt 0.491182 0.192407
vt 0.483092 0.181873
vt 0.486462 0.176949
vt 0.478099 0.181560
vt 0.481043 0.194728
vt 0.484768 0.190709
vt 0.491789 0.197295
vt 0.500000 0.197278
vt 0.684517 0.317795
vt 0.455999 0.314523
vt 0.440865 0.334326
vt 0.429542 0.318697
vt 0.436820 0.307151
vt 0.426693 0.303342
vt 0.420943 0.335646
vt 0.421385 0.309394
vt 0.417870 0.320991
vt 0.427553 0.295716
vt 0.405822 0.371277
vt 0.422649 0.373341
vt 0.407910 0.332885
vt 0.386364 0.353108
vt 0.418956 0.398468
vt 0.397739 0.395588
vt 0.377699 0.417889
vt 0.273145 0.432574
vt 0.409172 0.319797
vt 0.401576 0.313725
vt 0.403653 0.309249
vt 0.416002 0.312892
vt 0.410344 0.312336
vt 0.363038 0.261221
vt 0.206573 0.280495
vt 0.233590 0.233065
vt 0.229792 0.191225
vt 0.213863 0.227788
vt 0.210391 0.184671
vt 0.213850 0.181127
vt 0.202290 0.195652
vt 0.358648 0.815187
vt 0.327247 0.754609
vt 0.357414 0.710774
vt 0.322507 0.796173
vt 0.301949 0.830976
vt 0.336071 0.878318
vt 0.197050 0.203415
vt 0.197420 0.199758
vt 0.176380 0.254612
vt 0.164140 0.225225
vt 0.032517 0.538143
vt 0.120192 0.557583
vt 0.102074 0.594596
vt 0.186501 0.190705
vt 0.272900 0.891852
vt 0.349925 0.910556
vt 0.028934 0.572934
vt 0.285710 0.959188
vt 0.136716 0.655816
vt 0.083213 0.640198
vt 0.020422 0.624370
vt 0.175957 0.607668
vt 0.181498 0.682132
vt 0.132359 0.719156
vt 0.106195 0.693270
vt 0.175391 0.744212
vt 0.144866 0.784410
vt 0.066352 0.757011
vt 0.082063 0.712097
vt 0.073642 0.686010
vt 0.023095 0.698475
vt 0.145092 0.846978
vt 0.034332 0.897069
vt 0.175598 0.959188
vt 0.225555 0.842380
vt 0.204787 0.884582
vt 0.196385 0.821849
vt 0.236015 0.817769
vt 0.265033 0.845321
vt 0.259728 0.816075
vt 0.272872 0.785393
vt 0.284184 0.804091
vt 0.253681 0.797122
vt 0.245609 0.782999
vt 0.263059 0.769899
vt 0.282197 0.756171
vt 0.290566 0.770459
vt 0.302184 0.783921
vt 0.311481 0.764960
vt 0.305010 0.756351
vt 0.317586 0.746527
vt 0.320501 0.728622
vt 0.300407 0.743458
vt 0.306596 0.713731
vt 0.293919 0.732687
vt 0.274755 0.740871
vt 0.236811 0.736977
vt 0.271346 0.719593
vt 0.251558 0.755033
vt 0.215230 0.712528
vt 0.209109 0.760754
vt 0.192627 0.789442
vt 0.231606 0.772385
vt 0.234089 0.792591
vt 0.220147 0.790754
vt 0.236513 0.804019
vt 0.222265 0.808598
vt 0.267220 0.686791
vt 0.241687 0.641024
vt 0.340616 0.674022
vt 0.342073 0.587507
vt 0.223349 0.539235
vt 0.196211 0.171181
vt 0.169083 0.139518
vt 0.148712 0.181145
vt 0.131691 0.233525
vt 0.110522 0.177602
vt 0.140353 0.117994
vt 0.077626 0.064228
vt 0.922374 0.064228
vt 0.889478 0.177602
vt 0.012367 0.154243
vt 0.987633 0.154243
vt 0.999860 0.253531
vt 0.903302 0.261367
vt 0.868309 0.233525
vt 0.855331 0.267956
vt 0.881169 0.309153
vt 0.826663 0.297810
vt 0.096698 0.261367
vt 0.000140 0.253531
vt 0.144669 0.267956
vt 0.118831 0.309153
vt 0.173337 0.297810
vt 0.795638 0.489991
s 0
f 1/1/1 2/2/1 8/3/1
f 1/1/2 6/4/2 2/2/2
f 1/1/3 3/5/3 6/4/3
f 1/1/4 7/6/4 3/5/4
f 9/7/5 4/8/5 1/1/5
f 1/1/6 4/8/6 7/6/6
f 9/7/7 1/1/7 5/9/7
f 1/1/8 8/3/8 5/9/8
f 12/10/9 9/11/9 5/12/9
f 10/13/10 4/8/10 9/7/10
f 10/14/11 9/11/11 11/15/11
f 13/16/12 11/15/12 9/11/12
f 13/16/13 9/11/13 12/10/13
f 14/17/14 13/16/14 15/18/14
f 16/19/15 13/16/15 14/17/15
f 13/16/16 17/20/16 15/18/16
f 16/19/17 11/15/17 13/16/17
f 13/16/18 12/10/18 17/20/18
f 15/18/19 17/20/19 18/21/19
f 19/22/20 18/23/20 17/24/20
f 20/25/21 19/22/21 17/24/21
f 20/25/22 17/24/22 12/26/22
f 19/22/23 20/25/23 21/27/23
f 23/28/24 21/27/24 20/25/24
f 8/29/25 22/30/25 20/25/25
f 23/28/26 20/25/26 22/30/26
f 8/29/27 20/25/27 12/26/27
f 24/31/28 23/32/28 22/33/28
f 24/31/29 25/34/29 23/32/29
f 23/28/30 25/34/30 26/35/30
f 23/28/31 26/35/31 21/27/31
f 29/36/32 26/35/32 25/34/32
f 21/27/33 26/35/33 27/37/33
f 28/38/34 27/37/34 26/35/34
f 29/36/35 28/38/35 26/35/35
f 30/39/36 29/36/36 25/34/36
f 30/39/37 31/40/37 29/36/37
f 29/36/38 31/40/38 32/41/38
f 29/36/39 32/41/39 28/38/39
f 31/40/40 34/42/40 32/41/40
f 28/38/41 32/41/41 35/43/41
f 33/44/42 35/43/42 32/41/42
f 34/42/43 33/44/43 32/41/43
f 33/44/44 36/45/44 35/43/44
f 35/43/45 36/45/45 38/46/45
f 35/43/46 39/47/46 37/48/46
f 28/38/47 35/43/47 37/48/47
f 35/43/48 38/46/48 39/47/48
f 39/49/49 40/50/49 43/51/49
f 39/49/50 42/52/50 40/50/50
f 39/49/51 38/53/51 42/52/51
f 39/47/52 41/54/52 44/55/52
f 39/49/53 43/51/53 41/56/53
f 39/47/54 44/55/54 37/48/54
f 37/48/55 44/55/55 45/57/55
f 48/58/56 45/57/56 44/55/56
f 44/59/57 50/60/57 46/61/57
f 48/58/58 44/55/58 46/62/58
f 44/59/59 47/63/59 50/60/59
f 44/64/60 49/65/60 47/66/60
f 44/64/61 41/56/61 49/65/61
f 53/67/62 50/60/62 47/63/62
f 53/67/63 51/68/63 50/60/63
f 54/69/64 50/60/64 51/68/64
f 46/61/65 50/60/65 52/70/65
f 54/69/66 52/70/66 50/60/66
f 57/71/67 55/72/67 54/69/67
f 55/72/68 52/70/68 54/69/68
f 51/68/69 56/73/69 54/69/69
f 57/71/70 54/69/70 56/73/70
f 57/71/71 61/74/71 58/75/71
f 60/76/72 57/71/72 58/75/72
f 60/76/73 59/77/73 57/71/73
f 59/77/74 55/72/74 57/71/74
f 57/71/75 56/73/75 61/74/75
f 58/75/76 61/74/76 62/78/76
f 62/78/77 61/74/77 56/73/77
f 63/79/78 62/78/78 51/68/78
f 58/75/79 62/78/79 63/79/79
f 51/68/80 62/78/80 56/73/80
f 63/79/81 51/68/81 53/67/81
f 53/80/82 64/81/82 63/82/82
f 64/81/83 58/75/83 63/82/83
f 53/80/84 65/83/84 64/81/84
f 67/84/85 64/81/85 65/83/85
f 64/81/86 60/76/86 58/75/86
f 66/85/87 60/76/87 64/81/87
f 67/84/88 66/85/88 64/81/88
f 65/83/89 68/86/89 67/84/89
f 66/85/90 67/84/90 69/87/90
f 67/84/91 68/86/91 70/88/91
f 67/84/92 70/88/92 69/87/92
f 68/86/93 71/89/93 70/88/93
f 73/90/94 70/88/94 71/89/94
f 69/87/95 70/88/95 72/91/95
f 73/90/96 72/91/96 70/88/96
f 78/92/97 74/93/97 73/90/97
f 76/94/98 73/90/98 74/93/98
f 73/90/99 75/95/99 77/96/99
f 76/94/100 75/95/100 73/90/100
f 73/90/101 77/96/101 72/91/101
f 78/92/102 73/90/102 71/89/102
f 40/50/103 78/92/103 71/89/103
f 40/50/104 79/97/104 78/92/104
f 80/98/105 78/92/105 79/97/105
f 80/98/106 74/93/106 78/92/106
f 81/99/107 80/98/107 79/97/107
f 83/100/108 80/98/108 81/99/108
f 83/100/109 82/101/109 80/98/109
f 82/101/110 74/93/110 80/98/110
f 83/100/111 84/102/111 85/103/111
f 38/53/112 84/102/112 83/100/112
f 42/52/113 38/53/113 83/100/113
f 42/52/105 83/100/105 81/99/105
f 83/100/114 85/103/114 82/101/114
f 84/102/115 86/104/115 85/103/115
f 86/104/116 82/101/116 85/103/116
f 84/102/117 87/105/117 86/104/117
f 89/106/118 86/104/118 87/105/118
f 89/106/119 88/107/119 86/104/119
f 88/107/120 76/94/120 86/104/120
f 86/104/121 76/94/121 82/101/121
f 90/108/122 89/106/122 87/105/122
f 59/77/123 89/106/123 90/108/123
f 59/77/124 91/109/124 89/106/124
f 91/109/125 88/107/125 89/106/125
f 92/110/126 91/109/126 59/77/126
f 92/110/127 93/111/127 91/109/127
f 91/109/128 93/111/128 88/107/128
f 92/110/129 94/112/129 93/111/129
f 95/113/130 93/111/130 94/112/130
f 77/96/131 88/107/131 93/111/131
f 95/113/132 77/96/132 93/111/132
f 77/96/133 95/113/133 96/114/133
f 97/115/134 96/114/134 95/113/134
f 97/115/135 95/113/135 94/112/135
f 92/110/136 66/85/136 97/115/136
f 66/85/137 69/87/137 97/115/137
f 69/87/138 96/114/138 97/115/138
f 92/110/139 97/115/139 94/112/139
f 69/87/140 72/91/140 96/114/140
f 77/96/141 96/114/141 72/91/141
f 66/85/142 92/110/142 60/76/142
f 92/110/143 59/77/143 60/76/143
f 59/77/144 90/108/144 55/72/144
f 55/72/145 90/108/145 98/116/145
f 90/108/146 87/105/146 98/116/146
f 99/117/147 98/116/147 36/118/147
f 55/72/148 98/116/148 99/117/148
f 98/116/149 87/105/149 84/102/149
f 98/116/150 84/102/150 36/118/150
f 55/72/151 99/117/151 52/70/151
f 33/119/152 52/70/152 99/117/152
f 99/117/153 36/118/153 33/119/153
f 77/96/154 75/95/154 88/107/154
f 88/107/155 75/95/155 76/94/155
f 38/53/156 36/118/156 84/102/156
f 82/101/157 76/94/157 74/93/157
f 81/99/158 79/97/158 42/52/158
f 40/50/104 42/52/104 79/97/104
f 68/86/159 43/51/159 71/89/159
f 40/50/160 71/89/160 43/51/160
f 65/83/161 49/65/161 68/86/161
f 41/56/162 68/86/162 49/65/162
f 41/56/163 43/51/163 68/86/163
f 47/66/164 65/83/164 53/80/164
f 47/66/165 49/65/165 65/83/165
f 33/119/166 100/120/166 52/70/166
f 46/61/167 52/70/167 100/120/167
f 100/121/168 102/122/168 46/62/168
f 103/123/169 101/124/169 100/121/169
f 100/121/170 101/124/170 102/122/170
f 103/123/171 100/121/171 33/44/171
f 104/125/172 103/123/172 34/42/172
f 105/126/173 103/123/173 104/125/173
f 34/42/174 103/123/174 33/44/174
f 105/126/175 101/124/175 103/123/175
f 106/127/176 105/126/176 107/128/176
f 106/127/177 101/124/177 105/126/177
f 105/126/178 108/129/178 107/128/178
f 105/126/179 104/125/179 108/129/179
f 111/130/180 107/131/180 108/132/180
f 108/129/181 104/125/181 112/133/181
f 113/134/182 109/135/182 108/132/182
f 111/130/183 108/132/183 109/135/183
f 113/134/184 108/132/184 110/136/184
f 108/129/185 112/133/185 110/137/185
f 114/138/186 113/134/186 110/136/186
f 109/135/187 113/134/187 116/139/187
f 114/138/188 115/140/188 113/134/188
f 116/139/189 113/134/189 115/140/189
f 116/139/190 120/141/190 117/142/190
f 109/135/191 116/139/191 117/142/191
f 116/139/192 118/143/192 120/141/192
f 116/139/193 121/144/193 118/143/193
f 116/139/194 119/145/194 121/144/194
f 115/140/195 119/145/195 116/139/195
f 118/143/196 121/144/196 122/146/196
f 121/144/197 124/147/197 122/146/197
f 121/144/198 123/148/198 124/147/198
f 119/145/199 123/148/199 121/144/199
f 126/149/200 124/147/200 125/150/200
f 125/150/201 124/147/201 123/148/201
f 124/147/202 126/149/202 127/151/202
f 124/147/203 127/151/203 122/146/203
f 128/152/204 127/151/204 16/19/204
f 127/151/205 129/153/205 16/154/205
f 127/151/206 126/149/206 129/153/206
f 122/146/207 127/151/207 128/152/207
f 131/155/208 129/153/208 130/156/208
f 129/153/209 132/157/209 130/156/209
f 129/153/210 126/149/210 132/157/210
f 129/153/211 131/155/211 11/158/211
f 129/153/212 11/158/212 16/154/212
f 125/150/213 133/159/213 132/157/213
f 126/149/214 125/150/214 132/157/214
f 132/157/215 134/160/215 130/156/215
f 132/157/216 133/159/216 134/160/216
f 130/156/217 134/160/217 135/161/217
f 135/161/218 134/160/218 136/162/218
f 134/160/219 133/159/219 137/163/219
f 134/160/220 137/163/220 136/162/220
f 137/163/221 138/164/221 142/165/221
f 137/163/222 140/166/222 138/164/222
f 137/163/223 133/159/223 140/166/223
f 141/167/224 136/162/224 137/163/224
f 137/163/225 142/165/225 139/168/225
f 141/167/226 137/163/226 139/168/226
f 142/165/227 138/164/227 144/169/227
f 142/165/228 144/169/228 143/170/228
f 144/169/229 145/171/229 148/172/229
f 144/169/230 147/173/230 145/171/230
f 144/169/231 146/174/231 147/173/231
f 138/164/232 146/174/232 144/169/232
f 144/169/233 148/172/233 143/170/233
f 145/171/234 149/175/234 148/172/234
f 149/175/235 150/176/235 152/177/235
f 145/171/236 150/176/236 149/175/236
f 149/175/235 152/177/235 151/178/235
f 151/178/237 152/177/237 153/179/237
f 152/177/238 155/180/238 153/179/238
f 156/181/239 154/182/239 152/177/239
f 152/177/240 154/182/240 155/180/240
f 156/181/241 152/177/241 150/176/241
f 158/183/242 157/184/242 156/181/242
f 159/185/243 156/181/243 157/184/243
f 145/171/244 147/173/244 156/181/244
f 158/183/245 156/181/245 147/173/245
f 159/185/246 154/182/246 156/181/246
f 145/171/247 156/181/247 150/176/247
f 164/186/248 160/187/248 159/185/248
f 160/187/249 162/188/249 159/185/249
f 163/189/250 161/190/250 159/185/250
f 164/186/251 159/185/251 161/190/251
f 157/184/252 163/189/252 159/185/252
f 154/182/253 159/185/253 162/188/253
f 164/186/254 165/191/254 169/192/254
f 164/186/245 167/193/245 165/191/245
f 164/186/255 161/190/255 167/193/255
f 164/186/256 168/194/256 160/187/256
f 164/186/257 166/195/257 168/194/257
f 164/186/258 169/192/258 166/195/258
f 165/191/259 170/196/259 169/192/259
f 169/192/260 172/197/260 166/195/260
f 170/196/261 171/198/261 169/192/261
f 169/192/262 171/198/262 172/197/262
f 168/194/263 166/195/263 172/197/263
f 168/194/263 172/197/263 173/199/263
f 175/200/264 168/194/264 173/199/264
f 175/200/265 173/199/265 174/201/265
f 178/202/266 176/203/266 175/200/266
f 176/203/267 168/194/267 175/200/267
f 177/204/268 175/200/268 174/201/268
f 178/202/269 175/200/269 177/204/269
f 178/202/270 180/205/270 179/206/270
f 6/4/271 178/202/271 179/206/271
f 178/202/272 3/5/272 162/188/272
f 6/4/273 3/5/273 178/202/273
f 178/202/274 162/188/274 176/203/274
f 178/202/275 177/204/275 180/205/275
f 183/207/276 179/206/276 180/205/276
f 180/205/277 177/204/277 184/208/277
f 181/209/278 180/205/278 182/210/278
f 183/207/279 180/205/279 181/209/279
f 180/205/280 184/208/280 182/210/280
f 177/204/281 174/201/281 184/208/281
f 183/207/282 6/4/282 179/206/282
f 183/207/283 185/211/283 6/4/283
f 183/207/284 187/212/284 185/211/284
f 186/213/285 183/207/285 181/209/285
f 183/207/286 186/213/286 187/212/286
f 190/214/287 188/215/287 187/212/287
f 191/216/288 187/212/288 188/215/288
f 189/217/289 187/212/289 186/213/289
f 190/214/290 187/212/290 189/217/290
f 191/216/291 185/211/291 187/212/291
f 188/215/292 192/218/292 191/216/292
f 2/2/293 185/211/293 191/216/293
f 2/2/294 191/216/294 192/218/294
f 192/219/295 22/30/295 8/29/295
f 2/2/296 192/218/296 8/3/296
f 192/219/297 193/220/297 22/30/297
f 188/215/298 193/221/298 192/218/298
f 190/214/299 193/221/299 188/215/299
f 190/214/300 22/33/300 193/221/300
f 24/31/301 22/33/301 190/214/301
f 190/214/302 194/222/302 24/31/302
f 190/214/303 189/217/303 194/222/303
f 24/31/304 194/222/304 195/223/304
f 195/223/305 194/222/305 196/224/305
f 194/222/306 189/217/306 197/225/306
f 194/222/307 197/225/307 196/224/307
f 197/225/308 186/213/308 200/226/308
f 189/217/309 186/213/309 197/225/309
f 197/225/310 199/227/310 196/224/310
f 197/225/311 198/228/311 199/227/311
f 197/225/312 200/226/312 198/228/312
f 186/213/313 181/209/313 200/226/313
f 200/226/314 203/229/314 198/228/314
f 200/226/315 181/209/315 202/230/315
f 200/226/316 201/231/316 203/229/316
f 200/226/317 202/230/317 201/231/317
f 198/228/318 203/229/318 204/232/318
f 206/233/319 199/227/319 204/232/319
f 198/228/320 204/232/320 199/227/320
f 206/233/321 204/232/321 205/234/321
f 209/235/322 207/236/322 206/233/322
f 196/224/323 206/233/323 207/236/323
f 206/233/324 210/237/324 208/238/324
f 209/235/325 206/233/325 208/238/325
f 196/224/326 199/227/326 206/233/326
f 206/233/327 205/234/327 210/237/327
f 170/196/328 208/238/328 210/237/328
f 170/196/329 210/237/329 211/239/329
f 170/196/330 211/239/330 171/198/330
f 212/240/331 207/236/331 209/235/331
f 214/241/332 212/240/332 209/235/332
f 213/242/333 209/235/333 208/238/333
f 214/241/334 209/235/334 213/242/334
f 215/243/335 214/241/335 167/193/335
f 215/243/336 212/240/336 214/241/336
f 167/193/337 214/241/337 213/242/337
f 215/243/338 216/244/338 217/245/338
f 215/243/339 167/193/339 216/244/339
f 30/39/340 215/243/340 31/40/340
f 215/243/341 30/39/341 212/240/341
f 215/243/342 217/245/342 31/40/342
f 218/246/343 217/245/343 216/244/343
f 31/40/344 217/245/344 34/42/344
f 217/245/345 218/246/345 219/247/345
f 217/245/346 220/248/346 34/42/346
f 217/245/347 219/247/347 220/248/347
f 222/249/348 220/248/348 221/250/348
f 220/248/349 223/251/349 221/250/349
f 220/248/350 219/247/350 223/251/350
f 224/252/351 220/248/351 222/249/351
f 224/252/352 112/133/352 220/248/352
f 220/248/353 112/133/353 34/42/353
f 225/253/354 224/252/354 226/254/354
f 110/137/355 224/252/355 225/253/355
f 227/255/356 226/254/356 224/252/356
f 227/255/357 224/252/357 222/249/357
f 110/137/358 112/133/358 224/252/358
f 230/256/359 228/257/359 227/255/359
f 228/257/360 229/258/360 227/255/360
f 229/258/361 226/254/361 227/255/361
f 230/256/362 227/255/362 222/249/362
f 230/256/363 232/259/363 228/257/363
f 230/256/364 231/260/364 232/259/364
f 221/250/365 231/260/365 230/256/365
f 222/249/366 221/250/366 230/256/366
f 228/257/367 232/259/367 233/261/367
f 235/262/368 233/261/368 232/259/368
f 231/260/369 234/263/369 232/259/369
f 235/262/370 232/259/370 234/263/370
f 236/264/371 233/261/371 235/262/371
f 236/264/372 235/262/372 238/265/372
f 235/262/105 234/263/105 239/266/105
f 237/267/373 238/265/373 235/262/373
f 235/262/105 239/266/105 237/267/105
f 242/268/374 239/266/374 234/263/374
f 242/268/375 240/269/375 239/266/375
f 243/270/375 239/266/375 240/269/375
f 243/270/376 241/271/376 239/266/376
f 244/272/105 239/266/105 241/271/105
f 244/272/105 237/267/105 239/266/105
f 247/273/377 244/272/377 245/274/377
f 245/274/378 244/272/378 246/275/378
f 248/276/379 246/275/379 244/272/379
f 248/276/380 244/272/380 241/271/380
f 237/267/381 244/272/381 247/273/381
f 246/275/382 248/276/382 249/277/382
f 248/276/383 251/278/383 249/277/383
f 248/276/384 250/279/384 251/278/384
f 241/271/385 250/279/385 248/276/385
f 252/280/386 251/278/386 250/279/386
f 254/281/387 249/277/387 251/278/387
f 253/282/388 251/278/388 252/280/388
f 254/281/389 251/278/389 253/282/389
f 256/283/390 255/284/390 254/281/390
f 255/284/391 249/277/391 254/281/391
f 254/281/392 114/138/392 256/283/392
f 254/281/393 253/282/393 114/138/393
f 225/285/394 256/283/394 114/138/394
f 225/285/395 257/286/395 256/283/395
f 257/286/396 258/287/396 256/283/396
f 256/283/397 258/287/397 255/284/397
f 257/286/398 259/288/398 258/287/398
f 259/288/399 260/289/399 258/287/399
f 261/290/400 258/287/400 260/289/400
f 261/290/401 255/284/401 258/287/401
f 260/289/402 262/291/402 261/290/402
f 261/290/403 262/291/403 263/292/403
f 261/290/404 263/292/404 255/284/404
f 264/293/405 246/275/405 263/292/405
f 246/275/406 249/277/406 263/292/406
f 264/293/407 263/292/407 262/291/407
f 255/284/408 263/292/408 249/277/408
f 265/294/409 245/274/409 264/293/409
f 264/293/410 266/295/410 265/294/410
f 264/293/411 262/291/411 266/295/411
f 245/274/412 246/275/412 264/293/412
f 265/294/413 266/295/413 267/296/413
f 268/297/414 267/296/414 266/295/414
f 260/289/415 266/295/415 262/291/415
f 268/297/416 266/295/416 260/289/416
f 270/298/417 268/297/417 269/299/417
f 259/300/418 269/299/418 268/297/418
f 259/288/419 268/297/419 260/289/419
f 270/298/420 267/296/420 268/297/420
f 271/301/421 267/296/421 270/298/421
f 273/302/422 271/301/422 270/298/422
f 272/303/423 270/298/423 269/299/423
f 273/302/424 270/298/424 272/303/424
f 274/304/425 273/302/425 272/303/425
f 236/264/426 271/301/426 273/302/426
f 236/264/427 273/302/427 233/261/427
f 274/304/428 233/261/428 273/302/428
f 274/304/429 272/303/429 275/305/429
f 228/257/430 233/261/430 274/304/430
f 228/257/431 274/304/431 229/258/431
f 274/304/432 275/305/432 229/258/432
f 272/303/433 269/299/433 275/305/433
f 275/305/434 269/299/434 276/306/434
f 275/305/435 276/306/435 229/258/435
f 259/300/436 276/306/436 269/299/436
f 257/307/437 276/306/437 259/300/437
f 229/258/438 276/306/438 226/254/438
f 257/307/439 226/254/439 276/306/439
f 271/301/440 277/308/440 267/296/440
f 278/309/441 277/308/441 271/301/441
f 236/264/442 278/309/442 271/301/442
f 279/310/443 278/309/443 280/311/443
f 278/309/444 279/310/444 277/308/444
f 278/309/445 236/264/445 281/312/445
f 278/309/446 281/312/446 280/311/446
f 236/264/447 238/265/447 281/312/447
f 281/312/448 238/265/448 283/313/448
f 280/311/449 281/312/449 282/314/449
f 281/312/448 283/313/448 282/314/448
f 286/315/450 283/313/450 238/265/450
f 283/313/451 285/316/451 282/314/451
f 286/315/450 284/317/450 283/313/450
f 284/317/452 285/316/452 283/313/452
f 237/267/453 286/315/453 238/265/453
f 237/267/454 247/273/454 286/315/454
f 286/315/455 247/273/455 287/318/455
f 286/315/455 287/318/455 284/317/455
f 288/319/456 289/320/456 287/318/456
f 287/318/457 290/321/457 288/319/457
f 287/318/457 247/273/457 290/321/457
f 289/320/458 284/317/458 287/318/458
f 247/273/459 245/274/459 290/321/459
f 290/321/460 245/274/460 292/322/460
f 288/319/461 290/321/461 291/323/461
f 290/321/462 292/322/462 291/323/462
f 291/323/463 292/322/463 279/310/463
f 277/308/464 279/310/464 292/322/464
f 265/294/465 292/322/465 245/274/465
f 277/308/466 292/322/466 265/294/466
f 291/323/467 293/324/467 294/325/467
f 291/323/105 279/310/105 293/324/105
f 288/319/468 291/323/468 289/320/468
f 291/323/467 294/325/467 289/320/467
f 280/311/469 294/325/469 293/324/469
f 284/317/470 294/325/470 285/316/470
f 280/311/469 285/316/469 294/325/469
f 289/320/471 294/325/471 284/317/471
f 279/310/105 280/311/105 293/324/105
f 280/311/472 282/314/472 285/316/472
f 265/294/473 267/296/473 277/308/473
f 225/253/474 226/254/474 257/307/474
f 114/138/475 253/282/475 115/140/475
f 253/282/476 252/280/476 115/140/476
f 296/326/477 252/280/477 295/327/477
f 252/280/478 250/279/478 295/327/478
f 115/140/479 252/280/479 296/326/479
f 297/328/480 298/329/480 296/326/480
f 296/326/481 295/327/481 297/328/481
f 296/326/482 298/329/482 300/330/482
f 296/326/483 300/330/483 299/331/483
f 115/140/484 296/326/484 299/331/484
f 299/331/485 300/330/485 119/145/485
f 300/330/486 298/329/486 301/332/486
f 300/330/487 301/332/487 119/145/487
f 123/148/488 301/332/488 158/183/488
f 158/183/489 301/332/489 298/329/489
f 119/145/490 301/332/490 123/148/490
f 115/140/491 299/331/491 119/145/491
f 297/328/492 157/184/492 298/329/492
f 158/183/493 298/329/493 157/184/493
f 297/328/494 303/333/494 157/184/494
f 304/334/495 302/335/495 297/328/495
f 297/328/496 302/335/496 303/333/496
f 304/334/497 297/328/497 295/327/497
f 304/334/498 305/336/498 307/337/498
f 305/336/499 304/334/499 243/270/499
f 243/270/500 304/334/500 295/327/500
f 304/334/501 307/337/501 306/338/501
f 306/338/502 302/335/502 304/334/502
f 310/339/503 307/337/503 305/336/503
f 310/339/504 308/340/504 307/337/504
f 308/340/505 309/341/505 307/337/505
f 306/338/506 307/337/506 309/341/506
f 242/268/507 312/342/507 310/339/507
f 305/336/508 242/268/508 310/339/508
f 310/339/509 313/343/509 311/344/509
f 311/344/510 308/340/510 310/339/510
f 310/339/511 312/342/511 313/343/511
f 314/345/512 311/344/512 313/343/512
f 315/346/513 161/190/513 313/343/513
f 314/345/514 313/343/514 161/190/514
f 223/251/515 313/343/515 312/342/515
f 315/346/516 313/343/516 223/251/516
f 315/346/517 167/193/517 161/190/517
f 315/346/518 216/244/518 167/193/518
f 218/246/519 216/244/519 315/346/519
f 223/251/520 218/246/520 315/346/520
f 316/347/521 311/344/521 314/345/521
f 317/348/522 316/347/522 314/345/522
f 163/189/523 314/345/523 161/190/523
f 317/348/524 314/345/524 163/189/524
f 318/349/525 317/348/525 163/189/525
f 317/348/526 320/350/526 316/347/526
f 318/349/527 319/351/527 317/348/527
f 317/348/528 319/351/528 320/350/528
f 321/352/529 320/350/529 319/351/529
f 320/350/530 322/353/530 316/347/530
f 320/350/531 321/352/531 322/353/531
f 316/347/532 322/353/532 311/344/532
f 311/344/533 322/353/533 308/340/533
f 322/353/534 323/354/534 308/340/534
f 322/353/535 321/352/535 323/354/535
f 308/340/505 323/354/505 309/341/505
f 324/355/536 309/341/536 323/354/536
f 324/355/537 323/354/537 321/352/537
f 325/356/538 324/355/538 318/349/538
f 318/349/539 324/355/539 319/351/539
f 321/352/540 319/351/540 324/355/540
f 326/357/541 324/355/541 325/356/541
f 327/358/542 324/355/542 326/357/542
f 327/358/543 309/341/543 324/355/543
f 306/338/506 309/341/506 327/358/506
f 327/358/544 328/359/544 306/338/544
f 327/358/545 326/357/545 328/359/545
f 306/338/546 328/359/546 302/335/546
f 329/360/547 302/335/547 328/359/547
f 330/361/548 329/360/548 328/359/548
f 330/361/549 328/359/549 326/357/549
f 330/361/550 331/362/550 329/360/550
f 330/361/551 325/356/551 331/362/551
f 326/357/552 325/356/552 330/361/552
f 331/362/553 303/333/553 329/360/553
f 331/362/554 163/189/554 303/333/554
f 318/349/555 163/189/555 331/362/555
f 325/356/556 318/349/556 331/362/556
f 329/360/557 303/333/557 302/335/557
f 318/349/448 163/189/448 332/363/448
f 221/250/558 312/342/558 231/260/558
f 242/268/559 231/260/559 312/342/559
f 223/251/560 312/342/560 221/250/560
f 305/336/561 240/269/561 242/268/561
f 305/336/561 243/270/561 240/269/561
f 157/184/562 303/333/562 163/189/562
f 243/270/563 295/327/563 250/279/563
f 241/271/564 243/270/564 250/279/564
f 231/260/565 242/268/565 234/263/565
f 114/138/566 110/136/566 225/285/566
f 223/251/567 219/247/567 218/246/567
f 165/191/568 213/242/568 170/196/568
f 167/193/569 213/242/569 165/191/569
f 213/242/570 208/238/570 170/196/570
f 333/364/571 212/240/571 30/39/571
f 212/240/572 195/223/572 207/236/572
f 333/364/573 195/223/573 212/240/573
f 30/39/574 25/34/574 333/364/574
f 24/31/575 195/223/575 333/364/575
f 24/31/576 333/364/576 25/34/576
f 195/223/577 196/224/577 207/236/577
f 181/209/578 182/210/578 202/230/578
f 2/2/579 6/4/579 185/211/579
f 160/187/580 176/203/580 162/188/580
f 176/203/581 160/187/581 168/194/581
f 162/188/582 3/5/582 334/365/582
f 154/182/583 162/188/583 155/180/583
f 162/188/584 334/365/584 155/180/584
f 7/6/585 334/365/585 3/5/585
f 334/365/586 335/366/586 337/367/586
f 7/6/587 335/366/587 334/365/587
f 153/179/588 155/180/588 334/365/588
f 334/365/589 337/367/589 336/368/589
f 153/179/590 334/365/590 336/368/590
f 341/369/591 336/368/591 337/367/591
f 337/367/592 335/366/592 340/370/592
f 339/371/593 337/367/593 338/372/593
f 337/367/594 340/370/594 338/372/594
f 341/369/595 337/367/595 339/371/595
f 342/373/596 336/368/596 341/369/596
f 342/373/597 153/179/597 336/368/597
f 151/178/598 153/179/598 342/373/598
f 345/374/599 340/370/599 343/375/599
f 340/370/600 7/6/600 343/375/600
f 340/370/601 335/366/601 7/6/601
f 338/372/602 340/370/602 344/376/602
f 345/374/603 344/376/603 340/370/603
f 346/377/604 344/376/604 345/374/604
f 345/374/605 131/155/605 346/377/605
f 348/378/606 347/379/606 345/374/606
f 345/374/607 347/379/607 131/155/607
f 348/378/608 345/374/608 343/375/608
f 4/8/609 348/378/609 343/375/609
f 347/379/610 348/378/610 10/13/610
f 10/13/611 348/378/611 4/8/611
f 131/155/612 347/379/612 349/380/612
f 347/379/613 10/13/613 349/380/613
f 10/14/614 11/15/614 349/381/614
f 131/155/615 349/380/615 11/158/615
f 130/156/616 135/161/616 346/377/616
f 131/155/617 130/156/617 346/377/617
f 346/377/618 135/161/618 344/376/618
f 350/382/619 344/376/619 135/161/619
f 338/372/620 344/376/620 350/382/620
f 350/382/621 351/383/621 354/384/621
f 350/382/622 135/161/622 351/383/622
f 353/385/623 338/372/623 350/382/623
f 350/382/624 354/384/624 352/386/624
f 353/385/625 350/382/625 352/386/625
f 351/383/626 141/167/626 354/384/626
f 339/371/627 338/372/627 353/385/627
f 351/383/628 136/162/628 141/167/628
f 135/161/629 136/162/629 351/383/629
f 4/8/630 343/375/630 7/6/630
f 158/183/631 146/174/631 355/387/631
f 123/148/632 158/183/632 355/387/632
f 158/183/633 147/173/633 146/174/633
f 125/150/634 123/148/634 355/387/634
f 355/387/635 140/166/635 125/150/635
f 355/387/636 146/174/636 140/166/636
f 138/164/637 140/166/637 146/174/637
f 125/150/638 140/166/638 133/159/638
f 356/388/639 128/152/639 14/17/639
f 128/152/640 16/19/640 14/17/640
f 356/388/641 357/389/641 128/152/641
f 122/146/642 128/152/642 357/389/642
f 359/390/643 118/143/643 357/389/643
f 118/143/644 122/146/644 357/389/644
f 356/388/645 358/391/645 357/389/645
f 359/390/646 357/389/646 358/391/646
f 361/392/647 360/393/647 359/390/647
f 120/141/648 359/390/648 360/393/648
f 120/141/649 118/143/649 359/390/649
f 359/390/650 358/391/650 362/394/650
f 359/390/651 362/394/651 361/392/651
f 362/395/652 365/396/652 361/397/652
f 362/395/653 363/398/653 365/396/653
f 362/395/654 366/399/654 363/398/654
f 362/395/655 364/400/655 366/399/655
f 362/394/656 367/401/656 364/402/656
f 362/394/657 358/391/657 367/401/657
f 368/403/658 367/401/658 358/391/658
f 371/404/659 367/401/659 368/403/659
f 367/405/660 369/406/660 373/407/660
f 371/404/661 369/408/661 367/401/661
f 372/409/662 364/400/662 367/410/662
f 367/405/663 373/407/663 370/411/663
f 372/409/664 367/410/664 370/412/664
f 377/413/665 374/414/665 373/407/665
f 376/415/666 373/407/666 374/414/666
f 376/415/667 370/411/667 373/407/667
f 375/416/668 373/407/668 369/406/668
f 377/413/669 373/407/669 375/416/669
f 375/416/670 378/417/670 377/413/670
f 377/413/671 378/417/671 380/418/671
f 379/419/672 374/414/672 377/413/672
f 377/413/673 380/418/673 379/419/673
f 381/420/674 380/418/674 378/417/674
f 383/421/675 380/418/675 381/420/675
f 380/418/676 382/422/676 384/423/676
f 383/421/677 382/422/677 380/418/677
f 380/418/678 384/423/678 379/419/678
f 379/419/679 384/423/679 385/424/679
f 382/422/680 385/424/680 384/423/680
f 382/422/681 386/425/681 385/424/681
f 386/425/682 374/414/682 385/424/682
f 379/419/683 385/424/683 374/414/683
f 387/426/684 386/427/684 382/422/684
f 387/426/685 376/428/685 386/427/685
f 386/425/686 376/415/686 374/414/686
f 390/429/687 388/430/687 387/426/687
f 387/426/688 388/430/688 376/428/688
f 389/431/689 387/426/689 383/421/689
f 387/426/690 382/422/690 383/421/690
f 390/429/691 387/426/691 389/431/691
f 392/432/692 390/429/692 389/431/692
f 391/433/693 388/430/693 390/429/693
f 393/434/694 391/433/694 390/429/694
f 393/434/695 390/429/695 392/432/695
f 396/435/696 394/436/696 393/434/696
f 394/436/697 391/433/697 393/434/697
f 395/437/698 393/434/698 392/432/698
f 396/435/699 393/434/699 395/437/699
f 400/438/700 397/439/700 396/435/700
f 399/440/701 396/435/701 397/439/701
f 399/440/702 398/441/702 396/435/702
f 401/442/703 396/435/703 398/441/703
f 400/438/704 396/435/704 395/437/704
f 401/442/705 394/436/705 396/435/705
f 363/398/706 394/436/706 401/442/706
f 402/443/707 363/398/707 401/442/707
f 401/442/105 403/444/105 402/443/105
f 401/442/708 398/441/708 403/444/708
f 404/445/709 402/443/709 403/444/709
f 406/446/710 404/445/710 403/444/710
f 405/447/711 403/444/711 398/441/711
f 406/446/712 403/444/712 405/447/712
f 406/446/713 361/397/713 365/396/713
f 361/397/714 406/446/714 407/448/714
f 408/449/715 407/448/715 406/446/715
f 406/446/105 365/396/105 404/445/105
f 408/449/716 406/446/716 405/447/716
f 409/450/717 408/449/717 405/447/717
f 409/450/115 407/448/115 408/449/115
f 412/451/718 410/452/718 409/450/718
f 409/450/719 410/452/719 407/448/719
f 399/440/720 411/453/720 409/450/720
f 412/451/721 409/450/721 411/453/721
f 409/450/722 405/447/722 399/440/722
f 410/452/723 412/451/723 413/454/723
f 412/451/724 381/420/724 413/454/724
f 414/455/725 412/451/725 411/453/725
f 412/451/726 414/455/726 381/420/726
f 415/456/727 381/420/727 414/455/727
f 415/456/728 414/455/728 416/457/728
f 414/455/729 411/453/729 416/457/729
f 418/458/730 417/459/730 416/457/730
f 415/456/731 416/457/731 417/459/731
f 400/438/732 416/457/732 411/453/732
f 418/458/733 416/457/733 400/438/733
f 418/458/734 419/460/734 420/461/734
f 400/438/735 419/460/735 418/458/735
f 418/458/736 420/461/736 417/459/736
f 420/461/737 419/460/737 392/432/737
f 392/432/738 389/431/738 420/461/738
f 420/461/739 389/431/739 415/456/739
f 420/461/740 415/456/740 417/459/740
f 400/438/741 395/437/741 419/460/741
f 395/437/742 392/432/742 419/460/742
f 415/456/743 383/421/743 381/420/743
f 389/431/744 383/421/744 415/456/744
f 421/462/745 413/454/745 378/417/745
f 381/420/746 378/417/746 413/454/746
f 410/452/747 413/454/747 421/462/747
f 422/463/748 360/464/748 421/462/748
f 421/462/749 378/417/749 422/463/749
f 407/448/750 410/452/750 421/462/750
f 407/448/751 421/462/751 360/464/751
f 375/416/752 422/463/752 378/417/752
f 422/463/753 120/465/753 360/464/753
f 375/416/754 120/465/754 422/463/754
f 399/440/755 397/439/755 411/453/755
f 400/438/756 411/453/756 397/439/756
f 361/397/757 407/448/757 360/464/757
f 405/447/758 398/441/758 399/440/758
f 404/445/759 365/396/759 402/443/759
f 402/443/707 365/396/707 363/398/707
f 363/398/760 366/399/760 394/436/760
f 394/436/761 366/399/761 391/433/761
f 364/400/762 372/409/762 391/433/762
f 391/433/763 372/409/763 388/430/763
f 364/400/764 391/433/764 366/399/764
f 370/412/765 388/430/765 372/409/765
f 370/412/766 376/428/766 388/430/766
f 375/416/767 423/466/767 120/465/767
f 375/416/768 369/406/768 423/466/768
f 117/142/769 423/467/769 424/468/769
f 423/467/770 425/469/770 424/468/770
f 423/467/771 369/408/771 425/469/771
f 117/142/772 120/141/772 423/467/772
f 426/470/773 427/471/773 425/469/773
f 425/469/774 371/404/774 426/470/774
f 425/469/775 369/408/775 371/404/775
f 425/469/776 427/471/776 428/472/776
f 425/469/777 428/472/777 424/468/777
f 111/130/778 424/468/778 428/472/778
f 428/472/779 107/131/779 111/130/779
f 428/472/780 429/473/780 107/131/780
f 427/471/781 429/473/781 428/472/781
f 106/127/782 107/128/782 429/474/782
f 431/475/783 106/127/783 429/474/783
f 427/471/784 430/476/784 429/473/784
f 431/475/785 429/474/785 430/477/785
f 433/478/786 431/475/786 430/477/786
f 102/122/787 106/127/787 431/475/787
f 431/475/788 432/479/788 434/480/788
f 433/478/789 432/479/789 431/475/789
f 431/475/790 434/480/790 102/122/790
f 432/479/791 435/481/791 434/480/791
f 435/481/792 48/58/792 434/480/792
f 102/122/793 434/480/793 48/58/793
f 437/482/794 436/483/794 435/481/794
f 436/483/795 45/57/795 435/481/795
f 435/481/796 45/57/796 48/58/796
f 432/479/797 437/482/797 435/481/797
f 437/482/798 19/22/798 436/483/798
f 19/22/799 437/482/799 18/23/799
f 18/23/800 437/482/800 432/479/800
f 19/22/801 21/27/801 436/483/801
f 21/27/802 27/37/802 436/483/802
f 436/483/803 27/37/803 45/57/803
f 438/484/804 18/21/804 433/485/804
f 18/23/805 432/479/805 433/478/805
f 427/471/806 438/484/806 433/485/806
f 427/471/807 433/485/807 430/476/807
f 440/486/808 439/487/808 438/484/808
f 438/484/809 439/487/809 18/21/809
f 426/470/810 438/484/810 427/471/810
f 440/486/811 438/484/811 426/470/811
f 371/404/812 368/403/812 440/486/812
f 368/403/813 441/488/813 440/486/813
f 441/488/814 439/487/814 440/486/814
f 371/404/815 440/486/815 426/470/815
f 368/403/816 356/388/816 441/488/816
f 356/388/817 14/17/817 441/488/817
f 14/17/818 15/18/818 441/488/818
f 441/488/819 15/18/819 439/487/819
f 15/18/820 18/21/820 439/487/820
f 111/130/821 117/142/821 424/468/821
f 368/403/822 358/391/822 356/388/822
f 111/130/823 109/135/823 117/142/823
f 104/125/824 34/42/824 112/133/824
f 102/122/825 101/124/825 106/127/825
f 102/122/826 48/58/826 46/62/826
f 37/48/827 45/57/827 27/37/827
f 28/38/828 37/48/828 27/37/828
f 5/489/829 8/29/829 12/26/829
