# Blender 4.4.1
# www.blender.org
mtllib suzanne_eye_left.mtl
o suzanne_eye_left
v 0.437500 0.164062 0.765625
v 0.500000 0.093750 0.687500
v 0.546875 0.054688 0.578125
v 0.351562 -0.023438 0.617188
v 0.351562 0.031250 0.718750
v 0.351562 0.132812 0.781250
v 0.273438 0.164062 0.796875
v 0.203125 0.093750 0.742188
v 0.156250 0.054688 0.648438
v 0.078125 0.242188 0.656250
v 0.140625 0.242188 0.742188
v 0.242188 0.242188 0.796875
v 0.273438 0.328125 0.796875
v 0.203125 0.390625 0.742188
v 0.156250 0.437500 0.648438
v 0.351562 0.515625 0.617188
v 0.351562 0.453125 0.718750
v 0.351562 0.359375 0.781250
v 0.437500 0.328125 0.765625
v 0.500000 0.390625 0.687500
v 0.546875 0.437500 0.578125
v 0.625000 0.242188 0.562500
v 0.562500 0.242188 0.671875
v 0.468750 0.242188 0.757812
v 0.476562 0.242188 0.773438
v 0.445312 0.335938 0.781250
v 0.351562 0.375000 0.804688
v 0.265625 0.335938 0.820312
v 0.226562 0.242188 0.820312
v 0.265625 0.156250 0.820312
v 0.351562 0.242188 0.828125
v 0.351562 0.117188 0.804688
v 0.445312 0.156250 0.781250
vn 0.6617 -0.2026 0.7219
vn 0.8268 -0.3051 0.4725
vn 0.4076 -0.7905 0.4570
vn 0.3791 -0.5163 0.7679
vn -0.0859 -0.5222 0.8485
vn -0.2664 -0.8487 0.4570
vn -0.7824 -0.3294 0.5285
vn -0.4767 -0.1907 0.8581
vn -0.4649 0.1958 0.8634
vn -0.7656 0.3223 0.5568
vn -0.2560 0.8073 0.5317
vn -0.0821 0.6023 0.7940
vn 0.3329 0.5231 0.7846
vn 0.4246 0.7711 0.4745
vn 0.8251 0.2968 0.4808
vn 0.6888 0.1868 0.7005
vn 0.8400 0.3436 -0.4200
vn 0.2074 0.8296 -0.5185
vn -0.4056 0.7605 -0.5070
vn -0.8642 0.3143 -0.3928
vn -0.7783 -0.3538 -0.5188
vn -0.4381 -0.7988 -0.4123
vn 0.2037 -0.8146 -0.5431
vn 0.7683 -0.3293 -0.5488
vn 0.4000 -0.0623 0.9144
vn 0.3069 -0.1754 0.9354
vn 0.0945 -0.1835 0.9785
vn -0.0624 -0.0283 0.9977
vn -0.0624 0.0260 0.9977
vn 0.0996 0.1729 0.9799
vn 0.3036 0.1656 0.9383
vn 0.4002 0.0572 0.9147
vn 0.6713 -0.1971 0.7145
vn 0.8326 -0.3017 0.4646
vn 0.4258 -0.7967 0.4290
vn 0.3265 -0.4954 0.8050
vn -0.0649 -0.5714 0.8181
vn -0.2738 -0.8315 0.4834
vn -0.7606 -0.3400 0.5531
vn -0.4649 -0.1958 0.8634
vn -0.4983 0.1812 0.8478
vn -0.7683 0.3293 0.5488
vn -0.2487 0.8249 0.5076
vn -0.1017 0.5518 0.8277
vn 0.3861 0.5446 0.7445
vn 0.4059 0.7641 0.5014
vn 0.8299 0.2940 0.4742
vn 0.6617 0.2026 0.7219
vn 0.7816 0.3058 -0.5437
vn 0.2037 0.8146 -0.5431
vn -0.4381 0.7988 -0.4123
vn -0.7861 0.3276 -0.5241
vn -0.8519 -0.3408 -0.3976
vn -0.4056 -0.7605 -0.5070
vn 0.2074 -0.8296 -0.5185
vn 0.8297 -0.3734 -0.4149
vt 0.843250 0.588863
vt 0.794218 0.611927
vt 0.815334 0.560948
vt 0.746541 0.611927
vt 0.781622 0.527235
vt 0.781622 0.696619
vt 0.833697 0.611927
vt 0.815334 0.662907
vt 0.843250 0.634991
vt 0.866314 0.684023
vt 0.866314 0.731700
vt 0.917293 0.662907
vt 0.889378 0.634991
vt 0.866314 0.644544
vt 0.938410 0.611927
vt 0.951006 0.696619
vt 0.917294 0.560947
vt 0.986087 0.611927
vt 0.889378 0.588863
vt 0.898931 0.611927
vt 0.866314 0.579310
vt 0.866314 0.539831
vt 0.951006 0.527235
vt 0.866314 0.492154
vt 0.847600 0.593213
vt 0.866314 0.585461
vt 0.885028 0.593213
vt 0.892780 0.611927
vt 0.866314 0.638393
vt 0.885028 0.630641
vt 0.847600 0.630641
vt 0.839848 0.611927
vt 0.866314 0.611927
s 0
f 24/1/1 2/2/1 23/3/1
f 23/3/2 3/4/2 22/5/2
f 2/2/3 4/6/3 3/4/3
f 1/7/4 5/8/4 2/2/4
f 6/9/5 8/10/5 5/8/5
f 5/8/6 9/11/6 4/6/6
f 11/12/7 9/11/7 8/10/7
f 12/13/8 8/10/8 7/14/8
f 12/13/9 14/15/9 11/12/9
f 14/15/10 10/16/10 11/12/10
f 17/17/11 15/18/11 14/15/11
f 18/19/12 14/15/12 13/20/12
f 19/21/13 17/17/13 18/19/13
f 20/22/14 16/23/14 17/17/14
f 23/3/15 21/24/15 20/22/15
f 24/1/16 20/22/16 19/21/16
f 19/21/17 25/25/17 24/1/17
f 18/19/18 26/26/18 19/21/18
f 13/20/19 27/27/19 18/19/19
f 12/13/20 28/28/20 13/20/20
f 12/13/21 30/29/21 29/30/21
f 7/14/22 32/31/22 30/29/22
f 6/9/23 33/32/23 32/31/23
f 1/7/24 25/25/24 33/32/24
f 31/33/25 33/32/25 25/25/25
f 32/31/26 33/32/26 31/33/26
f 31/33/27 30/29/27 32/31/27
f 31/33/28 29/30/28 30/29/28
f 31/33/29 28/28/29 29/30/29
f 31/33/30 27/27/30 28/28/30
f 31/33/31 26/26/31 27/27/31
f 31/33/32 25/25/32 26/26/32
f 24/1/33 1/7/33 2/2/33
f 23/3/34 2/2/34 3/4/34
f 2/2/35 5/8/35 4/6/35
f 1/7/36 6/9/36 5/8/36
f 6/9/37 7/14/37 8/10/37
f 5/8/38 8/10/38 9/11/38
f 11/12/39 10/16/39 9/11/39
f 12/13/40 11/12/40 8/10/40
f 12/13/41 13/20/41 14/15/41
f 14/15/42 15/18/42 10/16/42
f 17/17/43 16/23/43 15/18/43
f 18/19/44 17/17/44 14/15/44
f 19/21/45 20/22/45 17/17/45
f 20/22/46 21/24/46 16/23/46
f 23/3/47 22/5/47 21/24/47
f 24/1/48 23/3/48 20/22/48
f 19/21/49 26/26/49 25/25/49
f 18/19/50 27/27/50 26/26/50
f 13/20/51 28/28/51 27/27/51
f 12/13/52 29/30/52 28/28/52
f 12/13/53 7/14/53 30/29/53
f 7/14/54 6/9/54 32/31/54
f 6/9/55 1/7/55 33/32/55
f 1/7/56 24/1/56 25/25/56
o suzanne_eye_right
v -0.437500 0.164062 0.765625
v -0.500000 0.093750 0.687500
v -0.468750 0.242188 0.757812
v -0.351562 0.132812 0.781250
v -0.445312 0.156250 0.781250
v -0.351562 0.031250 0.718750
v -0.476562 0.242188 0.773438
v -0.445312 0.335938 0.781250
v -0.351562 0.242188 0.828125
v -0.437500 0.328125 0.765625
v -0.500000 0.390625 0.687500
v -0.351562 0.359375 0.781250
v -0.351562 0.453125 0.718750
v -0.351562 0.515625 0.617188
v -0.203125 0.390625 0.742188
v -0.156250 0.437500 0.648438
v -0.078125 0.242188 0.656250
v -0.156250 0.054688 0.648438
v -0.140625 0.242188 0.742188
v -0.203125 0.093750 0.742188
v -0.242188 0.242188 0.796875
v -0.273438 0.164062 0.796875
v -0.273438 0.328125 0.796875
v -0.226562 0.242188 0.820312
v -0.265625 0.335938 0.820312
v -0.265625 0.156250 0.820312
v -0.351562 0.117188 0.804688
v -0.351562 0.375000 0.804688
v -0.351562 -0.023438 0.617188
v -0.546875 0.054688 0.578125
v -0.625000 0.242188 0.562500
v -0.562500 0.242188 0.671875
v -0.546875 0.437500 0.578125
vn -0.6713 -0.1971 0.7145
vn -0.3791 -0.5163 0.7679
vn -0.8297 -0.3734 -0.4149
vn -0.2074 -0.8296 -0.5185
vn -0.3265 -0.4954 0.8050
vn -0.7683 -0.3293 -0.5488
vn -0.4002 0.0572 0.9147
vn -0.7816 0.3058 -0.5437
vn -0.8400 0.3436 -0.4200
vn -0.4000 -0.0623 0.9144
vn -0.6888 0.1868 0.7005
vn -0.3861 0.5446 0.7445
vn -0.2074 0.8296 -0.5185
vn -0.3329 0.5231 0.7846
vn -0.4246 0.7711 0.4745
vn 0.2487 0.8249 0.5076
vn 0.2560 0.8073 0.5317
vn 0.1017 0.5518 0.8277
vn 0.7683 0.3293 0.5488
vn 0.7606 -0.3400 0.5531
vn 0.7656 0.3223 0.5568
vn 0.7824 -0.3294 0.5285
vn 0.4649 -0.1958 0.8634
vn 0.4649 0.1958 0.8634
vn 0.8519 -0.3408 -0.3976
vn 0.4767 -0.1907 0.8581
vn 0.8642 0.3143 -0.3928
vn 0.4983 0.1812 0.8478
vn 0.7782 -0.3538 -0.5188
vn 0.7861 0.3276 -0.5241
vn 0.0624 -0.0283 0.9977
vn 0.4381 -0.7988 -0.4123
vn -0.0945 -0.1835 0.9785
vn 0.4056 -0.7605 -0.5070
vn -0.2037 -0.8146 -0.5431
vn -0.3069 -0.1754 0.9354
vn -0.0996 0.1729 0.9799
vn 0.4381 0.7988 -0.4123
vn 0.0624 0.0260 0.9977
vn -0.3036 0.1656 0.9383
vn -0.2037 0.8146 -0.5431
vn 0.4056 0.7605 -0.5070
vn 0.0821 0.6023 0.7940
vn 0.0649 -0.5714 0.8181
vn 0.2738 -0.8315 0.4834
vn 0.0859 -0.5222 0.8485
vn 0.2664 -0.8487 0.4570
vn -0.4076 -0.7905 0.4570
vn -0.4258 -0.7967 0.4290
vn -0.8268 -0.3051 0.4725
vn -0.8326 -0.3017 0.4646
vn -0.6617 -0.2026 0.7219
vn -0.6617 0.2026 0.7219
vn -0.8299 0.2940 0.4742
vn -0.8251 0.2968 0.4808
vn -0.4059 0.7641 0.5014
vt 0.866314 0.937441
vt 0.866314 0.897962
vt 0.889378 0.888409
vt 0.815334 0.916325
vt 0.885028 0.884059
vt 0.866314 0.891811
vt 0.843250 0.888409
vt 0.892780 0.865345
vt 0.866314 0.865345
vt 0.898931 0.865345
vt 0.938410 0.865345
vt 0.917294 0.814365
vt 0.889378 0.842281
vt 0.951006 0.780653
vt 0.866314 0.745572
vt 0.866314 0.793249
vt 0.781622 0.780653
vt 0.815334 0.814366
vt 0.746541 0.865345
vt 0.794218 0.865345
vt 0.843250 0.842281
vt 0.839848 0.865345
vt 0.833697 0.865345
vt 0.866314 0.832728
vt 0.866314 0.838879
vt 0.847600 0.846631
vt 0.847600 0.884059
vt 0.885028 0.846631
vt 0.781622 0.950037
vt 0.866314 0.985118
vt 0.917293 0.916324
vt 0.951006 0.950037
vt 0.986087 0.865345
s 0
f 35/34/57 34/35/57 36/36/57
f 39/37/58 34/35/58 35/34/58
f 40/38/59 36/36/59 34/35/59
f 38/39/60 34/35/60 37/40/60
f 39/37/61 37/40/61 34/35/61
f 40/38/62 34/35/62 38/39/62
f 41/41/63 40/38/63 42/42/63
f 43/43/64 40/38/64 41/41/64
f 43/43/65 36/36/65 40/38/65
f 40/38/66 38/39/66 42/42/66
f 36/36/67 43/43/67 44/44/67
f 43/43/68 46/45/68 44/44/68
f 45/46/69 43/43/69 41/41/69
f 43/43/70 45/46/70 46/45/70
f 44/44/71 46/45/71 47/47/71
f 46/45/72 49/48/72 47/47/72
f 46/45/73 48/49/73 49/48/73
f 45/46/74 48/49/74 46/45/74
f 48/49/75 50/50/75 49/48/75
f 52/51/76 51/52/76 50/50/76
f 48/49/77 52/51/77 50/50/77
f 52/51/78 53/53/78 51/52/78
f 54/54/79 53/53/79 52/51/79
f 48/49/80 54/54/80 52/51/80
f 59/55/81 55/56/81 54/54/81
f 54/54/82 55/56/82 53/53/82
f 54/54/83 56/57/83 58/58/83
f 48/49/84 56/57/84 54/54/84
f 59/55/85 54/54/85 57/59/85
f 54/54/86 58/58/86 57/59/86
f 59/55/87 57/59/87 42/42/87
f 60/60/88 55/56/88 59/55/88
f 60/60/89 59/55/89 42/42/89
f 60/60/90 37/40/90 55/56/90
f 38/39/91 37/40/91 60/60/91
f 42/42/92 38/39/92 60/60/92
f 58/58/93 61/61/93 42/42/93
f 56/57/94 61/61/94 58/58/94
f 57/59/95 58/58/95 42/42/95
f 61/61/96 41/41/96 42/42/96
f 45/46/97 41/41/97 61/61/97
f 56/57/98 45/46/98 61/61/98
f 45/46/99 56/57/99 48/49/99
f 53/53/100 55/56/100 37/40/100
f 51/52/101 53/53/101 39/37/101
f 53/53/102 37/40/102 39/37/102
f 51/52/103 39/37/103 62/62/103
f 62/62/104 35/34/104 63/63/104
f 62/62/105 39/37/105 35/34/105
f 63/63/106 65/64/106 64/65/106
f 63/63/107 35/34/107 65/64/107
f 35/34/108 36/36/108 65/64/108
f 36/36/109 44/44/109 65/64/109
f 65/64/110 66/66/110 64/65/110
f 65/64/111 44/44/111 66/66/111
f 44/44/112 47/47/112 66/66/112
o suzanne_head
v 0.000000 0.429688 0.742188
v 0.062500 0.492188 0.750000
v 0.000000 0.351562 0.820312
v -0.062500 0.492188 0.750000
v 0.000000 0.406250 0.601562
v 0.101562 0.429688 0.843750
v -0.101562 0.429688 0.843750
v 0.109375 0.460938 0.609375
v -0.109375 0.460938 0.609375
v -0.195312 0.664062 0.617188
v -0.484375 0.554688 0.554688
v 0.000000 0.570312 0.570312
v -0.460938 0.523438 0.429688
v -0.632812 0.453125 0.281250
v -0.453125 0.851562 0.234375
v -0.679688 0.453125 0.492188
v 0.000000 0.898438 0.289062
v 0.000000 0.984375 -0.078125
v 0.453125 0.851562 0.234375
v 0.460938 0.523438 0.429688
v 0.632812 0.453125 0.281250
v 0.484375 0.554688 0.554688
v 0.679688 0.453125 0.492188
v 0.710938 0.484375 0.625000
v 0.796875 0.406250 0.460938
v 0.726562 0.406250 0.335938
v 0.796875 0.562500 0.125000
v 0.851562 0.234375 0.054688
v 0.773438 0.164062 0.375000
v 0.828125 0.148438 0.445312
v 0.601562 0.000000 0.414062
v 0.734375 -0.046875 0.070312
v 0.593750 -0.125000 -0.164062
v 0.406250 -0.171875 0.148438
v 0.726562 0.000000 -0.070312
v 0.718750 -0.023438 -0.171875
v 0.859375 0.320312 -0.046875
v 0.718750 0.039062 -0.187500
v 0.796875 0.203125 -0.210938
v 0.835938 0.171875 -0.273438
v 0.843750 0.289062 -0.210938
v 0.757812 0.093750 -0.273438
v 0.890625 0.242188 -0.265625
v 0.820312 0.328125 -0.203125
v 0.796875 0.617188 -0.117188
v 0.773438 0.265625 -0.437500
v 0.890625 0.406250 -0.234375
v 0.796875 0.539062 -0.359375
v 0.921875 0.359375 -0.218750
v 0.859375 0.382812 -0.382812
v 1.023438 0.437500 -0.484375
v 0.789062 -0.125000 -0.328125
v 1.023438 0.476562 -0.312500
v 1.039062 -0.085938 -0.492188
v 1.039062 -0.101562 -0.328125
v 1.312500 0.054688 -0.531250
v 1.281250 0.054688 -0.429688
v 1.351562 0.320312 -0.421875
v 1.210938 0.078125 -0.406250
v 1.265625 0.289062 -0.406250
v 1.367188 0.296875 -0.500000
v 1.250000 0.468750 -0.546875
v 1.234375 0.507812 -0.421875
v 1.187500 0.437500 -0.390625
v 1.015625 0.414062 -0.289062
v 1.171875 0.359375 -0.437500
v 1.023438 0.343750 -0.359375
v 0.945312 0.304688 -0.289062
v 1.039062 0.328125 -0.414062
v 0.953125 0.289062 -0.343750
v 0.890625 0.234375 -0.320312
v 1.015625 0.234375 -0.375000
v 0.960938 0.171875 -0.351562
v 0.890625 0.109375 -0.328125
v 1.000000 0.125000 -0.367188
v 0.937500 0.062500 -0.335938
v 1.054688 0.187500 -0.382812
v 0.843750 0.171875 -0.320312
v 0.765625 0.093750 -0.320312
v 0.828125 0.078125 -0.320312
v 0.820312 0.085938 -0.273438
v 0.851562 0.015625 -0.320312
v 0.843750 0.015625 -0.273438
v 0.812500 -0.015625 -0.273438
v 0.812500 -0.015625 -0.320312
v 0.882812 -0.015625 -0.265625
v 0.882812 -0.023438 -0.210938
v 1.046875 0.000000 -0.421875
v 1.039062 0.000000 -0.367188
v 1.031250 -0.039062 -0.304688
v 1.187500 0.093750 -0.445312
v 1.234375 0.250000 -0.445312
v 1.210938 0.085938 -0.484375
v 1.257812 0.242188 -0.492188
v 1.109375 0.210938 -0.390625
v 1.085938 0.273438 -0.390625
v 1.187500 0.343750 -0.484375
v 0.828125 -0.070312 -0.132812
v 0.773438 -0.140625 -0.125000
v 0.640625 -0.007812 -0.429688
v 0.484375 0.023438 -0.546875
v 0.617188 0.328125 -0.585938
v 0.429688 -0.195312 -0.210938
v 0.296875 -0.312500 -0.265625
v 0.343750 -0.148438 -0.539062
v 0.335938 0.054688 -0.664062
v 0.000000 -0.195312 -0.671875
v 0.000000 -0.382812 -0.351562
v -0.296875 -0.312500 -0.265625
v 0.000000 -0.460938 0.187500
v -0.343750 -0.148438 -0.539062
v 0.210938 -0.390625 0.164062
v -0.210938 -0.390625 0.164062
v -0.179688 -0.414062 0.257812
v -0.218750 -0.281250 0.429688
v -0.406250 -0.171875 0.148438
v -0.429688 -0.195312 -0.210938
v -0.734375 -0.046875 0.070312
v -0.437500 -0.093750 0.468750
v -0.593750 -0.125000 -0.164062
v -0.601562 0.000000 0.414062
v -0.773438 0.164062 0.375000
v -0.632812 -0.039062 0.539062
v -0.828125 0.148438 0.445312
v -0.726562 0.203125 0.601562
v -0.859375 0.429688 0.593750
v -0.796875 0.406250 0.460938
v -0.726562 0.406250 0.335938
v -0.710938 0.484375 0.625000
v -0.687500 0.414062 0.726562
v -0.492188 0.601562 0.687500
v -0.742188 0.375000 0.656250
v -0.640625 0.296875 0.648438
v -0.601562 0.375000 0.664062
v -0.429688 0.437500 0.718750
v -0.562500 0.351562 0.695312
v -0.585938 0.289062 0.687500
v -0.578125 0.195312 0.679688
v -0.554688 0.281250 0.671875
v -0.625000 0.187500 0.648438
v -0.531250 0.335938 0.679688
v -0.546875 0.210938 0.671875
v -0.460938 0.117188 0.703125
v -0.476562 0.101562 0.718750
v -0.375000 0.062500 0.742188
v -0.492188 0.062500 0.671875
v -0.375000 0.015625 0.703125
v -0.375000 0.085938 0.726562
v -0.242188 0.125000 0.757812
v -0.226562 0.109375 0.781250
v -0.203125 0.171875 0.750000
v -0.187500 0.156250 0.773438
v -0.171875 0.218750 0.781250
v -0.164062 0.140625 0.750000
v -0.132812 0.210938 0.757812
v -0.203125 0.093750 0.742188
v -0.125000 -0.101562 0.812500
v -0.398438 -0.046875 0.671875
v 0.000000 0.046875 0.726562
v 0.164062 0.140625 0.750000
v 0.125000 -0.101562 0.812500
v 0.000000 0.210938 0.765625
v 0.000000 -0.140625 0.742188
v 0.203125 0.093750 0.742188
v 0.375000 0.015625 0.703125
v 0.226562 0.109375 0.781250
v 0.398438 -0.046875 0.671875
v 0.187500 0.156250 0.773438
v 0.375000 0.062500 0.742188
v 0.476562 0.101562 0.718750
v 0.375000 0.085938 0.726562
v 0.242188 0.125000 0.757812
v 0.203125 0.171875 0.750000
v 0.195312 0.226562 0.750000
v 0.171875 0.218750 0.781250
v 0.132812 0.210938 0.757812
v 0.179688 0.296875 0.781250
v 0.125000 0.304688 0.765625
v 0.164062 0.414062 0.773438
v 0.210938 0.375000 0.781250
v 0.273438 0.421875 0.773438
v 0.234375 0.359375 0.757812
v 0.250000 0.468750 0.757812
v 0.195312 0.296875 0.757812
v 0.203125 0.617188 0.851562
v 0.328125 0.476562 0.742188
v 0.312500 0.640625 0.835938
v 0.320312 0.757812 0.734375
v 0.437500 0.546875 0.796875
v 0.492188 0.601562 0.687500
v 0.156250 0.718750 0.757812
v 0.195312 0.664062 0.617188
v 0.335938 0.687500 0.593750
v 0.687500 0.414062 0.726562
v 0.742188 0.375000 0.656250
v 0.601562 0.375000 0.664062
v 0.429688 0.437500 0.718750
v 0.421875 0.398438 0.773438
v 0.562500 0.351562 0.695312
v 0.335938 0.429688 0.757812
v 0.335938 0.406250 0.750000
v 0.281250 0.398438 0.765625
v 0.414062 0.390625 0.750000
v 0.531250 0.335938 0.679688
v 0.554688 0.281250 0.671875
v 0.585938 0.289062 0.687500
v 0.640625 0.296875 0.648438
v 0.578125 0.195312 0.679688
v 0.625000 0.187500 0.648438
v 0.546875 0.210938 0.671875
v 0.460938 0.117188 0.703125
v 0.726562 0.203125 0.601562
v 0.492188 0.062500 0.671875
v 0.617188 0.054688 0.625000
v 0.632812 -0.039062 0.539062
v 0.437500 -0.140625 0.531250
v 0.437500 -0.093750 0.468750
v 0.203125 -0.171875 0.500000
v 0.210938 -0.226562 0.468750
v 0.218750 -0.281250 0.429688
v 0.257812 -0.312500 0.554688
v 0.234375 -0.351562 0.406250
v 0.234375 -0.250000 0.554688
v 0.179688 -0.414062 0.257812
v 0.000000 -0.484375 0.281250
v 0.125000 -0.539062 0.359375
v 0.250000 -0.500000 0.390625
v 0.351562 -0.695312 0.570312
v 0.289062 -0.710938 0.382812
v 0.312500 -0.437500 0.570312
v 0.210938 -0.445312 0.710938
v 0.250000 -0.703125 0.687500
v 0.265625 -0.820312 0.664062
v 0.117188 -0.687500 0.734375
v 0.109375 -0.718750 0.734375
v 0.117188 -0.835938 0.710938
v 0.000000 -0.765625 0.734375
v 0.093750 -0.742188 0.726562
v 0.000000 -0.679688 0.734375
v 0.000000 -0.445312 0.750000
v -0.117188 -0.687500 0.734375
v 0.078125 -0.445312 0.750000
v -0.078125 -0.445312 0.750000
v -0.109375 -0.718750 0.734375
v -0.117188 -0.835938 0.710938
v -0.265625 -0.820312 0.664062
v -0.093750 -0.742188 0.726562
v -0.250000 -0.703125 0.687500
v -0.351562 -0.695312 0.570312
v -0.210938 -0.445312 0.710938
v -0.312500 -0.437500 0.570312
v -0.257812 -0.312500 0.554688
v -0.234375 -0.351562 0.406250
v -0.250000 -0.500000 0.390625
v -0.289062 -0.710938 0.382812
v -0.125000 -0.539062 0.359375
v 0.000000 -0.570312 0.320312
v -0.140625 -0.757812 0.367188
v 0.000000 -0.804688 0.343750
v -0.164062 -0.945312 0.437500
v -0.328125 -0.914062 0.398438
v -0.328125 -0.945312 0.523438
v -0.367188 -0.890625 0.531250
v -0.234375 -0.914062 0.632812
v -0.164062 -0.929688 0.632812
v -0.179688 -0.968750 0.554688
v 0.000000 -0.984375 0.578125
v 0.000000 -0.976562 0.460938
v 0.164062 -0.945312 0.437500
v 0.179688 -0.968750 0.554688
v 0.164062 -0.929688 0.632812
v 0.328125 -0.945312 0.523438
v 0.234375 -0.914062 0.632812
v 0.367188 -0.890625 0.531250
v 0.328125 -0.914062 0.398438
v 0.140625 -0.757812 0.367188
v 0.000000 -0.945312 0.640625
v 0.062500 -0.882812 0.695312
v 0.000000 -0.890625 0.687500
v 0.046875 -0.867188 0.687500
v 0.093750 -0.820312 0.710938
v 0.093750 -0.812500 0.640625
v 0.093750 -0.750000 0.664062
v 0.000000 -0.781250 0.656250
v 0.046875 -0.851562 0.632812
v 0.000000 -0.773438 0.718750
v -0.093750 -0.750000 0.664062
v -0.093750 -0.812500 0.640625
v -0.046875 -0.851562 0.632812
v -0.093750 -0.820312 0.710938
v -0.046875 -0.867188 0.687500
v -0.062500 -0.882812 0.695312
v 0.000000 -0.875000 0.687500
v 0.000000 -0.859375 0.632812
v -0.179688 -0.312500 0.710938
v -0.234375 -0.250000 0.554688
v -0.164062 -0.242188 0.710938
v -0.203125 -0.187500 0.562500
v -0.210938 -0.226562 0.468750
v -0.203125 -0.171875 0.500000
v -0.437500 -0.140625 0.531250
v -0.125000 -0.226562 0.750000
v -0.101562 -0.148438 0.742188
v -0.085938 -0.289062 0.742188
v 0.000000 -0.328125 0.742188
v -0.093750 -0.273438 0.781250
v 0.000000 -0.320312 0.781250
v 0.093750 -0.273438 0.781250
v 0.000000 -0.289062 0.804688
v 0.085938 -0.289062 0.742188
v 0.125000 -0.226562 0.750000
v 0.179688 -0.312500 0.710938
v 0.164062 -0.242188 0.710938
v 0.101562 -0.148438 0.742188
v 0.203125 -0.187500 0.562500
v 0.109375 -0.132812 0.781250
v 0.039062 -0.125000 0.781250
v 0.000000 -0.187500 0.796875
v 0.046875 -0.148438 0.812500
v 0.093750 -0.156250 0.812500
v 0.109375 -0.226562 0.828125
v 0.132812 -0.226562 0.796875
v 0.078125 -0.250000 0.804688
v 0.000000 -0.203125 0.828125
v -0.046875 -0.148438 0.812500
v -0.109375 -0.226562 0.828125
v -0.078125 -0.250000 0.804688
v -0.132812 -0.226562 0.796875
v -0.109375 -0.132812 0.781250
v -0.093750 -0.156250 0.812500
v -0.039062 -0.125000 0.781250
v 0.000000 -0.195312 0.750000
v 0.859375 0.429688 0.593750
v -0.125000 0.304688 0.765625
v -0.164062 0.414062 0.773438
v -0.179688 0.296875 0.781250
v -0.210938 0.375000 0.781250
v -0.273438 0.421875 0.773438
v -0.234375 0.359375 0.757812
v -0.250000 0.468750 0.757812
v -0.195312 0.296875 0.757812
v -0.195312 0.226562 0.750000
v -0.203125 0.617188 0.851562
v -0.328125 0.476562 0.742188
v -0.312500 0.640625 0.835938
v -0.437500 0.546875 0.796875
v -0.320312 0.757812 0.734375
v -0.156250 0.718750 0.757812
v -0.335938 0.687500 0.593750
v -0.335938 0.429688 0.757812
v -0.421875 0.398438 0.773438
v -0.335938 0.406250 0.750000
v -0.281250 0.398438 0.765625
v -0.414062 0.390625 0.750000
v -0.617188 0.054688 0.625000
v -0.796875 0.562500 0.125000
v -0.851562 0.234375 0.054688
v -0.859375 0.320312 -0.046875
v -0.726562 0.000000 -0.070312
v -0.718750 -0.023438 -0.171875
v -0.718750 0.039062 -0.187500
v -0.796875 0.203125 -0.210938
v -0.835938 0.171875 -0.273438
v -0.843750 0.289062 -0.210938
v -0.757812 0.093750 -0.273438
v -0.890625 0.242188 -0.265625
v -0.820312 0.328125 -0.203125
v -0.796875 0.617188 -0.117188
v -0.773438 0.265625 -0.437500
v -0.890625 0.406250 -0.234375
v -0.796875 0.539062 -0.359375
v -0.921875 0.359375 -0.218750
v -0.859375 0.382812 -0.382812
v -1.023438 0.437500 -0.484375
v -0.789062 -0.125000 -0.328125
v -1.023438 0.476562 -0.312500
v -1.039062 -0.085938 -0.492188
v -1.039062 -0.101562 -0.328125
v -1.312500 0.054688 -0.531250
v -1.281250 0.054688 -0.429688
v -1.210938 0.078125 -0.406250
v -1.351562 0.320312 -0.421875
v -1.265625 0.289062 -0.406250
v -1.367188 0.296875 -0.500000
v -1.250000 0.468750 -0.546875
v -1.234375 0.507812 -0.421875
v -1.187500 0.437500 -0.390625
v -1.015625 0.414062 -0.289062
v -1.171875 0.359375 -0.437500
v -1.023438 0.343750 -0.359375
v -0.945312 0.304688 -0.289062
v -1.039062 0.328125 -0.414062
v -0.953125 0.289062 -0.343750
v -0.890625 0.234375 -0.320312
v -1.015625 0.234375 -0.375000
v -0.960938 0.171875 -0.351562
v -1.000000 0.125000 -0.367188
v -0.890625 0.109375 -0.328125
v -0.937500 0.062500 -0.335938
v -1.054688 0.187500 -0.382812
v -0.843750 0.171875 -0.320312
v -0.765625 0.093750 -0.320312
v -0.828125 0.078125 -0.320312
v -0.820312 0.085938 -0.273438
v -0.851562 0.015625 -0.320312
v -0.843750 0.015625 -0.273438
v -0.812500 -0.015625 -0.273438
v -0.812500 -0.015625 -0.320312
v -0.882812 -0.015625 -0.265625
v -0.882812 -0.023438 -0.210938
v -1.046875 0.000000 -0.421875
v -1.039062 0.000000 -0.367188
v -1.031250 -0.039062 -0.304688
v -1.187500 0.093750 -0.445312
v -1.234375 0.250000 -0.445312
v -1.210938 0.085938 -0.484375
v -1.257812 0.242188 -0.492188
v -1.109375 0.210938 -0.390625
v -1.085938 0.273438 -0.390625
v -1.187500 0.343750 -0.484375
v -0.828125 -0.070312 -0.132812
v -0.773438 -0.140625 -0.125000
v -0.640625 -0.007812 -0.429688
v -0.484375 0.023438 -0.546875
v -0.617188 0.328125 -0.585938
v -0.640625 0.679688 -0.445312
v -0.460938 0.437500 -0.703125
v -0.335938 0.054688 -0.664062
v 0.000000 0.070312 -0.828125
v 0.000000 0.562500 -0.851562
v 0.460938 0.437500 -0.703125
v 0.453125 0.867188 -0.382812
v 0.000000 0.898438 -0.546875
v 0.640625 0.679688 -0.445312
v 0.640625 0.750000 -0.195312
v 0.640625 0.703125 0.054688
v 0.453125 0.929688 -0.070312
v -0.453125 0.867188 -0.382812
v -0.453125 0.929688 -0.070312
v -0.640625 0.750000 -0.195312
v -0.640625 0.703125 0.054688
vn -0.6357 0.6811 -0.3633
vn -0.6013 0.5262 0.6013
vn -0.5774 0.5774 0.5774
vn 0.5774 0.5774 0.5774
vn 0.6357 0.6811 -0.3633
vn 0.6013 0.5262 0.6013
vn 0.4338 0.8888 -0.1481
vn -0.4338 0.8888 -0.1481
vn 0.1616 0.1847 0.9694
vn 0.8515 0.3744 -0.3670
vn 0.1702 0.1097 -0.9793
vn 0.2638 0.9462 -0.1871
vn -0.2925 0.5674 0.7697
vn -0.6885 0.3830 0.6158
vn -0.3238 0.9434 -0.0720
vn -0.1548 0.5080 0.8473
vn -0.3669 0.8840 -0.2898
vn -0.2854 0.6237 0.7277
vn -0.1272 0.9658 0.2260
vn 0.1272 0.9658 0.2260
vn 0.1548 0.5080 0.8473
vn 0.2854 0.6237 0.7277
vn 0.6885 0.3830 0.6158
vn 0.3238 0.9434 -0.0720
vn -0.2638 0.9462 -0.1871
vn 0.3669 0.8840 -0.2898
vn 0.2925 0.5674 0.7697
vn 0.3653 0.8833 -0.2938
vn 0.2901 0.9141 -0.2833
vn 0.3231 0.9288 -0.1817
vn 0.4951 0.8618 -0.1100
vn 0.8681 0.0893 -0.4883
vn 0.0452 0.7955 0.6043
vn 0.9276 0.0762 0.3657
vn 0.9340 0.2255 0.2773
vn 0.7964 0.1323 -0.5901
vn 0.5108 -0.6649 -0.5450
vn 0.6869 -0.6358 0.3521
vn 0.9166 -0.3740 0.1414
vn 0.3986 -0.8754 0.2734
vn 0.9046 -0.3869 -0.1792
vn 0.7507 -0.6131 -0.2461
vn 0.3723 -0.9243 0.0847
vn 0.6302 -0.7658 0.1282
vn 0.9972 -0.0181 -0.0725
vn 0.9227 -0.3765 -0.0825
vn 0.9042 -0.3578 -0.2332
vn 0.8717 -0.4446 -0.2063
vn 0.5815 -0.5217 0.6243
vn 0.5534 -0.5534 0.6225
vn 0.9008 -0.4075 0.1501
vn 0.1712 -0.0934 0.9808
vn 0.5724 -0.3122 0.7582
vn 0.9551 -0.1636 -0.2470
vn 0.9613 0.1472 -0.2330
vn 0.9956 0.0893 -0.0288
vn -0.8073 0.5901 0.0041
vn 0.9817 -0.0304 -0.1882
vn -0.7330 0.6786 0.0472
vn 0.0400 0.3399 0.9396
vn 0.1782 -0.0891 0.9800
vn -0.4841 0.8743 -0.0361
vn -0.4196 0.8851 -0.2012
vn -0.5256 -0.0030 -0.8507
vn 0.6844 -0.1711 -0.7088
vn -0.5470 -0.0144 -0.8370
vn 0.5161 -0.8527 -0.0812
vn 0.0929 -0.9912 -0.0944
vn -0.1466 0.0104 -0.9891
vn 0.4688 -0.8715 0.1442
vn 0.9309 -0.2541 0.2624
vn 0.2076 -0.0836 0.9746
vn 0.2925 -0.0758 0.9533
vn 0.3398 0.0824 0.9369
vn 0.9264 -0.2460 0.2851
vn 0.8267 0.5627 -0.0035
vn 0.4046 0.0266 -0.9141
vn -0.2146 0.9243 -0.3157
vn 0.8465 0.5291 -0.0595
vn -0.2556 -0.0749 -0.9639
vn -0.2511 0.9439 -0.2145
vn 0.4467 0.0975 0.8894
vn 0.3188 0.1993 0.9266
vn 0.4649 0.2593 0.8465
vn 0.4663 -0.5991 0.6509
vn 0.1817 -0.0079 0.9833
vn -0.5257 -0.3579 0.7717
vn 0.4390 -0.5252 0.7290
vn 0.7104 -0.4567 0.5356
vn 0.2714 -0.9022 0.3353
vn 0.6266 -0.7211 0.2956
vn 0.6197 -0.6899 0.3742
vn 0.6895 -0.6644 0.2883
vn 0.3787 -0.0364 0.9248
vn 0.5679 0.1916 0.8005
vn 0.4244 -0.0320 0.9049
vn 0.2570 0.0723 0.9637
vn 0.2461 0.0852 0.9655
vn 0.3228 -0.0461 0.9453
vn 0.4134 0.0413 0.9096
vn 0.3009 0.0926 0.9491
vn 0.2530 -0.1897 0.9487
vn 0.7930 -0.5947 0.1322
vn 0.7022 -0.7022 0.1170
vn -0.0000 -0.0000 1.0000
vn 0.1351 -0.0225 0.9906
vn 0.2408 0.9631 -0.1204
vn 0.9435 0.3145 0.1048
vn 0.9251 0.3469 0.1542
vn 0.1046 0.0392 0.9937
vn 0.7071 -0.7071 -0.0000
vn 0.4480 -0.4480 0.7737
vn 0.5313 0.5844 0.6134
vn 0.6213 -0.7767 0.1036
vn -0.0000 1.0000 -0.0000
vn -0.4870 0.6088 0.6262
vn -0.0157 0.9898 0.1414
vn -0.0071 0.9899 0.1414
vn -0.1096 0.9939 -0.0157
vn 0.6693 0.1802 0.7208
vn -0.2981 0.7454 0.5963
vn 0.4075 0.7506 0.5201
vn -0.2675 0.8318 0.4864
vn -0.2655 0.8296 0.4911
vn -0.5621 0.8231 -0.0803
vn -0.7885 0.2366 0.5677
vn -0.8096 0.2429 -0.5343
vn -0.5433 0.6985 -0.4657
vn -0.8538 0.2328 -0.4657
vn 0.5786 -0.1334 0.8046
vn 0.4388 -0.2008 0.8759
vn 0.2975 -0.4062 0.8640
vn 0.1220 0.0458 0.9915
vn 0.5771 0.2164 0.7875
vn 0.5002 0.2833 0.8182
vn -0.8651 -0.4853 -0.1266
vn 0.2752 -0.8808 0.3853
vn 0.2980 0.5802 0.7580
vn -0.7929 -0.5252 -0.3089
vn -0.0099 0.3867 0.9221
vn 0.2104 0.0124 0.9775
vn -0.5242 -0.3548 0.7742
vn -0.8576 0.2223 0.4637
vn 0.5847 -0.2198 0.7809
vn 0.6509 -0.1939 0.7340
vn 0.4843 0.5580 0.6738
vn -0.2175 0.2733 0.9370
vn 0.5957 -0.3850 0.7049
vn -0.2335 0.8972 0.3749
vn 0.2734 0.9064 0.3221
vn 0.0931 -0.9932 -0.0692
vn -0.0687 -0.9943 -0.0818
vn -0.1788 0.2923 0.9395
vn 0.4723 -0.1986 0.8588
vn 0.5571 -0.1486 0.8171
vn 0.7177 0.1689 0.6755
vn 0.1738 0.0097 0.9847
vn 0.1240 0.9921 0.0207
vn 0.7661 -0.6363 0.0909
vn 0.7815 -0.6176 0.0882
vn 0.6888 -0.4428 0.5740
vn 0.5597 -0.5533 0.6169
vn 0.6138 -0.2571 0.7465
vn 0.3691 0.2855 0.8844
vn 0.3244 0.4867 0.8111
vn -0.3604 -0.8283 -0.4290
vn 0.4200 -0.2291 -0.8781
vn 0.5881 -0.3070 -0.7483
vn 0.2144 -0.8341 -0.5082
vn 0.5236 -0.3290 -0.7859
vn 0.4463 -0.8452 -0.2941
vn 0.6374 -0.7651 0.0915
vn 0.6973 -0.6610 -0.2771
vn 0.3720 -0.9244 0.0845
vn 0.7365 -0.6154 -0.2808
vn 0.3727 -0.4759 -0.7966
vn 0.4972 -0.4408 -0.7473
vn 0.2986 -0.8236 -0.4821
vn 0.3263 -0.8342 -0.4446
vn -0.2986 -0.8236 -0.4821
vn 0.2620 -0.9574 -0.1217
vn -0.2620 -0.9574 -0.1217
vn -0.3263 -0.8342 -0.4446
vn -0.2995 -0.9442 -0.1368
vn 0.2995 -0.9442 -0.1368
vn -0.2996 -0.9443 -0.1362
vn -0.7466 -0.6646 0.0285
vn -0.8642 -0.4737 0.1696
vn -0.7325 -0.6368 0.2407
vn -0.3720 -0.9244 0.0845
vn -0.6374 -0.7651 0.0915
vn -0.3723 -0.9243 0.0847
vn -0.3986 -0.8754 0.2734
vn -0.5281 -0.8354 0.1522
vn -0.6328 -0.7642 0.1247
vn -0.6869 -0.6358 0.3521
vn -0.5108 -0.6649 -0.5450
vn -0.5442 -0.7524 -0.3712
vn -0.3695 -0.8566 -0.3601
vn -0.7028 -0.3915 0.5939
vn -0.6872 -0.4191 0.5934
vn -0.8873 0.1343 -0.4412
vn -0.7964 0.1323 -0.5901
vn -0.3231 0.9288 -0.1817
vn -0.2901 0.9141 -0.2833
vn -0.2760 0.9159 -0.2915
vn -0.8681 0.0893 -0.4883
vn -0.5091 0.6482 0.5663
vn -0.8227 0.3606 0.4395
vn -0.3127 0.3425 0.8860
vn -0.3714 0.8685 -0.3284
vn -0.3653 0.8833 -0.2938
vn -0.1687 -0.3128 0.9347
vn -0.5537 -0.2978 0.7777
vn -0.0279 -0.8645 0.5019
vn -0.0547 -0.1695 0.9840
vn 0.0899 -0.7843 0.6138
vn -0.4082 0.4082 0.8165
vn -0.5657 0.1197 0.8159
vn -0.5774 0.1155 0.8083
vn 0.2692 -0.0577 0.9614
vn -0.5378 -0.1144 0.8353
vn -0.5871 -0.0839 0.8052
vn 0.3356 -0.2397 0.9110
vn 0.4568 0.0508 0.8881
vn 0.3707 -0.2851 0.8839
vn 0.0247 0.4072 0.9130
vn 0.2797 0.5245 0.8042
vn 0.0213 0.5546 0.8319
vn -0.3900 -0.5895 0.7074
vn -0.4242 -0.6211 0.6590
vn -0.6547 -0.4589 0.6007
vn 0.0487 0.6815 0.7302
vn -0.3378 0.5221 0.7831
vn -0.4988 0.5300 0.6858
vn -0.3778 0.6342 0.6746
vn -0.7868 0.1210 0.6052
vn 0.4681 -0.2239 0.8548
vn 0.4332 -0.4874 0.7581
vn 0.5488 -0.3293 0.7683
vn 0.6684 -0.4595 0.5849
vn -0.4284 0.1494 0.8911
vn 0.1598 0.3903 0.9067
vn 0.1156 -0.6359 0.7631
vn -0.0000 -0.4472 0.8944
vn 0.0317 -0.1899 0.9813
vn 0.1599 -0.8797 0.4478
vn -0.0317 -0.1899 0.9813
vn -0.0066 -0.2316 0.9728
vn -0.5059 0.0716 0.8596
vn -0.1598 0.3903 0.9067
vn 0.5059 0.0716 0.8596
vn 0.0066 -0.2316 0.9728
vn -0.1156 -0.6359 0.7631
vn 0.4284 0.1494 0.8911
vn -0.4332 -0.4874 0.7581
vn -0.6684 -0.4595 0.5849
vn -0.1599 -0.8797 0.4478
vn 0.3900 -0.5895 0.7074
vn 0.3778 0.6342 0.6746
vn -0.0213 0.5546 0.8319
vn 0.3378 0.5221 0.7831
vn 0.4988 0.5300 0.6858
vn 0.7868 0.1210 0.6052
vn 0.7814 0.1116 0.6140
vn -0.4945 -0.1130 0.8618
vn -0.4681 -0.2239 0.8548
vn 0.8070 -0.0807 0.5851
vn -0.2710 0.0271 0.9622
vn -0.1717 -0.0090 0.9851
vn 0.6819 -0.2915 0.6709
vn 0.2623 -0.3498 0.8994
vn 0.1854 -0.4956 0.8485
vn 0.0585 -0.0781 0.9952
vn -0.2595 0.1038 0.9601
vn 0.0301 0.2306 0.9726
vn 0.7895 -0.3158 0.5263
vn 0.4475 -0.4699 0.7608
vn -0.0870 0.2756 0.9573
vn 0.5425 -0.3391 0.7686
vn 0.8305 -0.0615 0.5536
vn 0.5070 -0.6281 0.5903
vn 0.5364 -0.3230 0.7797
vn 0.2226 -0.4694 0.8545
vn 0.1452 0.3774 0.9146
vn 0.2181 -0.4685 0.8561
vn 0.6155 0.4924 0.6155
vn -0.0486 0.6560 0.7532
vn -0.1073 -0.5010 0.8588
vn 0.5977 0.5565 0.5771
vn -0.0371 0.6685 0.7428
vn -0.2664 0.8710 -0.4127
vn -0.7104 0.2715 0.6494
vn -0.8507 0.3650 -0.3783
vn -0.1702 0.1097 -0.9793
vn -0.8515 0.3744 -0.3670
vn -0.1782 0.0891 -0.9800
vn -0.2197 0.8626 -0.4557
vn 0.5932 0.7445 -0.3063
vn 0.5914 0.7489 -0.2991
vn 0.3714 0.8685 -0.3284
vn 0.5091 0.6482 0.5663
vn 0.5041 0.6448 0.5745
vn 0.8227 0.3606 0.4395
vn 0.0279 -0.8645 0.5019
vn -0.0770 -0.5759 0.8139
vn -0.0899 -0.7843 0.6138
vn 0.3358 0.3478 0.8754
vn -0.0348 -0.5792 0.8144
vn 0.4082 0.4082 0.8165
vn 0.5214 0.6574 0.5441
vn 0.1796 0.7882 0.5886
vn 0.1881 0.3387 0.9219
vn -0.3766 -0.8339 0.4035
vn 0.2627 -0.2252 0.9382
vn -0.0631 -0.3156 0.9468
vn 0.3015 -0.3015 0.9045
vn -0.2016 -0.9071 0.3696
vn -0.3356 -0.2397 0.9110
vn 0.0823 -0.7822 0.6175
vn -0.3707 -0.2851 0.8839
vn 0.5871 -0.0839 0.8052
vn 0.5657 0.1197 0.8159
vn -0.2692 -0.0577 0.9614
vn 0.5378 -0.1144 0.8353
vn 0.5774 0.1155 0.8083
vn -0.4568 0.0508 0.8881
vn -0.0247 0.4072 0.9130
vn -0.2797 0.5245 0.8042
vn -0.0487 0.6815 0.7302
vn 0.4260 -0.0609 0.9027
vn 0.4350 -0.1812 0.8820
vn 0.4767 -0.3557 0.8039
vn 0.3352 -0.1828 0.9243
vn 0.4177 -0.5751 0.7034
vn 0.6947 -0.4197 0.5841
vn 0.3223 -0.2762 0.9054
vn 0.4027 -0.7323 -0.5492
vn 0.3557 -0.7290 0.5848
vn 0.5442 -0.7524 -0.3712
vn 0.6872 -0.4191 0.5934
vn 0.3695 -0.8566 -0.3601
vn 0.1835 -0.7864 -0.5898
vn 0.5281 -0.8354 0.1522
vn 0.2637 -0.4499 0.8533
vn 0.6328 -0.7642 0.1247
vn 0.3070 -0.5237 0.7946
vn 0.9337 0.2813 -0.2215
vn 0.9173 0.3440 -0.2007
vn 0.9457 0.2673 -0.1850
vn 0.8305 0.3333 -0.4463
vn 0.8642 -0.4737 0.1696
vn 0.7325 -0.6368 0.2407
vn 0.1649 -0.6644 -0.7289
vn 0.3287 -0.9163 -0.2291
vn 0.3706 -0.6780 -0.6349
vn 0.9094 0.1371 -0.3927
vn 0.2996 -0.9443 -0.1362
vn 0.9193 0.1393 -0.3682
vn 0.9278 0.1838 -0.3246
vn 0.2192 0.0766 -0.9727
vn 0.9202 0.1355 -0.3672
vn 0.7471 0.1132 0.6550
vn 0.8069 0.0689 0.5866
vn 0.7357 0.3910 0.5531
vn 0.9004 0.3642 -0.2380
vn 0.7563 -0.0299 0.6535
vn 0.3273 -0.1432 0.9340
vn 0.3288 -0.0360 0.9437
vn 0.3233 -0.0808 0.9429
vn 0.3128 -0.1662 0.9352
vn -0.1751 -0.2043 0.9631
vn 0.1783 -0.4161 0.8917
vn -0.0043 -0.0651 0.9979
vn -0.0000 -0.0665 0.9978
vn 0.0043 -0.0651 0.9979
vn 0.1751 -0.2043 0.9631
vn -0.3128 -0.1662 0.9352
vn -0.3273 -0.1432 0.9340
vn -0.3233 -0.0808 0.9429
vn -0.1783 -0.4161 0.8917
vn -0.7563 -0.0299 0.6535
vn -0.7471 0.1132 0.6550
vn -0.8069 0.0689 0.5866
vn -0.3288 -0.0360 0.9437
vn -0.7357 0.3910 0.5531
vn -0.9193 0.1393 -0.3682
vn -0.9004 0.3642 -0.2380
vn -0.9202 0.1355 -0.3672
vn -0.2192 0.0766 -0.9727
vn -0.9278 0.1838 -0.3246
vn -0.3706 -0.6780 -0.6349
vn -0.9094 0.1371 -0.3927
vn -0.1649 -0.6644 -0.7289
vn -0.3617 -0.3858 -0.8487
vn -0.3011 -0.0125 -0.9535
vn -0.1132 -0.0274 -0.9932
vn -0.1952 -0.0976 -0.9759
vn -0.2562 -0.3112 -0.9152
vn 0.1497 -0.3635 -0.9195
vn -0.1211 -0.0530 -0.9912
vn -0.1260 -0.9624 -0.2406
vn -0.8150 -0.5621 -0.1405
vn -0.9396 0.1573 -0.3041
vn -0.5959 -0.4256 0.6810
vn -0.7763 -0.0633 0.6272
vn -0.5788 -0.5049 0.6404
vn -0.9358 0.1396 -0.3236
vn -0.1322 -0.5947 0.7930
vn -0.1916 -0.8620 0.4693
vn -0.2303 -0.8656 0.4447
vn -0.3143 -0.3928 0.8642
vn -0.1367 -0.8748 0.4648
vn -0.0779 -0.9948 -0.0663
vn -0.1094 -0.9718 -0.2089
vn -0.1533 -0.9649 -0.2134
vn 0.1533 -0.9649 -0.2134
vn -0.0107 -0.5633 -0.8262
vn 0.0107 -0.5633 -0.8262
vn 0.0779 -0.9948 -0.0663
vn 0.1367 -0.8748 0.4648
vn 0.1916 -0.8620 0.4693
vn 0.1094 -0.9718 -0.2089
vn 0.2303 -0.8656 0.4447
vn 0.5788 -0.5049 0.6404
vn 0.1322 -0.5947 0.7930
vn 0.3143 -0.3928 0.8642
vn 0.5959 -0.4256 0.6810
vn 0.8150 -0.5621 -0.1405
vn 0.7763 -0.0633 0.6272
vn 0.9358 0.1396 -0.3236
vn 0.9396 0.1573 -0.3041
vn 0.1260 -0.9624 -0.2406
vn -0.1497 -0.3635 -0.9195
vn 0.1211 -0.0530 -0.9912
vn 0.2562 -0.3112 -0.9152
vn 0.1952 -0.0976 -0.9759
vn 0.1132 -0.0274 -0.9932
vn 0.3011 -0.0125 -0.9535
vn 0.1054 -0.8433 0.5270
vn 0.1008 -0.7103 0.6966
vn 0.2404 -0.5476 0.8014
vn -0.1562 0.3123 0.9370
vn -0.0136 -0.6507 0.7592
vn -0.1219 -0.1829 0.9755
vn -0.4472 -0.0000 0.8944
vn -0.1296 -0.1945 0.9723
vn -1.0000 -0.0000 -0.0000
vn -0.7238 0.6857 0.0762
vn 0.3051 -0.9450 0.1181
vn 0.1353 -0.3479 0.9277
vn 0.0217 -0.3031 0.9527
vn 0.2524 -0.8655 0.4327
vn -0.2524 -0.8655 0.4327
vn -0.3051 -0.9450 0.1181
vn -0.1353 -0.3479 0.9277
vn 1.0000 -0.0000 -0.0000
vn -0.0217 -0.3031 0.9527
vn 0.1296 -0.1945 0.9723
vn 0.1219 -0.1829 0.9755
vn 0.7238 0.6857 0.0762
vn 0.4472 -0.0000 0.8944
vn 0.1562 0.3123 0.9370
vn 0.0136 -0.6507 0.7592
vn -0.2404 -0.5476 0.8014
vn -0.1008 -0.7103 0.6966
vn 0.1582 0.9494 0.2713
vn 0.6463 0.7337 0.2096
vn -0.1582 0.9494 0.2713
vn 0.0478 -0.2870 0.9567
vn -0.0478 -0.2870 0.9567
vn -0.6463 0.7337 0.2096
vn -0.1054 -0.8433 0.5270
vn 0.3617 -0.3858 -0.8487
vn -0.8305 0.3333 -0.4463
vn -0.9337 0.2813 -0.2215
vn -0.8480 0.3180 0.4240
vn -0.8753 0.2059 0.4376
vn -0.9173 0.3440 -0.2007
vn -0.8505 0.3798 0.3638
vn -0.8973 0.1994 0.3938
vn -0.8945 0.4337 0.1084
vn -0.9501 0.2455 -0.1922
vn -0.9457 0.2673 -0.1850
vn -0.2637 -0.4499 0.8533
vn -0.1596 -0.9577 -0.2394
vn -0.1835 -0.7864 -0.5898
vn -0.3557 -0.7290 0.5848
vn -0.2334 -0.7779 0.5834
vn -0.4027 -0.7323 -0.5492
vn -0.3070 -0.5237 0.7946
vn -0.9586 0.0664 0.2767
vn -0.3747 -0.8345 0.4040
vn 0.5774 -0.5774 0.5774
vn -0.5460 -0.4310 0.7184
vn -0.7325 0.2817 0.6198
vn -0.3319 0.0738 0.9404
vn -0.4071 -0.8956 0.1791
vn 0.0232 0.0511 0.9984
vn -0.3231 0.0311 0.9459
vn -0.4319 -0.8639 0.2592
vn -0.8447 -0.5335 0.0445
vn 0.4071 -0.8956 0.1791
vn 0.4319 -0.8639 0.2592
vn 0.2873 -0.5747 0.7663
vn -0.2873 -0.5747 0.7663
vn 0.3231 0.0311 0.9459
vn -0.0232 0.0511 0.9984
vn 0.5460 -0.4310 0.7184
vn 0.8447 -0.5335 0.0445
vn 0.3319 0.0738 0.9404
vn 0.7325 0.2817 0.6198
vn 0.9586 0.0664 0.2767
vn -0.5774 -0.5774 0.5774
vn 0.8973 0.1994 0.3938
vn 0.8505 0.3798 0.3638
vn 0.3747 -0.8345 0.4040
vn 0.2334 -0.7779 0.5834
vn 0.1596 -0.9577 -0.2394
vn 0.8945 0.4337 0.1084
vn 0.9256 0.2492 -0.2848
vn 0.1018 0.9165 -0.3870
vn -0.0631 -0.8206 0.5681
vn 0.0693 0.9004 -0.4294
vn -0.6905 0.5492 0.4708
vn 0.0862 0.7759 0.6250
vn -0.6326 0.5353 0.5596
vn 0.1348 0.8086 0.5727
vn 0.0375 0.2247 0.9737
vn 0.7532 0.2870 0.5918
vn 0.7639 0.2971 0.5729
vn 0.9635 0.2141 -0.1606
vn 0.7826 -0.6087 -0.1304
vn 0.3416 -0.5409 0.7686
vn 0.4116 -0.8575 0.3087
vn 0.1304 -0.2609 0.9565
vn -0.1304 -0.6087 0.7826
vn 0.6667 0.6667 0.3333
vn -0.6667 0.6667 0.3333
vn 0.0502 0.2343 0.9709
vn -0.0502 0.2343 0.9709
vn 0.1304 -0.6087 0.7826
vn -0.1304 -0.2609 0.9565
vn -0.3416 -0.5409 0.7686
vn -0.4116 -0.8575 0.3087
vn -0.7826 -0.6087 -0.1304
vn -0.9635 0.2141 -0.1606
vn -0.7532 0.2870 0.5918
vn -0.7639 0.2971 0.5729
vn -0.0862 0.7759 0.6250
vn -0.1348 0.8086 0.5727
vn -0.0375 0.2247 0.9737
vn -0.1018 0.9165 -0.3870
vn -0.0693 0.9004 -0.4294
vn 0.6905 0.5492 0.4708
vn 0.6326 0.5353 0.5596
vn -0.9256 0.2492 -0.2848
vn 0.8753 0.2059 0.4376
vn 0.2815 0.0662 0.9573
vn 0.8480 0.3180 0.4240
vn -0.0000 0.0665 0.9978
vn 0.0631 -0.8206 0.5681
vn -0.2815 0.0662 0.9573
vn -0.2821 -0.0164 0.9592
vn 0.2821 -0.0164 0.9592
vn -0.3287 -0.9163 -0.2291
vn 0.9501 0.2455 -0.1922
vn 0.4242 -0.6211 0.6590
vn 0.3579 -0.3068 0.8819
vn 0.6547 -0.4589 0.6007
vn 0.7028 -0.3915 0.5939
vn 0.1687 -0.3128 0.9347
vn 0.5537 -0.2978 0.7777
vn 0.8873 0.1343 -0.4412
vn 0.3127 0.3425 0.8860
vn 0.2760 0.9159 -0.2915
vn 0.0547 -0.1695 0.9840
vn 0.0829 -0.2902 0.9534
vn -0.7386 0.3768 0.5590
vn 0.0585 -0.0845 0.9947
vn -0.5488 -0.3293 0.7683
vn -0.2623 -0.3498 0.8994
vn -0.0585 -0.0845 0.9947
vn -0.0585 -0.0781 0.9952
vn -0.1854 -0.4956 0.8485
vn 0.1717 -0.0090 0.9851
vn -0.6819 -0.2915 0.6709
vn 0.4945 -0.1130 0.8618
vn 0.2595 0.1038 0.9601
vn 0.2710 0.0271 0.9622
vn -0.7895 -0.3158 0.5263
vn -0.0301 0.2306 0.9726
vn -0.4475 -0.4699 0.7608
vn 0.0870 0.2756 0.9573
vn -0.5425 -0.3391 0.7686
vn -0.8305 -0.0615 0.5536
vn -0.8070 -0.0807 0.5851
vn -0.7814 0.1116 0.6140
vn -0.2226 -0.4694 0.8545
vn -0.5364 -0.3230 0.7797
vn -0.5070 -0.6281 0.5903
vn -0.1452 0.3774 0.9146
vn -0.2181 -0.4685 0.8561
vn 0.1073 -0.5010 0.8588
vn -0.5977 0.5565 0.5771
vn 0.0486 0.6560 0.7532
vn -0.6155 0.4924 0.6155
vn 0.0371 0.6685 0.7428
vn 0.7104 0.2715 0.6494
vn 0.2664 0.8710 -0.4127
vn 0.8507 0.3650 -0.3783
vn -0.5932 0.7445 -0.3063
vn 0.2197 0.8626 -0.4557
vn 0.1782 0.0891 -0.9800
vn -0.5914 0.7489 -0.2991
vn 0.0770 -0.5759 0.8139
vn -0.5041 0.6448 0.5745
vn 0.0348 -0.5792 0.8144
vn -0.3358 0.3478 0.8754
vn -0.1881 0.3387 0.9219
vn 0.3766 -0.8339 0.4035
vn -0.1796 0.7882 0.5886
vn -0.2627 -0.2252 0.9382
vn 0.0631 -0.3156 0.9468
vn -0.3015 -0.3015 0.9045
vn 0.2016 -0.9071 0.3696
vn -0.0829 -0.2902 0.9534
vn -0.0823 -0.7822 0.6175
vn -0.5214 0.6574 0.5441
vn 0.7386 0.3768 0.5590
vn -0.3223 -0.2762 0.9054
vn -0.4177 -0.5751 0.7034
vn -0.3579 -0.3068 0.8819
vn -0.6947 -0.4197 0.5841
vn -0.4350 -0.1812 0.8820
vn -0.3352 -0.1828 0.9243
vn -0.4767 -0.3557 0.8039
vn -0.4260 -0.0609 0.9027
vn -0.0452 0.7955 0.6043
vn -0.4951 0.8618 -0.1100
vn -0.9276 0.0762 0.3657
vn -0.9340 0.2255 0.2773
vn -0.9046 -0.3869 -0.1792
vn -0.9166 -0.3740 0.1414
vn -0.9758 0.1241 0.1800
vn -0.9042 -0.3578 -0.2332
vn -0.9972 -0.0181 -0.0725
vn -0.6302 -0.7658 0.1282
vn -0.7507 -0.6131 -0.2461
vn -0.9227 -0.3765 -0.0825
vn -0.8717 -0.4446 -0.2063
vn -0.9008 -0.4075 0.1501
vn -0.5534 -0.5534 0.6225
vn -0.5815 -0.5217 0.6243
vn -0.5724 -0.3122 0.7582
vn -0.1712 -0.0934 0.9808
vn -0.9551 -0.1636 -0.2470
vn -0.9613 0.1472 -0.2330
vn -0.9956 0.0893 -0.0288
vn 0.8073 0.5901 0.0041
vn -0.9817 -0.0304 -0.1882
vn -0.1782 -0.0891 0.9800
vn 0.7330 0.6786 0.0472
vn -0.0400 0.3399 0.9396
vn 0.5256 -0.0030 -0.8507
vn 0.4196 0.8851 -0.2012
vn 0.4841 0.8743 -0.0361
vn -0.6844 -0.1711 -0.7088
vn 0.5470 -0.0144 -0.8370
vn -0.0929 -0.9912 -0.0944
vn -0.5161 -0.8527 -0.0812
vn 0.1466 0.0104 -0.9891
vn -0.4688 -0.8715 0.1442
vn -0.3398 0.0824 0.9369
vn -0.2925 -0.0758 0.9533
vn -0.9309 -0.2541 0.2624
vn -0.2076 -0.0836 0.9746
vn -0.9264 -0.2460 0.2851
vn -0.4046 0.0266 -0.9141
vn -0.8267 0.5627 -0.0035
vn -0.8465 0.5291 -0.0595
vn 0.2146 0.9243 -0.3157
vn 0.2556 -0.0749 -0.9639
vn -0.3188 0.1993 0.9266
vn -0.4467 0.0975 0.8894
vn 0.2511 0.9439 -0.2145
vn -0.4663 -0.5991 0.6509
vn -0.4649 0.2593 0.8465
vn 0.5257 -0.3579 0.7717
vn -0.1817 -0.0079 0.9833
vn -0.4390 -0.5252 0.7290
vn -0.2714 -0.9022 0.3353
vn -0.7104 -0.4567 0.5356
vn -0.6266 -0.7211 0.2956
vn -0.6197 -0.6899 0.3742
vn -0.3787 -0.0364 0.9248
vn -0.6895 -0.6644 0.2883
vn -0.5679 0.1916 0.8005
vn -0.4244 -0.0320 0.9049
vn -0.3228 -0.0461 0.9453
vn -0.4134 0.0413 0.9096
vn -0.2461 0.0852 0.9655
vn -0.2570 0.0723 0.9637
vn -0.3009 0.0926 0.9491
vn -0.2530 -0.1897 0.9487
vn -0.7930 -0.5947 0.1322
vn -0.7022 -0.7022 0.1170
vn -0.1351 -0.0225 0.9906
vn -0.2408 0.9631 -0.1204
vn -0.9435 0.3145 0.1048
vn -0.1046 0.0392 0.9937
vn -0.9251 0.3469 0.1542
vn -0.5313 0.5844 0.6134
vn -0.4480 -0.4480 0.7737
vn -0.7071 -0.7071 -0.0000
vn -0.6213 -0.7767 0.1036
vn 0.4870 0.6088 0.6262
vn 0.0071 0.9899 0.1414
vn 0.0157 0.9898 0.1414
vn -0.6693 0.1802 0.7208
vn 0.1096 0.9939 -0.0157
vn 0.2981 0.7454 0.5963
vn -0.4075 0.7506 0.5201
vn 0.2675 0.8318 0.4864
vn 0.5621 0.8231 -0.0803
vn 0.2655 0.8296 0.4911
vn 0.7885 0.2366 0.5677
vn 0.8096 0.2429 -0.5343
vn 0.5433 0.6985 -0.4657
vn -0.5786 -0.1334 0.8046
vn 0.8538 0.2328 -0.4657
vn -0.4388 -0.2008 0.8759
vn -0.2975 -0.4062 0.8640
vn -0.5771 0.2164 0.7875
vn -0.1220 0.0458 0.9915
vn -0.5002 0.2833 0.8182
vn -0.2980 0.5802 0.7580
vn -0.2752 -0.8808 0.3853
vn 0.8651 -0.4853 -0.1266
vn 0.7929 -0.5252 -0.3089
vn -0.2104 0.0124 0.9775
vn 0.0099 0.3867 0.9221
vn 0.8576 0.2223 0.4637
vn 0.5242 -0.3548 0.7742
vn -0.6509 -0.1939 0.7340
vn -0.5847 -0.2198 0.7809
vn -0.4843 0.5580 0.6738
vn 0.2175 0.2733 0.9370
vn -0.5957 -0.3850 0.7049
vn 0.2335 0.8972 0.3749
vn -0.2734 0.9064 0.3221
vn -0.0931 -0.9932 -0.0692
vn 0.1788 0.2923 0.9395
vn 0.0687 -0.9943 -0.0818
vn -0.5571 -0.1486 0.8171
vn -0.4723 -0.1986 0.8588
vn -0.7177 0.1689 0.6755
vn -0.1738 0.0097 0.9847
vn -0.1240 0.9921 0.0207
vn -0.7815 -0.6176 0.0882
vn -0.7661 -0.6363 0.0909
vn -0.5597 -0.5533 0.6169
vn -0.6888 -0.4428 0.5740
vn -0.6138 -0.2571 0.7465
vn -0.3244 0.4867 0.8111
vn -0.3691 0.2855 0.8844
vn 0.3604 -0.8283 -0.4290
vn -0.4200 -0.2291 -0.8781
vn -0.2144 -0.8341 -0.5082
vn -0.5236 -0.3290 -0.7859
vn -0.5881 -0.3070 -0.7483
vn -0.4463 -0.8452 -0.2941
vn -0.6823 0.2318 -0.6933
vn -0.6304 0.2517 -0.7343
vn -0.7104 0.1364 -0.6904
vn -0.4694 -0.2400 -0.8498
vn -0.5396 -0.3343 -0.7727
vn -0.4972 -0.4408 -0.7473
vn -0.3727 -0.4759 -0.7966
vn -0.3693 -0.4712 -0.8010
vn -0.4189 -0.2265 -0.8793
vn 0.3693 -0.4712 -0.8010
vn 0.4189 -0.2265 -0.8793
vn -0.2950 -0.0454 -0.9544
vn 0.2950 -0.0454 -0.9544
vn 0.3878 0.6192 -0.6828
vn 0.4694 -0.2400 -0.8498
vn 0.3179 0.5704 -0.7574
vn 0.3140 0.5711 -0.7585
vn 0.6823 0.2318 -0.6933
vn 0.6574 0.7254 -0.2040
vn 0.7125 0.6755 -0.1900
vn 0.6304 0.2517 -0.7343
vn 0.7289 0.6729 0.1262
vn 0.5966 0.7888 0.1479
vn 0.6935 0.6857 -0.2212
vn 0.6289 0.7624 -0.1525
vn 0.7088 0.6833 0.1752
vn 0.1119 0.9626 0.2468
vn 0.1208 0.9734 -0.1947
vn 0.7791 0.4074 0.4764
vn 0.2561 0.6447 0.7202
vn 0.6144 0.7696 0.1738
vn -0.1320 0.9750 -0.1788
vn 0.1320 0.9750 -0.1788
vn -0.3140 0.5711 -0.7585
vn -0.3878 0.6192 -0.6828
vn -0.6289 0.7624 -0.1525
vn -0.1208 0.9734 -0.1947
vn -0.3179 0.5704 -0.7574
vn -0.6574 0.7254 -0.2040
vn -0.6935 0.6857 -0.2212
vn -0.5966 0.7888 0.1479
vn -0.7289 0.6729 0.1262
vn -0.7125 0.6755 -0.1900
vn -0.6144 0.7696 0.1738
vn -0.2561 0.6447 0.7202
vn -0.7791 0.4074 0.4764
vn -0.7088 0.6833 0.1752
vn -0.1119 0.9626 0.2468
vn -0.7365 -0.6154 -0.2808
vn -0.9750 0.2169 0.0490
vn -0.6973 -0.6610 -0.2771
vn 0.7466 -0.6646 0.0285
vn 0.5396 -0.3343 -0.7727
vn 0.7104 0.1364 -0.6904
vn 0.9750 0.2169 0.0490
vn 0.9758 0.1241 0.1800
vn -0.1616 0.1847 0.9694
vt 0.500000 0.382860
vt 0.532016 0.387365
vt 0.529647 0.428636
vt 0.539817 0.354339
vt 0.500000 0.340417
vt 0.460183 0.354339
vt 0.470353 0.428636
vt 0.467984 0.387365
vt 0.500000 0.428636
vt 0.175235 0.470987
vt 0.207859 0.464714
vt 0.204362 0.489991
vt 0.415384 0.428636
vt 0.257819 0.461543
vt 0.255481 0.390057
vt 0.227737 0.374010
vt 0.233887 0.319494
vt 0.155683 0.347370
vt 0.275237 0.340212
vt 0.100193 0.420886
vt 0.041037 0.357385
vt 0.844317 0.347370
vt 0.958963 0.357385
vt 0.899807 0.420886
vt 0.772263 0.374010
vt 0.824765 0.470987
vt 0.766113 0.319494
vt 0.724763 0.340212
vt 0.792141 0.464714
vt 0.744519 0.390057
vt 0.671357 0.334694
vt 0.701481 0.344467
vt 0.666214 0.388954
vt 0.712163 0.315527
vt 0.744725 0.304629
vt 0.704305 0.260225
vt 0.793427 0.280495
vt 0.766410 0.233065
vt 0.689501 0.268805
vt 0.672947 0.224880
vt 0.743592 0.198572
vt 0.691484 0.146686
vt 0.770208 0.191225
vt 0.780113 0.169386
vt 0.786150 0.181127
vt 0.789609 0.184671
vt 0.797710 0.195652
vt 0.786137 0.227788
vt 0.391578 0.815187
vt 0.427719 0.796173
vt 0.448277 0.830976
vt 0.422979 0.754609
vt 0.392812 0.710774
vt 0.802580 0.199758
vt 0.802950 0.203415
vt 0.414155 0.878318
vt 0.823620 0.254612
vt 0.835860 0.225225
vt 0.717709 0.538143
vt 0.648152 0.594596
vt 0.630034 0.557583
vt 0.813499 0.190705
vt 0.721292 0.572934
vt 0.400301 0.910556
vt 0.477326 0.891852
vt 0.464516 0.959188
vt 0.729804 0.624370
vt 0.667013 0.640198
vt 0.613510 0.655816
vt 0.574269 0.607668
vt 0.617867 0.719156
vt 0.568728 0.682132
vt 0.644031 0.693270
vt 0.668163 0.712097
vt 0.683874 0.757011
vt 0.605360 0.784410
vt 0.574835 0.744212
vt 0.676584 0.686010
vt 0.727131 0.698475
vt 0.574628 0.959188
vt 0.605134 0.846978
vt 0.715894 0.897069
vt 0.545439 0.884582
vt 0.524671 0.842380
vt 0.553841 0.821849
vt 0.485193 0.845321
vt 0.514211 0.817769
vt 0.490498 0.816075
vt 0.466042 0.804091
vt 0.477354 0.785393
vt 0.496545 0.797122
vt 0.448042 0.783921
vt 0.459660 0.770459
vt 0.468029 0.756171
vt 0.487167 0.769899
vt 0.504617 0.782999
vt 0.438745 0.764960
vt 0.445216 0.756351
vt 0.432640 0.746527
vt 0.429725 0.728622
vt 0.449819 0.743458
vt 0.443630 0.713731
vt 0.456307 0.732687
vt 0.475471 0.740871
vt 0.478880 0.719593
vt 0.513415 0.736977
vt 0.498668 0.755033
vt 0.534996 0.712528
vt 0.541117 0.760754
vt 0.557599 0.789442
vt 0.518620 0.772385
vt 0.530079 0.790754
vt 0.516137 0.792591
vt 0.513713 0.804019
vt 0.527961 0.808598
vt 0.483006 0.686791
vt 0.508539 0.641024
vt 0.409610 0.674022
vt 0.408153 0.587507
vt 0.526877 0.539235
vt 0.803789 0.171181
vt 0.851288 0.181145
vt 0.769334 0.128771
vt 0.830917 0.139518
vt 0.765863 0.087001
vt 0.823287 0.101559
vt 0.859647 0.117994
vt 0.861342 0.027230
vt 0.774604 0.010837
vt 0.176713 0.101559
vt 0.138658 0.027230
vt 0.225396 0.010837
vt 0.661952 0.087561
vt 0.338048 0.087561
vt 0.234137 0.087001
vt 0.352990 0.028716
vt 0.647010 0.028716
vt 0.364247 0.082198
vt 0.308516 0.146686
vt 0.387337 0.133675
vt 0.219887 0.169386
vt 0.230666 0.128771
vt 0.256408 0.198572
vt 0.327053 0.224880
vt 0.359503 0.198841
vt 0.295695 0.260225
vt 0.310499 0.268805
vt 0.349092 0.240294
vt 0.315483 0.317795
vt 0.344104 0.284413
vt 0.287837 0.315527
vt 0.255275 0.304629
vt 0.328643 0.334694
vt 0.298519 0.344467
vt 0.363225 0.370732
vt 0.350893 0.322437
vt 0.340493 0.313152
vt 0.333786 0.388954
vt 0.364449 0.300507
vt 0.371749 0.311636
vt 0.393837 0.325516
vt 0.384129 0.307438
vt 0.381926 0.299197
vt 0.382890 0.287175
vt 0.393015 0.291216
vt 0.368516 0.283889
vt 0.393986 0.302517
vt 0.392265 0.297520
vt 0.397810 0.277180
vt 0.401725 0.283083
vt 0.410086 0.271772
vt 0.410134 0.280167
vt 0.407628 0.254897
vt 0.388669 0.264411
vt 0.423648 0.284624
vt 0.430757 0.278245
vt 0.437639 0.284338
vt 0.427169 0.289915
vt 0.440810 0.294882
vt 0.456363 0.293371
vt 0.440331 0.267717
vt 0.449122 0.277832
vt 0.399530 0.238288
vt 0.464115 0.215568
vt 0.500000 0.252445
vt 0.559669 0.267717
vt 0.550878 0.277832
vt 0.500000 0.295691
vt 0.500000 0.203867
vt 0.535885 0.215568
vt 0.592372 0.254897
vt 0.589914 0.271772
vt 0.600470 0.238288
vt 0.562361 0.284338
vt 0.569243 0.278245
vt 0.602190 0.277180
vt 0.576352 0.284624
vt 0.589866 0.280167
vt 0.572831 0.289915
vt 0.559190 0.294882
vt 0.572447 0.295716
vt 0.544001 0.314523
vt 0.543637 0.293371
vt 0.563180 0.307151
vt 0.570458 0.318697
vt 0.559135 0.334326
vt 0.579057 0.335646
vt 0.573307 0.303342
vt 0.582130 0.320991
vt 0.578615 0.309394
vt 0.577351 0.373341
vt 0.594178 0.371277
vt 0.592090 0.332885
vt 0.636775 0.370732
vt 0.602261 0.395588
vt 0.581044 0.398468
vt 0.613636 0.353108
vt 0.584616 0.428636
vt 0.742181 0.461543
vt 0.726855 0.432574
vt 0.622301 0.417889
vt 0.649107 0.322437
vt 0.659507 0.313152
vt 0.628251 0.311636
vt 0.606163 0.325516
vt 0.590828 0.319797
vt 0.615871 0.307438
vt 0.598424 0.313725
vt 0.596347 0.309249
vt 0.583998 0.312892
vt 0.589656 0.312336
vt 0.606014 0.302517
vt 0.618074 0.299197
vt 0.607735 0.297520
vt 0.631484 0.283889
vt 0.635551 0.300507
vt 0.606985 0.291216
vt 0.617110 0.287175
vt 0.598275 0.283083
vt 0.655896 0.284413
vt 0.636962 0.261221
vt 0.611331 0.264411
vt 0.650908 0.240294
vt 0.626605 0.208159
vt 0.640497 0.198841
vt 0.600708 0.162985
vt 0.605467 0.151503
vt 0.612663 0.133675
vt 0.607239 0.113940
vt 0.578661 0.139176
vt 0.583245 0.154155
vt 0.635753 0.082198
vt 0.625128 0.029461
vt 0.598617 0.056841
vt 0.588127 0.085177
vt 0.565647 0.115495
vt 0.544695 0.083023
vt 0.558499 0.065137
vt 0.529228 0.091098
vt 0.537536 0.127779
vt 0.526301 0.079422
vt 0.512172 0.093457
vt 0.513874 0.097191
vt 0.511782 0.080633
vt 0.509911 0.090724
vt 0.500000 0.100063
vt 0.500000 0.091346
vt 0.514257 0.133422
vt 0.500000 0.134352
vt 0.485743 0.133422
vt 0.486126 0.097191
vt 0.487828 0.093457
vt 0.490089 0.090724
vt 0.488218 0.080633
vt 0.473699 0.079422
vt 0.470772 0.091098
vt 0.455305 0.083023
vt 0.434353 0.115495
vt 0.462464 0.127779
vt 0.421339 0.139176
vt 0.411873 0.085177
vt 0.392761 0.113940
vt 0.401383 0.056841
vt 0.441501 0.065137
vt 0.374872 0.029461
vt 0.396447 0.023452
vt 0.443646 0.040906
vt 0.453219 0.009442
vt 0.472841 0.049514
vt 0.462778 0.060794
vt 0.469543 0.065062
vt 0.467122 0.067822
vt 0.477388 0.070678
vt 0.482972 0.068490
vt 0.479289 0.060503
vt 0.500000 0.054411
vt 0.500000 0.033223
vt 0.520711 0.060503
vt 0.527159 0.049514
vt 0.546781 0.009442
vt 0.517028 0.068490
vt 0.522612 0.070678
vt 0.530457 0.065062
vt 0.532878 0.067822
vt 0.537222 0.060794
vt 0.556354 0.040906
vt 0.603553 0.023452
vt 0.500000 0.064527
vt 0.506819 0.075382
vt 0.500000 0.073497
vt 0.505196 0.077083
vt 0.509713 0.082236
vt 0.506822 0.086791
vt 0.506660 0.083289
vt 0.500000 0.089977
vt 0.503445 0.080840
vt 0.500000 0.085637
vt 0.493178 0.086791
vt 0.493340 0.083289
vt 0.496555 0.080840
vt 0.490287 0.082236
vt 0.493181 0.075382
vt 0.494804 0.077083
vt 0.500000 0.075473
vt 0.500000 0.080320
vt 0.416755 0.154155
vt 0.458673 0.154899
vt 0.455791 0.172814
vt 0.413084 0.172042
vt 0.399292 0.162985
vt 0.394533 0.151503
vt 0.373395 0.208159
vt 0.476327 0.198817
vt 0.479774 0.164615
vt 0.469742 0.180239
vt 0.500000 0.157864
vt 0.500000 0.165170
vt 0.482334 0.172353
vt 0.520226 0.164615
vt 0.517666 0.172353
vt 0.500000 0.171718
vt 0.541327 0.154899
vt 0.544209 0.172814
vt 0.530258 0.180239
vt 0.523673 0.198817
vt 0.586916 0.172042
vt 0.518957 0.194728
vt 0.508211 0.197295
vt 0.500000 0.192167
vt 0.515232 0.190709
vt 0.508818 0.192407
vt 0.516908 0.181873
vt 0.521901 0.181560
vt 0.513538 0.176949
vt 0.500000 0.186182
vt 0.491182 0.192407
vt 0.483092 0.181873
vt 0.486462 0.176949
vt 0.478099 0.181560
vt 0.481043 0.194728
vt 0.484768 0.190709
vt 0.491789 0.197295
vt 0.500000 0.197278
vt 0.684517 0.317795
vt 0.455999 0.314523
vt 0.440865 0.334326
vt 0.429542 0.318697
vt 0.436820 0.307151
vt 0.426693 0.303342
vt 0.420943 0.335646
vt 0.421385 0.309394
vt 0.417870 0.320991
vt 0.427553 0.295716
vt 0.405822 0.371277
vt 0.422649 0.373341
vt 0.407910 0.332885
vt 0.386364 0.353108
vt 0.418956 0.398468
vt 0.397739 0.395588
vt 0.377699 0.417889
vt 0.273145 0.432574
vt 0.409172 0.319797
vt 0.401576 0.313725
vt 0.403653 0.309249
vt 0.416002 0.312892
vt 0.410344 0.312336
vt 0.363038 0.261221
vt 0.206573 0.280495
vt 0.233590 0.233065
vt 0.229792 0.191225
vt 0.213863 0.227788
vt 0.210391 0.184671
vt 0.213850 0.181127
vt 0.202290 0.195652
vt 0.358648 0.815187
vt 0.327247 0.754609
vt 0.357414 0.710774
vt 0.322507 0.796173
vt 0.301949 0.830976
vt 0.336071 0.878318
vt 0.197050 0.203415
vt 0.197420 0.199758
vt 0.176380 0.254612
vt 0.164140 0.225225
vt 0.032517 0.538143
vt 0.120192 0.557583
vt 0.102074 0.594596
vt 0.186501 0.190705
vt 0.272900 0.891852
vt 0.349925 0.910556
vt 0.028934 0.572934
vt 0.285710 0.959188
vt 0.136716 0.655816
vt 0.083213 0.640198
vt 0.020422 0.624370
vt 0.175957 0.607668
vt 0.181498 0.682132
vt 0.132359 0.719156
vt 0.106195 0.693270
vt 0.175391 0.744212
vt 0.144866 0.784410
vt 0.066352 0.757011
vt 0.082063 0.712097
vt 0.073642 0.686010
vt 0.023095 0.698475
vt 0.145092 0.846978
vt 0.034332 0.897069
vt 0.175598 0.959188
vt 0.225555 0.842380
vt 0.204787 0.884582
vt 0.196385 0.821849
vt 0.236015 0.817769
vt 0.265033 0.845321
vt 0.259728 0.816075
vt 0.272872 0.785393
vt 0.284184 0.804091
vt 0.253681 0.797122
vt 0.245609 0.782999
vt 0.263059 0.769899
vt 0.282197 0.756171
vt 0.290566 0.770459
vt 0.302184 0.783921
vt 0.311481 0.764960
vt 0.305010 0.756351
vt 0.317586 0.746527
vt 0.320501 0.728622
vt 0.300407 0.743458
vt 0.306596 0.713731
vt 0.293919 0.732687
vt 0.274755 0.740871
vt 0.236811 0.736977
vt 0.271346 0.719593
vt 0.251558 0.755033
vt 0.215230 0.712528
vt 0.209109 0.760754
vt 0.192627 0.789442
vt 0.231606 0.772385
vt 0.234089 0.792591
vt 0.220147 0.790754
vt 0.236513 0.804019
vt 0.222265 0.808598
vt 0.267220 0.686791
vt 0.241687 0.641024
vt 0.340616 0.674022
vt 0.342073 0.587507
vt 0.223349 0.539235
vt 0.196211 0.171181
vt 0.169083 0.139518
vt 0.148712 0.181145
vt 0.131691 0.233525
vt 0.110522 0.177602
vt 0.140353 0.117994
vt 0.077626 0.064228
vt 0.922374 0.064228
vt 0.889478 0.177602
vt 0.012367 0.154243
vt 0.987633 0.154243
vt 0.999860 0.253531
vt 0.903302 0.261367
vt 0.868309 0.233525
vt 0.855331 0.267956
vt 0.881169 0.309153
vt 0.826663 0.297810
vt 0.096698 0.261367
vt 0.000140 0.253531
vt 0.144669 0.267956
vt 0.118831 0.309153
vt 0.173337 0.297810
vt 0.795638 0.489991
s 0
f 67/67/113 68/68/113 74/69/113
f 67/67/114 72/70/114 68/68/114
f 67/67/115 69/71/115 72/70/115
f 67/67/116 73/72/116 69/71/116
f 75/73/117 70/74/117 67/67/117
f 67/67/118 70/74/118 73/72/118
f 75/73/119 67/67/119 71/75/119
f 67/67/120 74/69/120 71/75/120
f 78/76/121 75/77/121 71/78/121
f 76/79/122 70/74/122 75/73/122
f 76/80/123 75/77/123 77/81/123
f 79/82/124 77/81/124 75/77/124
f 79/82/125 75/77/125 78/76/125
f 80/83/126 79/82/126 81/84/126
f 82/85/127 79/82/127 80/83/127
f 79/82/128 83/86/128 81/84/128
f 82/85/129 77/81/129 79/82/129
f 79/82/130 78/76/130 83/86/130
f 81/84/131 83/86/131 84/87/131
f 85/88/132 84/89/132 83/90/132
f 86/91/133 85/88/133 83/90/133
f 86/91/134 83/90/134 78/92/134
f 85/88/135 86/91/135 87/93/135
f 89/94/136 87/93/136 86/91/136
f 74/95/137 88/96/137 86/91/137
f 89/94/138 86/91/138 88/96/138
f 74/95/139 86/91/139 78/92/139
f 90/97/140 89/98/140 88/99/140
f 90/97/141 91/100/141 89/98/141
f 89/94/142 91/100/142 92/101/142
f 89/94/143 92/101/143 87/93/143
f 95/102/144 92/101/144 91/100/144
f 87/93/145 92/101/145 93/103/145
f 94/104/146 93/103/146 92/101/146
f 95/102/147 94/104/147 92/101/147
f 96/105/148 95/102/148 91/100/148
f 96/105/149 97/106/149 95/102/149
f 95/102/150 97/106/150 98/107/150
f 95/102/151 98/107/151 94/104/151
f 97/106/152 100/108/152 98/107/152
f 94/104/153 98/107/153 101/109/153
f 99/110/154 101/109/154 98/107/154
f 100/108/155 99/110/155 98/107/155
f 99/110/156 102/111/156 101/109/156
f 101/109/157 102/111/157 104/112/157
f 101/109/158 105/113/158 103/114/158
f 94/104/159 101/109/159 103/114/159
f 101/109/160 104/112/160 105/113/160
f 105/115/161 106/116/161 109/117/161
f 105/115/162 108/118/162 106/116/162
f 105/115/163 104/119/163 108/118/163
f 105/113/164 107/120/164 110/121/164
f 105/115/165 109/117/165 107/122/165
f 105/113/166 110/121/166 103/114/166
f 103/114/167 110/121/167 111/123/167
f 114/124/168 111/123/168 110/121/168
f 110/125/169 116/126/169 112/127/169
f 114/124/170 110/121/170 112/128/170
f 110/125/171 113/129/171 116/126/171
f 110/130/172 115/131/172 113/132/172
f 110/130/173 107/122/173 115/131/173
f 119/133/174 116/126/174 113/129/174
f 119/133/175 117/134/175 116/126/175
f 120/135/176 116/126/176 117/134/176
f 112/127/177 116/126/177 118/136/177
f 120/135/178 118/136/178 116/126/178
f 123/137/179 121/138/179 120/135/179
f 121/138/180 118/136/180 120/135/180
f 117/134/181 122/139/181 120/135/181
f 123/137/182 120/135/182 122/139/182
f 123/137/183 127/140/183 124/141/183
f 126/142/184 123/137/184 124/141/184
f 126/142/185 125/143/185 123/137/185
f 125/143/186 121/138/186 123/137/186
f 123/137/187 122/139/187 127/140/187
f 124/141/188 127/140/188 128/144/188
f 128/144/189 127/140/189 122/139/189
f 129/145/190 128/144/190 117/134/190
f 124/141/191 128/144/191 129/145/191
f 117/134/192 128/144/192 122/139/192
f 129/145/193 117/134/193 119/133/193
f 119/146/194 130/147/194 129/148/194
f 130/147/195 124/141/195 129/148/195
f 119/146/196 131/149/196 130/147/196
f 133/150/197 130/147/197 131/149/197
f 130/147/198 126/142/198 124/141/198
f 132/151/199 126/142/199 130/147/199
f 133/150/200 132/151/200 130/147/200
f 131/149/201 134/152/201 133/150/201
f 132/151/202 133/150/202 135/153/202
f 133/150/203 134/152/203 136/154/203
f 133/150/204 136/154/204 135/153/204
f 134/152/205 137/155/205 136/154/205
f 139/156/206 136/154/206 137/155/206
f 135/153/207 136/154/207 138/157/207
f 139/156/208 138/157/208 136/154/208
f 144/158/209 140/159/209 139/156/209
f 142/160/210 139/156/210 140/159/210
f 139/156/211 141/161/211 143/162/211
f 142/160/212 141/161/212 139/156/212
f 139/156/213 143/162/213 138/157/213
f 144/158/214 139/156/214 137/155/214
f 106/116/215 144/158/215 137/155/215
f 106/116/216 145/163/216 144/158/216
f 146/164/217 144/158/217 145/163/217
f 146/164/218 140/159/218 144/158/218
f 147/165/219 146/164/219 145/163/219
f 149/166/220 146/164/220 147/165/220
f 149/166/221 148/167/221 146/164/221
f 148/167/222 140/159/222 146/164/222
f 149/166/223 150/168/223 151/169/223
f 104/119/224 150/168/224 149/166/224
f 108/118/225 104/119/225 149/166/225
f 108/118/217 149/166/217 147/165/217
f 149/166/226 151/169/226 148/167/226
f 150/168/227 152/170/227 151/169/227
f 152/170/228 148/167/228 151/169/228
f 150/168/229 153/171/229 152/170/229
f 155/172/230 152/170/230 153/171/230
f 155/172/231 154/173/231 152/170/231
f 154/173/232 142/160/232 152/170/232
f 152/170/233 142/160/233 148/167/233
f 156/174/234 155/172/234 153/171/234
f 125/143/235 155/172/235 156/174/235
f 125/143/236 157/175/236 155/172/236
f 157/175/237 154/173/237 155/172/237
f 158/176/238 157/175/238 125/143/238
f 158/176/239 159/177/239 157/175/239
f 157/175/240 159/177/240 154/173/240
f 158/176/241 160/178/241 159/177/241
f 161/179/242 159/177/242 160/178/242
f 143/162/243 154/173/243 159/177/243
f 161/179/244 143/162/244 159/177/244
f 143/162/245 161/179/245 162/180/245
f 163/181/246 162/180/246 161/179/246
f 163/181/247 161/179/247 160/178/247
f 158/176/248 132/151/248 163/181/248
f 132/151/249 135/153/249 163/181/249
f 135/153/250 162/180/250 163/181/250
f 158/176/251 163/181/251 160/178/251
f 135/153/252 138/157/252 162/180/252
f 143/162/253 162/180/253 138/157/253
f 132/151/254 158/176/254 126/142/254
f 158/176/255 125/143/255 126/142/255
f 125/143/256 156/174/256 121/138/256
f 121/138/257 156/174/257 164/182/257
f 156/174/258 153/171/258 164/182/258
f 165/183/259 164/182/259 102/184/259
f 121/138/260 164/182/260 165/183/260
f 164/182/261 153/171/261 150/168/261
f 164/182/262 150/168/262 102/184/262
f 121/138/263 165/183/263 118/136/263
f 99/185/264 118/136/264 165/183/264
f 165/183/265 102/184/265 99/185/265
f 143/162/266 141/161/266 154/173/266
f 154/173/267 141/161/267 142/160/267
f 104/119/268 102/184/268 150/168/268
f 148/167/269 142/160/269 140/159/269
f 147/165/270 145/163/270 108/118/270
f 106/116/216 108/118/216 145/163/216
f 134/152/271 109/117/271 137/155/271
f 106/116/272 137/155/272 109/117/272
f 131/149/273 115/131/273 134/152/273
f 107/122/274 134/152/274 115/131/274
f 107/122/275 109/117/275 134/152/275
f 113/132/276 131/149/276 119/146/276
f 113/132/277 115/131/277 131/149/277
f 99/185/278 166/186/278 118/136/278
f 112/127/279 118/136/279 166/186/279
f 166/187/280 168/188/280 112/128/280
f 169/189/281 167/190/281 166/187/281
f 166/187/282 167/190/282 168/188/282
f 169/189/283 166/187/283 99/110/283
f 170/191/284 169/189/284 100/108/284
f 171/192/285 169/189/285 170/191/285
f 100/108/286 169/189/286 99/110/286
f 171/192/287 167/190/287 169/189/287
f 172/193/288 171/192/288 173/194/288
f 172/193/289 167/190/289 171/192/289
f 171/192/290 174/195/290 173/194/290
f 171/192/291 170/191/291 174/195/291
f 177/196/292 173/197/292 174/198/292
f 174/195/293 170/191/293 178/199/293
f 179/200/294 175/201/294 174/198/294
f 177/196/295 174/198/295 175/201/295
f 179/200/296 174/198/296 176/202/296
f 174/195/297 178/199/297 176/203/297
f 180/204/298 179/200/298 176/202/298
f 175/201/299 179/200/299 182/205/299
f 180/204/300 181/206/300 179/200/300
f 182/205/301 179/200/301 181/206/301
f 182/205/302 186/207/302 183/208/302
f 175/201/303 182/205/303 183/208/303
f 182/205/304 184/209/304 186/207/304
f 182/205/305 187/210/305 184/209/305
f 182/205/306 185/211/306 187/210/306
f 181/206/307 185/211/307 182/205/307
f 184/209/308 187/210/308 188/212/308
f 187/210/309 190/213/309 188/212/309
f 187/210/310 189/214/310 190/213/310
f 185/211/311 189/214/311 187/210/311
f 192/215/312 190/213/312 191/216/312
f 191/216/313 190/213/313 189/214/313
f 190/213/314 192/215/314 193/217/314
f 190/213/315 193/217/315 188/212/315
f 194/218/316 193/217/316 82/85/316
f 193/217/317 195/219/317 82/220/317
f 193/217/318 192/215/318 195/219/318
f 188/212/319 193/217/319 194/218/319
f 197/221/320 195/219/320 196/222/320
f 195/219/321 198/223/321 196/222/321
f 195/219/322 192/215/322 198/223/322
f 195/219/323 197/221/323 77/224/323
f 195/219/324 77/224/324 82/220/324
f 191/216/325 199/225/325 198/223/325
f 192/215/326 191/216/326 198/223/326
f 198/223/327 200/226/327 196/222/327
f 198/223/328 199/225/328 200/226/328
f 196/222/329 200/226/329 201/227/329
f 201/227/330 200/226/330 202/228/330
f 200/226/331 199/225/331 203/229/331
f 200/226/332 203/229/332 202/228/332
f 203/229/333 204/230/333 208/231/333
f 203/229/334 206/232/334 204/230/334
f 203/229/335 199/225/335 206/232/335
f 207/233/336 202/228/336 203/229/336
f 203/229/337 208/231/337 205/234/337
f 207/233/338 203/229/338 205/234/338
f 208/231/339 204/230/339 210/235/339
f 208/231/340 210/235/340 209/236/340
f 210/235/341 211/237/341 214/238/341
f 210/235/342 213/239/342 211/237/342
f 210/235/343 212/240/343 213/239/343
f 204/230/344 212/240/344 210/235/344
f 210/235/345 214/238/345 209/236/345
f 211/237/346 215/241/346 214/238/346
f 215/241/347 216/242/347 218/243/347
f 211/237/348 216/242/348 215/241/348
f 215/241/347 218/243/347 217/244/347
f 217/244/349 218/243/349 219/245/349
f 218/243/350 221/246/350 219/245/350
f 222/247/351 220/248/351 218/243/351
f 218/243/352 220/248/352 221/246/352
f 222/247/353 218/243/353 216/242/353
f 224/249/354 223/250/354 222/247/354
f 225/251/355 222/247/355 223/250/355
f 211/237/356 213/239/356 222/247/356
f 224/249/357 222/247/357 213/239/357
f 225/251/358 220/248/358 222/247/358
f 211/237/359 222/247/359 216/242/359
f 230/252/360 226/253/360 225/251/360
f 226/253/361 228/254/361 225/251/361
f 229/255/362 227/256/362 225/251/362
f 230/252/363 225/251/363 227/256/363
f 223/250/364 229/255/364 225/251/364
f 220/248/365 225/251/365 228/254/365
f 230/252/366 231/257/366 235/258/366
f 230/252/357 233/259/357 231/257/357
f 230/252/367 227/256/367 233/259/367
f 230/252/368 234/260/368 226/253/368
f 230/252/369 232/261/369 234/260/369
f 230/252/370 235/258/370 232/261/370
f 231/257/371 236/262/371 235/258/371
f 235/258/372 238/263/372 232/261/372
f 236/262/373 237/264/373 235/258/373
f 235/258/374 237/264/374 238/263/374
f 234/260/375 232/261/375 238/263/375
f 234/260/375 238/263/375 239/265/375
f 241/266/376 234/260/376 239/265/376
f 241/266/377 239/265/377 240/267/377
f 244/268/378 242/269/378 241/266/378
f 242/269/379 234/260/379 241/266/379
f 243/270/380 241/266/380 240/267/380
f 244/268/381 241/266/381 243/270/381
f 244/268/382 246/271/382 245/272/382
f 72/70/383 244/268/383 245/272/383
f 244/268/384 69/71/384 228/254/384
f 72/70/385 69/71/385 244/268/385
f 244/268/386 228/254/386 242/269/386
f 244/268/387 243/270/387 246/271/387
f 249/273/388 245/272/388 246/271/388
f 246/271/389 243/270/389 250/274/389
f 247/275/390 246/271/390 248/276/390
f 249/273/391 246/271/391 247/275/391
f 246/271/392 250/274/392 248/276/392
f 243/270/393 240/267/393 250/274/393
f 249/273/394 72/70/394 245/272/394
f 249/273/395 251/277/395 72/70/395
f 249/273/396 253/278/396 251/277/396
f 252/279/397 249/273/397 247/275/397
f 249/273/398 252/279/398 253/278/398
f 256/280/399 254/281/399 253/278/399
f 257/282/400 253/278/400 254/281/400
f 255/283/401 253/278/401 252/279/401
f 256/280/402 253/278/402 255/283/402
f 257/282/403 251/277/403 253/278/403
f 254/281/404 258/284/404 257/282/404
f 68/68/405 251/277/405 257/282/405
f 68/68/406 257/282/406 258/284/406
f 258/285/407 88/96/407 74/95/407
f 68/68/408 258/284/408 74/69/408
f 258/285/409 259/286/409 88/96/409
f 254/281/410 259/287/410 258/284/410
f 256/280/411 259/287/411 254/281/411
f 256/280/412 88/99/412 259/287/412
f 90/97/413 88/99/413 256/280/413
f 256/280/414 260/288/414 90/97/414
f 256/280/415 255/283/415 260/288/415
f 90/97/416 260/288/416 261/289/416
f 261/289/417 260/288/417 262/290/417
f 260/288/418 255/283/418 263/291/418
f 260/288/419 263/291/419 262/290/419
f 263/291/420 252/279/420 266/292/420
f 255/283/421 252/279/421 263/291/421
f 263/291/422 265/293/422 262/290/422
f 263/291/423 264/294/423 265/293/423
f 263/291/424 266/292/424 264/294/424
f 252/279/425 247/275/425 266/292/425
f 266/292/426 269/295/426 264/294/426
f 266/292/427 247/275/427 268/296/427
f 266/292/428 267/297/428 269/295/428
f 266/292/429 268/296/429 267/297/429
f 264/294/430 269/295/430 270/298/430
f 272/299/431 265/293/431 270/298/431
f 264/294/432 270/298/432 265/293/432
f 272/299/433 270/298/433 271/300/433
f 275/301/434 273/302/434 272/299/434
f 262/290/435 272/299/435 273/302/435
f 272/299/436 276/303/436 274/304/436
f 275/301/437 272/299/437 274/304/437
f 262/290/438 265/293/438 272/299/438
f 272/299/439 271/300/439 276/303/439
f 236/262/440 274/304/440 276/303/440
f 236/262/441 276/303/441 277/305/441
f 236/262/442 277/305/442 237/264/442
f 278/306/443 273/302/443 275/301/443
f 280/307/444 278/306/444 275/301/444
f 279/308/445 275/301/445 274/304/445
f 280/307/446 275/301/446 279/308/446
f 281/309/447 280/307/447 233/259/447
f 281/309/448 278/306/448 280/307/448
f 233/259/449 280/307/449 279/308/449
f 281/309/450 282/310/450 283/311/450
f 281/309/451 233/259/451 282/310/451
f 96/105/452 281/309/452 97/106/452
f 281/309/453 96/105/453 278/306/453
f 281/309/454 283/311/454 97/106/454
f 284/312/455 283/311/455 282/310/455
f 97/106/456 283/311/456 100/108/456
f 283/311/457 284/312/457 285/313/457
f 283/311/458 286/314/458 100/108/458
f 283/311/459 285/313/459 286/314/459
f 288/315/460 286/314/460 287/316/460
f 286/314/461 289/317/461 287/316/461
f 286/314/462 285/313/462 289/317/462
f 290/318/463 286/314/463 288/315/463
f 290/318/464 178/199/464 286/314/464
f 286/314/465 178/199/465 100/108/465
f 291/319/466 290/318/466 292/320/466
f 176/203/467 290/318/467 291/319/467
f 293/321/468 292/320/468 290/318/468
f 293/321/469 290/318/469 288/315/469
f 176/203/470 178/199/470 290/318/470
f 296/322/471 294/323/471 293/321/471
f 294/323/472 295/324/472 293/321/472
f 295/324/473 292/320/473 293/321/473
f 296/322/474 293/321/474 288/315/474
f 296/322/475 298/325/475 294/323/475
f 296/322/476 297/326/476 298/325/476
f 287/316/477 297/326/477 296/322/477
f 288/315/478 287/316/478 296/322/478
f 294/323/479 298/325/479 299/327/479
f 301/328/480 299/327/480 298/325/480
f 297/326/481 300/329/481 298/325/481
f 301/328/482 298/325/482 300/329/482
f 302/330/483 299/327/483 301/328/483
f 302/330/484 301/328/484 304/331/484
f 301/328/217 300/329/217 305/332/217
f 303/333/485 304/331/485 301/328/485
f 301/328/217 305/332/217 303/333/217
f 308/334/486 305/332/486 300/329/486
f 308/334/487 306/335/487 305/332/487
f 309/336/487 305/332/487 306/335/487
f 309/336/488 307/337/488 305/332/488
f 310/338/217 305/332/217 307/337/217
f 310/338/217 303/333/217 305/332/217
f 313/339/489 310/338/489 311/340/489
f 311/340/490 310/338/490 312/341/490
f 314/342/491 312/341/491 310/338/491
f 314/342/492 310/338/492 307/337/492
f 303/333/493 310/338/493 313/339/493
f 312/341/494 314/342/494 315/343/494
f 314/342/495 317/344/495 315/343/495
f 314/342/496 316/345/496 317/344/496
f 307/337/497 316/345/497 314/342/497
f 318/346/498 317/344/498 316/345/498
f 320/347/499 315/343/499 317/344/499
f 319/348/500 317/344/500 318/346/500
f 320/347/501 317/344/501 319/348/501
f 322/349/502 321/350/502 320/347/502
f 321/350/503 315/343/503 320/347/503
f 320/347/504 180/204/504 322/349/504
f 320/347/505 319/348/505 180/204/505
f 291/351/506 322/349/506 180/204/506
f 291/351/507 323/352/507 322/349/507
f 323/352/508 324/353/508 322/349/508
f 322/349/509 324/353/509 321/350/509
f 323/352/510 325/354/510 324/353/510
f 325/354/511 326/355/511 324/353/511
f 327/356/512 324/353/512 326/355/512
f 327/356/513 321/350/513 324/353/513
f 326/355/514 328/357/514 327/356/514
f 327/356/515 328/357/515 329/358/515
f 327/356/516 329/358/516 321/350/516
f 330/359/517 312/341/517 329/358/517
f 312/341/518 315/343/518 329/358/518
f 330/359/519 329/358/519 328/357/519
f 321/350/520 329/358/520 315/343/520
f 331/360/521 311/340/521 330/359/521
f 330/359/522 332/361/522 331/360/522
f 330/359/523 328/357/523 332/361/523
f 311/340/524 312/341/524 330/359/524
f 331/360/525 332/361/525 333/362/525
f 334/363/526 333/362/526 332/361/526
f 326/355/527 332/361/527 328/357/527
f 334/363/528 332/361/528 326/355/528
f 336/364/529 334/363/529 335/365/529
f 325/366/530 335/365/530 334/363/530
f 325/354/531 334/363/531 326/355/531
f 336/364/532 333/362/532 334/363/532
f 337/367/533 333/362/533 336/364/533
f 339/368/534 337/367/534 336/364/534
f 338/369/535 336/364/535 335/365/535
f 339/368/536 336/364/536 338/369/536
f 340/370/537 339/368/537 338/369/537
f 302/330/538 337/367/538 339/368/538
f 302/330/539 339/368/539 299/327/539
f 340/370/540 299/327/540 339/368/540
f 340/370/541 338/369/541 341/371/541
f 294/323/542 299/327/542 340/370/542
f 294/323/543 340/370/543 295/324/543
f 340/370/544 341/371/544 295/324/544
f 338/369/545 335/365/545 341/371/545
f 341/371/546 335/365/546 342/372/546
f 341/371/547 342/372/547 295/324/547
f 325/366/548 342/372/548 335/365/548
f 323/373/549 342/372/549 325/366/549
f 295/324/550 342/372/550 292/320/550
f 323/373/551 292/320/551 342/372/551
f 337/367/552 343/374/552 333/362/552
f 344/375/553 343/374/553 337/367/553
f 302/330/554 344/375/554 337/367/554
f 345/376/555 344/375/555 346/377/555
f 344/375/556 345/376/556 343/374/556
f 344/375/557 302/330/557 347/378/557
f 344/375/558 347/378/558 346/377/558
f 302/330/559 304/331/559 347/378/559
f 347/378/560 304/331/560 349/379/560
f 346/377/561 347/378/561 348/380/561
f 347/378/560 349/379/560 348/380/560
f 352/381/562 349/379/562 304/331/562
f 349/379/563 351/382/563 348/380/563
f 352/381/562 350/383/562 349/379/562
f 350/383/564 351/382/564 349/379/564
f 303/333/565 352/381/565 304/331/565
f 303/333/566 313/339/566 352/381/566
f 352/381/567 313/339/567 353/384/567
f 352/381/567 353/384/567 350/383/567
f 354/385/568 355/386/568 353/384/568
f 353/384/569 356/387/569 354/385/569
f 353/384/569 313/339/569 356/387/569
f 355/386/570 350/383/570 353/384/570
f 313/339/571 311/340/571 356/387/571
f 356/387/572 311/340/572 358/388/572
f 354/385/573 356/387/573 357/389/573
f 356/387/574 358/388/574 357/389/574
f 357/389/575 358/388/575 345/376/575
f 343/374/576 345/376/576 358/388/576
f 331/360/577 358/388/577 311/340/577
f 343/374/578 358/388/578 331/360/578
f 357/389/579 359/390/579 360/391/579
f 357/389/217 345/376/217 359/390/217
f 354/385/580 357/389/580 355/386/580
f 357/389/579 360/391/579 355/386/579
f 346/377/581 360/391/581 359/390/581
f 350/383/582 360/391/582 351/382/582
f 346/377/581 351/382/581 360/391/581
f 355/386/583 360/391/583 350/383/583
f 345/376/217 346/377/217 359/390/217
f 346/377/584 348/380/584 351/382/584
f 331/360/585 333/362/585 343/374/585
f 291/319/586 292/320/586 323/373/586
f 180/204/587 319/348/587 181/206/587
f 319/348/588 318/346/588 181/206/588
f 362/392/589 318/346/589 361/393/589
f 318/346/590 316/345/590 361/393/590
f 181/206/591 318/346/591 362/392/591
f 363/394/592 364/395/592 362/392/592
f 362/392/593 361/393/593 363/394/593
f 362/392/594 364/395/594 366/396/594
f 362/392/595 366/396/595 365/397/595
f 181/206/596 362/392/596 365/397/596
f 365/397/597 366/396/597 185/211/597
f 366/396/598 364/395/598 367/398/598
f 366/396/599 367/398/599 185/211/599
f 189/214/600 367/398/600 224/249/600
f 224/249/601 367/398/601 364/395/601
f 185/211/602 367/398/602 189/214/602
f 181/206/603 365/397/603 185/211/603
f 363/394/604 223/250/604 364/395/604
f 224/249/605 364/395/605 223/250/605
f 363/394/606 369/399/606 223/250/606
f 370/400/607 368/401/607 363/394/607
f 363/394/608 368/401/608 369/399/608
f 370/400/609 363/394/609 361/393/609
f 370/400/610 371/402/610 373/403/610
f 371/402/611 370/400/611 309/336/611
f 309/336/612 370/400/612 361/393/612
f 370/400/613 373/403/613 372/404/613
f 372/404/614 368/401/614 370/400/614
f 376/405/615 373/403/615 371/402/615
f 376/405/616 374/406/616 373/403/616
f 374/406/617 375/407/617 373/403/617
f 372/404/618 373/403/618 375/407/618
f 308/334/619 378/408/619 376/405/619
f 371/402/620 308/334/620 376/405/620
f 376/405/621 379/409/621 377/410/621
f 377/410/622 374/406/622 376/405/622
f 376/405/623 378/408/623 379/409/623
f 380/411/624 377/410/624 379/409/624
f 381/412/625 227/256/625 379/409/625
f 380/411/626 379/409/626 227/256/626
f 289/317/627 379/409/627 378/408/627
f 381/412/628 379/409/628 289/317/628
f 381/412/629 233/259/629 227/256/629
f 381/412/630 282/310/630 233/259/630
f 284/312/631 282/310/631 381/412/631
f 289/317/632 284/312/632 381/412/632
f 382/413/633 377/410/633 380/411/633
f 383/414/634 382/413/634 380/411/634
f 229/255/635 380/411/635 227/256/635
f 383/414/636 380/411/636 229/255/636
f 384/415/637 383/414/637 229/255/637
f 383/414/638 386/416/638 382/413/638
f 384/415/639 385/417/639 383/414/639
f 383/414/640 385/417/640 386/416/640
f 387/418/641 386/416/641 385/417/641
f 386/416/642 388/419/642 382/413/642
f 386/416/643 387/418/643 388/419/643
f 382/413/644 388/419/644 377/410/644
f 377/410/645 388/419/645 374/406/645
f 388/419/646 389/420/646 374/406/646
f 388/419/647 387/418/647 389/420/647
f 374/406/617 389/420/617 375/407/617
f 390/421/648 375/407/648 389/420/648
f 390/421/649 389/420/649 387/418/649
f 391/422/650 390/421/650 384/415/650
f 384/415/651 390/421/651 385/417/651
f 387/418/652 385/417/652 390/421/652
f 392/423/653 390/421/653 391/422/653
f 393/424/654 390/421/654 392/423/654
f 393/424/655 375/407/655 390/421/655
f 372/404/618 375/407/618 393/424/618
f 393/424/656 394/425/656 372/404/656
f 393/424/657 392/423/657 394/425/657
f 372/404/658 394/425/658 368/401/658
f 395/426/659 368/401/659 394/425/659
f 396/427/660 395/426/660 394/425/660
f 396/427/661 394/425/661 392/423/661
f 396/427/662 397/428/662 395/426/662
f 396/427/663 391/422/663 397/428/663
f 392/423/664 391/422/664 396/427/664
f 397/428/665 369/399/665 395/426/665
f 397/428/666 229/255/666 369/399/666
f 384/415/667 229/255/667 397/428/667
f 391/422/668 384/415/668 397/428/668
f 395/426/669 369/399/669 368/401/669
f 384/415/560 229/255/560 398/429/560
f 287/316/670 378/408/670 297/326/670
f 308/334/671 297/326/671 378/408/671
f 289/317/672 378/408/672 287/316/672
f 371/402/673 306/335/673 308/334/673
f 371/402/673 309/336/673 306/335/673
f 223/250/674 369/399/674 229/255/674
f 309/336/675 361/393/675 316/345/675
f 307/337/676 309/336/676 316/345/676
f 297/326/677 308/334/677 300/329/677
f 180/204/678 176/202/678 291/351/678
f 289/317/679 285/313/679 284/312/679
f 231/257/680 279/308/680 236/262/680
f 233/259/681 279/308/681 231/257/681
f 279/308/682 274/304/682 236/262/682
f 399/430/683 278/306/683 96/105/683
f 278/306/684 261/289/684 273/302/684
f 399/430/685 261/289/685 278/306/685
f 96/105/686 91/100/686 399/430/686
f 90/97/687 261/289/687 399/430/687
f 90/97/688 399/430/688 91/100/688
f 261/289/689 262/290/689 273/302/689
f 247/275/690 248/276/690 268/296/690
f 68/68/691 72/70/691 251/277/691
f 226/253/692 242/269/692 228/254/692
f 242/269/693 226/253/693 234/260/693
f 228/254/694 69/71/694 400/431/694
f 220/248/695 228/254/695 221/246/695
f 228/254/696 400/431/696 221/246/696
f 73/72/697 400/431/697 69/71/697
f 400/431/698 401/432/698 403/433/698
f 73/72/699 401/432/699 400/431/699
f 219/245/700 221/246/700 400/431/700
f 400/431/701 403/433/701 402/434/701
f 219/245/702 400/431/702 402/434/702
f 407/435/703 402/434/703 403/433/703
f 403/433/704 401/432/704 406/436/704
f 405/437/705 403/433/705 404/438/705
f 403/433/706 406/436/706 404/438/706
f 407/435/707 403/433/707 405/437/707
f 408/439/708 402/434/708 407/435/708
f 408/439/709 219/245/709 402/434/709
f 217/244/710 219/245/710 408/439/710
f 411/440/711 406/436/711 409/441/711
f 406/436/712 73/72/712 409/441/712
f 406/436/713 401/432/713 73/72/713
f 404/438/714 406/436/714 410/442/714
f 411/440/715 410/442/715 406/436/715
f 412/443/716 410/442/716 411/440/716
f 411/440/717 197/221/717 412/443/717
f 414/444/718 413/445/718 411/440/718
f 411/440/719 413/445/719 197/221/719
f 414/444/720 411/440/720 409/441/720
f 70/74/721 414/444/721 409/441/721
f 413/445/722 414/444/722 76/79/722
f 76/79/723 414/444/723 70/74/723
f 197/221/724 413/445/724 415/446/724
f 413/445/725 76/79/725 415/446/725
f 76/80/726 77/81/726 415/447/726
f 197/221/727 415/446/727 77/224/727
f 196/222/728 201/227/728 412/443/728
f 197/221/729 196/222/729 412/443/729
f 412/443/730 201/227/730 410/442/730
f 416/448/731 410/442/731 201/227/731
f 404/438/732 410/442/732 416/448/732
f 416/448/733 417/449/733 420/450/733
f 416/448/734 201/227/734 417/449/734
f 419/451/735 404/438/735 416/448/735
f 416/448/736 420/450/736 418/452/736
f 419/451/737 416/448/737 418/452/737
f 417/449/738 207/233/738 420/450/738
f 405/437/739 404/438/739 419/451/739
f 417/449/740 202/228/740 207/233/740
f 201/227/741 202/228/741 417/449/741
f 70/74/742 409/441/742 73/72/742
f 224/249/743 212/240/743 421/453/743
f 189/214/744 224/249/744 421/453/744
f 224/249/745 213/239/745 212/240/745
f 191/216/746 189/214/746 421/453/746
f 421/453/747 206/232/747 191/216/747
f 421/453/748 212/240/748 206/232/748
f 204/230/749 206/232/749 212/240/749
f 191/216/750 206/232/750 199/225/750
f 422/454/751 194/218/751 80/83/751
f 194/218/752 82/85/752 80/83/752
f 422/454/753 423/455/753 194/218/753
f 188/212/754 194/218/754 423/455/754
f 425/456/755 184/209/755 423/455/755
f 184/209/756 188/212/756 423/455/756
f 422/454/757 424/457/757 423/455/757
f 425/456/758 423/455/758 424/457/758
f 427/458/759 426/459/759 425/456/759
f 186/207/760 425/456/760 426/459/760
f 186/207/761 184/209/761 425/456/761
f 425/456/762 424/457/762 428/460/762
f 425/456/763 428/460/763 427/458/763
f 428/461/764 431/462/764 427/463/764
f 428/461/765 429/464/765 431/462/765
f 428/461/766 432/465/766 429/464/766
f 428/461/767 430/466/767 432/465/767
f 428/460/768 433/467/768 430/468/768
f 428/460/769 424/457/769 433/467/769
f 434/469/770 433/467/770 424/457/770
f 437/470/771 433/467/771 434/469/771
f 433/471/772 435/472/772 439/473/772
f 437/470/773 435/474/773 433/467/773
f 438/475/774 430/466/774 433/476/774
f 433/471/775 439/473/775 436/477/775
f 438/475/776 433/476/776 436/478/776
f 443/479/777 440/480/777 439/473/777
f 442/481/778 439/473/778 440/480/778
f 442/481/779 436/477/779 439/473/779
f 441/482/780 439/473/780 435/472/780
f 443/479/781 439/473/781 441/482/781
f 441/482/782 444/483/782 443/479/782
f 443/479/783 444/483/783 446/484/783
f 445/485/784 440/480/784 443/479/784
f 443/479/785 446/484/785 445/485/785
f 447/486/786 446/484/786 444/483/786
f 449/487/787 446/484/787 447/486/787
f 446/484/788 448/488/788 450/489/788
f 449/487/789 448/488/789 446/484/789
f 446/484/790 450/489/790 445/485/790
f 445/485/791 450/489/791 451/490/791
f 448/488/792 451/490/792 450/489/792
f 448/488/793 452/491/793 451/490/793
f 452/491/794 440/480/794 451/490/794
f 445/485/795 451/490/795 440/480/795
f 453/492/796 452/493/796 448/488/796
f 453/492/797 442/494/797 452/493/797
f 452/491/798 442/481/798 440/480/798
f 456/495/799 454/496/799 453/492/799
f 453/492/800 454/496/800 442/494/800
f 455/497/801 453/492/801 449/487/801
f 453/492/802 448/488/802 449/487/802
f 456/495/803 453/492/803 455/497/803
f 458/498/804 456/495/804 455/497/804
f 457/499/805 454/496/805 456/495/805
f 459/500/806 457/499/806 456/495/806
f 459/500/807 456/495/807 458/498/807
f 462/501/808 460/502/808 459/500/808
f 460/502/809 457/499/809 459/500/809
f 461/503/810 459/500/810 458/498/810
f 462/501/811 459/500/811 461/503/811
f 466/504/812 463/505/812 462/501/812
f 465/506/813 462/501/813 463/505/813
f 465/506/814 464/507/814 462/501/814
f 467/508/815 462/501/815 464/507/815
f 466/504/816 462/501/816 461/503/816
f 467/508/817 460/502/817 462/501/817
f 429/464/818 460/502/818 467/508/818
f 468/509/819 429/464/819 467/508/819
f 467/508/217 469/510/217 468/509/217
f 467/508/820 464/507/820 469/510/820
f 470/511/821 468/509/821 469/510/821
f 472/512/822 470/511/822 469/510/822
f 471/513/823 469/510/823 464/507/823
f 472/512/824 469/510/824 471/513/824
f 472/512/825 427/463/825 431/462/825
f 427/463/826 472/512/826 473/514/826
f 474/515/827 473/514/827 472/512/827
f 472/512/217 431/462/217 470/511/217
f 474/515/828 472/512/828 471/513/828
f 475/516/829 474/515/829 471/513/829
f 475/516/227 473/514/227 474/515/227
f 478/517/830 476/518/830 475/516/830
f 475/516/831 476/518/831 473/514/831
f 465/506/832 477/519/832 475/516/832
f 478/517/833 475/516/833 477/519/833
f 475/516/834 471/513/834 465/506/834
f 476/518/835 478/517/835 479/520/835
f 478/517/836 447/486/836 479/520/836
f 480/521/837 478/517/837 477/519/837
f 478/517/838 480/521/838 447/486/838
f 481/522/839 447/486/839 480/521/839
f 481/522/840 480/521/840 482/523/840
f 480/521/841 477/519/841 482/523/841
f 484/524/842 483/525/842 482/523/842
f 481/522/843 482/523/843 483/525/843
f 466/504/844 482/523/844 477/519/844
f 484/524/845 482/523/845 466/504/845
f 484/524/846 485/526/846 486/527/846
f 466/504/847 485/526/847 484/524/847
f 484/524/848 486/527/848 483/525/848
f 486/527/849 485/526/849 458/498/849
f 458/498/850 455/497/850 486/527/850
f 486/527/851 455/497/851 481/522/851
f 486/527/852 481/522/852 483/525/852
f 466/504/853 461/503/853 485/526/853
f 461/503/854 458/498/854 485/526/854
f 481/522/855 449/487/855 447/486/855
f 455/497/856 449/487/856 481/522/856
f 487/528/857 479/520/857 444/483/857
f 447/486/858 444/483/858 479/520/858
f 476/518/859 479/520/859 487/528/859
f 488/529/860 426/530/860 487/528/860
f 487/528/861 444/483/861 488/529/861
f 473/514/862 476/518/862 487/528/862
f 473/514/863 487/528/863 426/530/863
f 441/482/864 488/529/864 444/483/864
f 488/529/865 186/531/865 426/530/865
f 441/482/866 186/531/866 488/529/866
f 465/506/867 463/505/867 477/519/867
f 466/504/868 477/519/868 463/505/868
f 427/463/869 473/514/869 426/530/869
f 471/513/870 464/507/870 465/506/870
f 470/511/871 431/462/871 468/509/871
f 468/509/819 431/462/819 429/464/819
f 429/464/872 432/465/872 460/502/872
f 460/502/873 432/465/873 457/499/873
f 430/466/874 438/475/874 457/499/874
f 457/499/875 438/475/875 454/496/875
f 430/466/876 457/499/876 432/465/876
f 436/478/877 454/496/877 438/475/877
f 436/478/878 442/494/878 454/496/878
f 441/482/879 489/532/879 186/531/879
f 441/482/880 435/472/880 489/532/880
f 183/208/881 489/533/881 490/534/881
f 489/533/882 491/535/882 490/534/882
f 489/533/883 435/474/883 491/535/883
f 183/208/884 186/207/884 489/533/884
f 492/536/885 493/537/885 491/535/885
f 491/535/886 437/470/886 492/536/886
f 491/535/887 435/474/887 437/470/887
f 491/535/888 493/537/888 494/538/888
f 491/535/889 494/538/889 490/534/889
f 177/196/890 490/534/890 494/538/890
f 494/538/891 173/197/891 177/196/891
f 494/538/892 495/539/892 173/197/892
f 493/537/893 495/539/893 494/538/893
f 172/193/894 173/194/894 495/540/894
f 497/541/895 172/193/895 495/540/895
f 493/537/896 496/542/896 495/539/896
f 497/541/897 495/540/897 496/543/897
f 499/544/898 497/541/898 496/543/898
f 168/188/899 172/193/899 497/541/899
f 497/541/900 498/545/900 500/546/900
f 499/544/901 498/545/901 497/541/901
f 497/541/902 500/546/902 168/188/902
f 498/545/903 501/547/903 500/546/903
f 501/547/904 114/124/904 500/546/904
f 168/188/905 500/546/905 114/124/905
f 503/548/906 502/549/906 501/547/906
f 502/549/907 111/123/907 501/547/907
f 501/547/908 111/123/908 114/124/908
f 498/545/909 503/548/909 501/547/909
f 503/548/910 85/88/910 502/549/910
f 85/88/911 503/548/911 84/89/911
f 84/89/912 503/548/912 498/545/912
f 85/88/913 87/93/913 502/549/913
f 87/93/914 93/103/914 502/549/914
f 502/549/915 93/103/915 111/123/915
f 504/550/916 84/87/916 499/551/916
f 84/89/917 498/545/917 499/544/917
f 493/537/918 504/550/918 499/551/918
f 493/537/919 499/551/919 496/542/919
f 506/552/920 505/553/920 504/550/920
f 504/550/921 505/553/921 84/87/921
f 492/536/922 504/550/922 493/537/922
f 506/552/923 504/550/923 492/536/923
f 437/470/924 434/469/924 506/552/924
f 434/469/925 507/554/925 506/552/925
f 507/554/926 505/553/926 506/552/926
f 437/470/927 506/552/927 492/536/927
f 434/469/928 422/454/928 507/554/928
f 422/454/929 80/83/929 507/554/929
f 80/83/930 81/84/930 507/554/930
f 507/554/931 81/84/931 505/553/931
f 81/84/932 84/87/932 505/553/932
f 177/196/933 183/208/933 490/534/933
f 434/469/934 424/457/934 422/454/934
f 177/196/935 175/201/935 183/208/935
f 170/191/936 100/108/936 178/199/936
f 168/188/937 167/190/937 172/193/937
f 168/188/938 114/124/938 112/128/938
f 103/114/939 111/123/939 93/103/939
f 94/104/940 103/114/940 93/103/940
f 71/555/941 74/95/941 78/92/941
